<svg width="568" height="259" viewBox="0 0 568 259" fill="none" xmlns="http://www.w3.org/2000/svg">
<g filter="url(#filter0_dd_932_13718)">
<rect x="134.139" y="24" width="299.722" height="195" rx="5.77778" fill="white"/>
<rect x="134.5" y="24.3611" width="299" height="194.278" rx="5.41667" stroke="#D3D5DC" stroke-width="0.722222"/>
</g>
<path d="M146.418 42.4111H149.104V53.321H154.906V55.5555H146.418V42.4111ZM156.559 42.4111H161.31C162.925 42.4111 164.195 42.8993 165.122 43.8758C166.061 44.8397 166.53 46.2668 166.53 48.1571V49.6593C166.53 51.6247 166.061 53.1019 165.122 54.0909C164.195 55.0673 162.925 55.5555 161.31 55.5555H156.559V42.4111ZM161.31 53.321C162.098 53.321 162.718 53.0393 163.169 52.476C163.619 51.9127 163.845 50.9738 163.845 49.6593V48.1571C163.845 46.9178 163.619 46.0227 163.169 45.4719C162.718 44.9211 162.098 44.6457 161.31 44.6457H159.244V53.321H161.31ZM171.617 42.4111H174.434L178.997 55.5555H176.124L175.241 52.9454H170.734L169.833 55.5555H167.054L171.617 42.4111ZM174.49 50.6921L172.988 45.7535L171.467 50.6921H174.49ZM180.581 42.4111H185.351C187.091 42.4111 188.387 42.8054 189.238 43.5941C190.089 44.3828 190.515 45.4468 190.515 46.7863C190.515 48.1383 190.089 49.2087 189.238 49.9973C188.387 50.786 187.091 51.1803 185.351 51.1803H183.267V55.5555H180.581V42.4111ZM185.351 48.927C186.24 48.927 186.872 48.7517 187.247 48.4012C187.636 48.0382 187.83 47.4999 187.83 46.7863C187.83 46.0728 187.636 45.5407 187.247 45.1902C186.872 44.8272 186.24 44.6457 185.351 44.6457H183.267V48.927H185.351ZM197.418 42.4111H200.085V55.5555H197.418V42.4111ZM205.879 55.6682C205.341 55.6682 204.859 55.5868 204.433 55.4241C204.008 55.2488 203.645 54.9797 203.344 54.6167C203.044 54.2536 202.812 53.7842 202.649 53.2083C202.499 52.6199 202.424 51.9189 202.424 51.1052V49.8659C202.424 48.3136 202.731 47.1869 203.344 46.4859C203.958 45.7848 204.803 45.4343 205.879 45.4343C206.493 45.4343 207.012 45.5783 207.438 45.8662C207.863 46.1416 208.195 46.5172 208.433 46.9929V42.4111H210.968V55.5555H208.621V53.997C208.37 54.4977 208.026 54.9046 207.588 55.2175C207.162 55.518 206.593 55.6682 205.879 55.6682ZM206.668 53.5088C207.231 53.5088 207.663 53.3272 207.963 52.9642C208.276 52.6012 208.433 51.9815 208.433 51.1052V49.8659C208.433 49.0522 208.276 48.4701 207.963 48.1195C207.663 47.769 207.231 47.5938 206.668 47.5938C206.142 47.5938 205.723 47.769 205.41 48.1195C205.109 48.4701 204.959 49.0522 204.959 49.8659V51.1052C204.959 51.9815 205.109 52.6012 205.41 52.9642C205.723 53.3272 206.142 53.5088 206.668 53.5088ZM217.046 55.7245C216.408 55.7245 215.826 55.6244 215.3 55.4241C214.786 55.2238 214.348 54.9296 213.985 54.5415C213.622 54.1409 213.341 53.6527 213.14 53.0769C212.94 52.501 212.84 51.8438 212.84 51.1052V49.8659C212.84 48.4513 213.209 47.3622 213.948 46.5985C214.699 45.8224 215.7 45.4343 216.952 45.4343C218.204 45.4343 219.199 45.8224 219.938 46.5985C220.689 47.3622 221.065 48.4575 221.065 49.8847V51.2554H215.375C215.387 52.1818 215.538 52.8202 215.826 53.1708C216.126 53.5213 216.533 53.6965 217.046 53.6965C217.459 53.6965 217.772 53.5964 217.985 53.3961C218.198 53.1833 218.335 52.9329 218.398 52.645H220.877C220.739 53.5714 220.351 54.3162 219.713 54.8795C219.074 55.4429 218.185 55.7245 217.046 55.7245ZM217.027 47.4623C216.514 47.4623 216.12 47.6125 215.844 47.913C215.569 48.2009 215.412 48.7329 215.375 49.5091H218.68C218.642 48.7329 218.486 48.2009 218.21 47.913C217.935 47.6125 217.541 47.4623 217.027 47.4623ZM222.933 45.6033H225.281V47.1619C225.506 46.6486 225.863 46.2355 226.351 45.9225C226.839 45.5971 227.396 45.4343 228.022 45.4343C229.024 45.4343 229.806 45.7473 230.369 46.3732C230.945 46.9866 231.233 47.938 231.233 49.2274V55.5555H228.698V49.6218C228.698 48.8957 228.561 48.3762 228.285 48.0632C228.022 47.7502 227.653 47.5938 227.177 47.5938C226.651 47.5938 226.232 47.7628 225.919 48.1008C225.619 48.4388 225.468 48.9458 225.468 49.6218V55.5555H222.933V45.6033ZM237.387 55.5555C236.748 55.5555 236.21 55.4992 235.772 55.3865C235.333 55.2614 234.983 55.0673 234.72 54.8044C234.457 54.5415 234.263 54.1973 234.138 53.7717C234.025 53.3335 233.969 52.7952 233.969 52.1568V47.6877H232.617V45.6033H233.969V43.35H236.485V45.6033H238.438V47.6877H236.485V52.1568C236.485 52.67 236.573 53.0205 236.748 53.2083C236.923 53.3836 237.211 53.4712 237.612 53.4712H238.438V55.5555H237.387ZM240.379 45.6033H242.895V55.5555H240.379V45.6033ZM241.637 44.8522C241.224 44.8522 240.867 44.7082 240.567 44.4203C240.279 44.1199 240.135 43.7631 240.135 43.35C240.135 42.9369 240.279 42.5864 240.567 42.2984C240.867 41.998 241.224 41.8478 241.637 41.8478C242.05 41.8478 242.401 41.998 242.688 42.2984C242.989 42.5864 243.139 42.9369 243.139 43.35C243.139 43.7631 242.989 44.1199 242.688 44.4203C242.401 44.7082 242.05 44.8522 241.637 44.8522ZM249.416 55.5555C248.778 55.5555 248.239 55.4992 247.801 55.3865C247.363 55.2614 247.012 55.0673 246.75 54.8044C246.487 54.5415 246.293 54.1973 246.167 53.7717C246.055 53.3335 245.998 52.7952 245.998 52.1568V47.6877H244.646V45.6033H245.998V43.35H248.515V45.6033H250.468V47.6877H248.515V52.1568C248.515 52.67 248.602 53.0205 248.778 53.2083C248.953 53.3836 249.241 53.4712 249.641 53.4712H250.468V55.5555H249.416ZM252.69 57.2268C253.003 57.2268 253.278 57.1955 253.516 57.1329C253.754 57.0828 253.961 56.9952 254.136 56.87C254.311 56.7573 254.461 56.5946 254.587 56.3818C254.724 56.1815 254.843 55.9311 254.943 55.6307L251.15 45.6033H253.929L256.183 52.4572L258.192 45.6033H260.877L257.441 55.6307C257.178 56.4193 256.909 57.0515 256.633 57.5272C256.37 58.0154 256.057 58.391 255.694 58.6539C255.344 58.9168 254.925 59.092 254.436 59.1797C253.961 59.2673 253.378 59.3111 252.69 59.3111V57.2268ZM266.797 45.6033H269.144V47.1619C269.395 46.6611 269.733 46.2605 270.158 45.9601C270.597 45.6471 271.172 45.4907 271.886 45.4907C272.963 45.4907 273.808 45.8349 274.421 46.5234C275.034 47.2119 275.341 48.3261 275.341 49.8659V51.1052C275.341 51.9314 275.26 52.6387 275.097 53.2271C274.947 53.8029 274.721 54.2787 274.421 54.6542C274.121 55.0298 273.757 55.3052 273.332 55.4804C272.906 55.6432 272.424 55.7245 271.886 55.7245C271.273 55.7245 270.753 55.5868 270.327 55.3114C269.902 55.0235 269.57 54.6417 269.332 54.166V59.3111H266.797V45.6033ZM271.097 53.5651C271.623 53.5651 272.036 53.3836 272.337 53.0205C272.65 52.645 272.806 52.0065 272.806 51.1052V49.8659C272.806 49.0772 272.65 48.5139 272.337 48.1759C272.036 47.8254 271.623 47.6501 271.097 47.6501C270.534 47.6501 270.096 47.8254 269.783 48.1759C269.482 48.5139 269.332 49.0772 269.332 49.8659V51.1052C269.332 52.0065 269.482 52.645 269.783 53.0205C270.096 53.3836 270.534 53.5651 271.097 53.5651ZM277.269 45.6033H279.598V47.1619C279.836 46.6486 280.199 46.2355 280.687 45.9225C281.175 45.5971 281.732 45.4343 282.358 45.4343C282.483 45.4343 282.596 45.4406 282.696 45.4531C282.796 45.4656 282.884 45.4781 282.959 45.4907C283.047 45.5032 283.122 45.5157 283.184 45.5282V47.8379C283.059 47.8254 282.928 47.8066 282.79 47.7815C282.665 47.769 282.515 47.7565 282.339 47.744C282.177 47.7315 281.989 47.7252 281.776 47.7252C281.138 47.7252 280.643 47.8942 280.293 48.2322C279.955 48.5577 279.786 49.0209 279.786 49.6218V55.5555H277.269V45.6033ZM288.308 55.7245C286.982 55.7245 285.93 55.3302 285.154 54.5415C284.39 53.7404 284.008 52.5949 284.008 51.1052V49.8659C284.008 49.1774 284.109 48.5577 284.309 48.0069C284.509 47.4561 284.791 46.9929 285.154 46.6173C285.529 46.2292 285.98 45.9351 286.506 45.7348C287.044 45.5345 287.645 45.4343 288.308 45.4343C288.972 45.4343 289.567 45.5345 290.092 45.7348C290.631 45.9351 291.081 46.2292 291.444 46.6173C291.82 46.9929 292.108 47.4561 292.308 48.0069C292.508 48.5577 292.609 49.1774 292.609 49.8659V51.1052C292.609 52.5949 292.221 53.7404 291.444 54.5415C290.681 55.3302 289.635 55.7245 288.308 55.7245ZM288.308 53.5651C288.872 53.5651 289.304 53.3836 289.604 53.0205C289.917 52.645 290.074 52.0065 290.074 51.1052V49.8659C290.074 49.0522 289.917 48.4701 289.604 48.1195C289.304 47.769 288.872 47.5938 288.308 47.5938C287.745 47.5938 287.307 47.769 286.994 48.1195C286.694 48.4701 286.543 49.0522 286.543 49.8659V51.1052C286.543 52.0065 286.694 52.645 286.994 53.0205C287.307 53.3836 287.745 53.5651 288.308 53.5651ZM293.088 45.6033H295.868L298.121 52.4572L300.13 45.6033H302.815L299.417 55.5555H296.863L293.088 45.6033ZM304.304 45.6033H306.82V55.5555H304.304V45.6033ZM305.562 44.8522C305.149 44.8522 304.792 44.7082 304.492 44.4203C304.204 44.1199 304.06 43.7631 304.06 43.35C304.06 42.9369 304.204 42.5864 304.492 42.2984C304.792 41.998 305.149 41.8478 305.562 41.8478C305.975 41.8478 306.326 41.998 306.614 42.2984C306.914 42.5864 307.064 42.9369 307.064 43.35C307.064 43.7631 306.914 44.1199 306.614 44.4203C306.326 44.7082 305.975 44.8522 305.562 44.8522ZM312.421 55.6682C311.883 55.6682 311.401 55.5868 310.975 55.4241C310.55 55.2488 310.186 54.9797 309.886 54.6167C309.586 54.2536 309.354 53.7842 309.191 53.2083C309.041 52.6199 308.966 51.9189 308.966 51.1052V49.8659C308.966 48.3136 309.273 47.1869 309.886 46.4859C310.499 45.7848 311.344 45.4343 312.421 45.4343C313.034 45.4343 313.554 45.5783 313.98 45.8662C314.405 46.1416 314.737 46.5172 314.975 46.9929V42.4111H317.51V55.5555H315.163V53.997C314.912 54.4977 314.568 54.9046 314.13 55.2175C313.704 55.518 313.135 55.6682 312.421 55.6682ZM313.21 53.5088C313.773 53.5088 314.205 53.3272 314.505 52.9642C314.818 52.6012 314.975 51.9815 314.975 51.1052V49.8659C314.975 49.0522 314.818 48.4701 314.505 48.1195C314.205 47.769 313.773 47.5938 313.21 47.5938C312.684 47.5938 312.265 47.769 311.952 48.1195C311.651 48.4701 311.501 49.0522 311.501 49.8659V51.1052C311.501 51.9815 311.651 52.6012 311.952 52.9642C312.265 53.3272 312.684 53.5088 313.21 53.5088ZM323.588 55.7245C322.949 55.7245 322.367 55.6244 321.842 55.4241C321.328 55.2238 320.89 54.9296 320.527 54.5415C320.164 54.1409 319.882 53.6527 319.682 53.0769C319.482 52.501 319.382 51.8438 319.382 51.1052V49.8659C319.382 48.4513 319.751 47.3622 320.49 46.5985C321.241 45.8224 322.242 45.4343 323.494 45.4343C324.746 45.4343 325.741 45.8224 326.48 46.5985C327.231 47.3622 327.606 48.4575 327.606 49.8847V51.2554H321.917C321.929 52.1818 322.079 52.8202 322.367 53.1708C322.668 53.5213 323.075 53.6965 323.588 53.6965C324.001 53.6965 324.314 53.5964 324.527 53.3961C324.74 53.1833 324.877 52.9329 324.94 52.645H327.419C327.281 53.5714 326.893 54.3162 326.254 54.8795C325.616 55.4429 324.727 55.7245 323.588 55.7245ZM323.569 47.4623C323.056 47.4623 322.662 47.6125 322.386 47.913C322.111 48.2009 321.954 48.7329 321.917 49.5091H325.222C325.184 48.7329 325.028 48.2009 324.752 47.913C324.477 47.6125 324.082 47.4623 323.569 47.4623ZM329.532 45.6033H331.86V47.1619C332.098 46.6486 332.461 46.2355 332.949 45.9225C333.437 45.5971 333.995 45.4343 334.62 45.4343C334.746 45.4343 334.858 45.4406 334.958 45.4531C335.059 45.4656 335.146 45.4781 335.221 45.4907C335.309 45.5032 335.384 45.5157 335.447 45.5282V47.8379C335.322 47.8254 335.19 47.8066 335.052 47.7815C334.927 47.769 334.777 47.7565 334.602 47.744C334.439 47.7315 334.251 47.7252 334.038 47.7252C333.4 47.7252 332.905 47.8942 332.555 48.2322C332.217 48.5577 332.048 49.0209 332.048 49.6218V55.5555H329.532V45.6033Z" fill="#100C27"/>
<rect x="144.972" y="78.1667" width="168" height="9" rx="2.88889" fill="#D3D5DC"/>
<rect x="144.972" y="98" width="85" height="8" rx="2.88889" fill="#D3D5DC"/>
<rect x="181.083" y="118" width="61.3889" height="20" rx="4" fill="#876FEC"/>
<rect x="253.306" y="118" width="61.3889" height="20" rx="4" fill="#D3D5DC"/>
<rect x="325.528" y="118" width="61.3889" height="20" rx="4" fill="#D3D5DC"/>
<rect x="181.083" y="150" width="61.3889" height="20" rx="4" fill="#D3D5DC"/>
<rect x="253.306" y="150" width="61.3889" height="20" rx="4" fill="#D3D5DC"/>
<rect x="325.528" y="150" width="61.3889" height="20" rx="4" fill="#D3D5DC"/>
<rect x="181.083" y="182" width="61.3889" height="20" rx="4" fill="#D3D5DC"/>
<rect x="253.306" y="182" width="61.3889" height="20" rx="4" fill="#D3D5DC"/>
<rect x="325.528" y="182" width="61.3889" height="20" rx="4" fill="#D3D5DC"/>
<defs>
<filter id="filter0_dd_932_13718" x="125.472" y="22.5556" width="317.056" height="212.333" filterUnits="userSpaceOnUse" color-interpolation-filters="sRGB">
<feFlood flood-opacity="0" result="BackgroundImageFix"/>
<feColorMatrix in="SourceAlpha" type="matrix" values="0 0 0 0 0 0 0 0 0 0 0 0 0 0 0 0 0 0 127 0" result="hardAlpha"/>
<feMorphology radius="2.16667" operator="erode" in="SourceAlpha" result="effect1_dropShadow_932_13718"/>
<feOffset dy="7.22222"/>
<feGaussianBlur stdDeviation="5.41667"/>
<feComposite in2="hardAlpha" operator="out"/>
<feColorMatrix type="matrix" values="0 0 0 0 0.0666667 0 0 0 0 0.0941176 0 0 0 0 0.152941 0 0 0 0.1 0"/>
<feBlend mode="normal" in2="BackgroundImageFix" result="effect1_dropShadow_932_13718"/>
<feColorMatrix in="SourceAlpha" type="matrix" values="0 0 0 0 0 0 0 0 0 0 0 0 0 0 0 0 0 0 127 0" result="hardAlpha"/>
<feMorphology radius="1.44444" operator="erode" in="SourceAlpha" result="effect2_dropShadow_932_13718"/>
<feOffset dy="2.88889"/>
<feGaussianBlur stdDeviation="2.16667"/>
<feComposite in2="hardAlpha" operator="out"/>
<feColorMatrix type="matrix" values="0 0 0 0 0.0666667 0 0 0 0 0.0941176 0 0 0 0 0.152941 0 0 0 0.06 0"/>
<feBlend mode="normal" in2="effect1_dropShadow_932_13718" result="effect2_dropShadow_932_13718"/>
<feBlend mode="normal" in="SourceGraphic" in2="effect2_dropShadow_932_13718" result="shape"/>
</filter>
</defs>
</svg>
