<svg width="568" height="259" viewBox="0 0 568 259" fill="none" xmlns="http://www.w3.org/2000/svg">
<g filter="url(#filter0_dd_932_13601)">
<rect x="134.139" y="24" width="299.722" height="195" rx="5.77778" fill="white"/>
<rect x="134.5" y="24.3611" width="299" height="194.278" rx="5.41667" stroke="#D3D5DC" stroke-width="0.722222"/>
</g>
<path d="M151.169 55.7245C149.554 55.7245 148.277 55.2175 147.338 54.2035C146.412 53.1895 145.949 51.6372 145.949 49.5467V48.0444C145.949 46.1416 146.412 44.702 147.338 43.7255C148.277 42.7366 149.554 42.2421 151.169 42.2421C151.945 42.2421 152.627 42.3422 153.216 42.5425C153.804 42.7428 154.305 43.0308 154.718 43.4063C155.131 43.7819 155.457 44.2388 155.694 44.7771C155.932 45.3029 156.089 45.8975 156.164 46.561H153.479C153.366 45.9225 153.134 45.4281 152.784 45.0775C152.433 44.727 151.895 44.5518 151.169 44.5518C150.38 44.5518 149.761 44.8209 149.31 45.3592C148.859 45.885 148.634 46.7801 148.634 48.0444V49.5467C148.634 50.2727 148.69 50.8861 148.803 51.3869C148.928 51.8751 149.097 52.2694 149.31 52.5699C149.523 52.8703 149.786 53.0894 150.099 53.2271C150.412 53.3523 150.768 53.4149 151.169 53.4149C151.908 53.4149 152.44 53.2396 152.765 52.8891C153.103 52.5261 153.341 52.0003 153.479 51.3118H156.164C156.001 52.7138 155.513 53.8029 154.699 54.5791C153.885 55.3427 152.709 55.7245 151.169 55.7245ZM161.311 42.4111H164.128L168.691 55.5555H165.818L164.935 52.9454H160.429L159.527 55.5555H156.748L161.311 42.4111ZM164.184 50.6921L162.682 45.7535L161.161 50.6921H164.184ZM174.632 55.7245C173.756 55.7245 173.005 55.6369 172.379 55.4617C171.753 55.2739 171.239 55.011 170.839 54.673C170.438 54.3225 170.138 53.9031 169.937 53.4149C169.737 52.9267 169.631 52.3821 169.618 51.7812H172.322C172.347 52.2945 172.523 52.6951 172.848 52.983C173.186 53.2709 173.781 53.4149 174.632 53.4149C175.483 53.4149 176.078 53.2834 176.416 53.0205C176.766 52.7451 176.942 52.3946 176.942 51.969C176.942 51.7186 176.898 51.4995 176.81 51.3118C176.723 51.1115 176.566 50.9362 176.341 50.786C176.115 50.6358 175.815 50.4918 175.439 50.3541C175.064 50.2164 174.588 50.0787 174.012 49.941C173.311 49.7657 172.704 49.5654 172.191 49.3401C171.69 49.1022 171.271 48.8268 170.933 48.5139C170.595 48.2009 170.344 47.8379 170.182 47.4248C170.019 46.9991 169.937 46.5047 169.937 45.9413C169.937 45.3905 170.031 44.8898 170.219 44.4391C170.407 43.9884 170.695 43.6004 171.083 43.2749C171.471 42.9494 171.959 42.699 172.548 42.5238C173.136 42.336 173.831 42.2421 174.632 42.2421C176.234 42.2421 177.411 42.5926 178.162 43.2937C178.926 43.9947 179.32 44.9398 179.345 46.1291H176.66C176.635 45.6409 176.466 45.2591 176.153 44.9837C175.852 44.6957 175.345 44.5518 174.632 44.5518C173.918 44.5518 173.405 44.6832 173.092 44.9461C172.779 45.209 172.623 45.5407 172.623 45.9413C172.623 46.1792 172.667 46.3857 172.754 46.561C172.854 46.7362 173.011 46.8927 173.224 47.0304C173.436 47.1681 173.718 47.2996 174.069 47.4248C174.419 47.5374 174.857 47.6564 175.383 47.7815C176.134 47.9693 176.773 48.1884 177.298 48.4388C177.837 48.6766 178.275 48.9583 178.613 49.2838C178.963 49.6092 179.22 49.9911 179.383 50.4292C179.545 50.8674 179.627 51.3806 179.627 51.969C179.627 52.5323 179.527 53.0456 179.326 53.5088C179.139 53.9594 178.838 54.3538 178.425 54.6918C178.024 55.0172 177.505 55.2739 176.866 55.4617C176.241 55.6369 175.496 55.7245 174.632 55.7245ZM186.746 42.4111H189.412V55.5555H186.746V42.4111ZM195.207 55.6682C194.668 55.6682 194.186 55.5868 193.761 55.4241C193.335 55.2488 192.972 54.9797 192.672 54.6167C192.371 54.2536 192.139 53.7842 191.977 53.2083C191.827 52.6199 191.751 51.9189 191.751 51.1052V49.8659C191.751 48.3136 192.058 47.1869 192.672 46.4859C193.285 45.7848 194.13 45.4343 195.207 45.4343C195.82 45.4343 196.339 45.5783 196.765 45.8662C197.191 46.1416 197.522 46.5172 197.76 46.9929V42.4111H200.295V55.5555H197.948V53.997C197.698 54.4977 197.353 54.9046 196.915 55.2175C196.49 55.518 195.92 55.6682 195.207 55.6682ZM195.995 53.5088C196.559 53.5088 196.99 53.3272 197.291 52.9642C197.604 52.6012 197.76 51.9815 197.76 51.1052V49.8659C197.76 49.0522 197.604 48.4701 197.291 48.1195C196.99 47.769 196.559 47.5938 195.995 47.5938C195.469 47.5938 195.05 47.769 194.737 48.1195C194.437 48.4701 194.286 49.0522 194.286 49.8659V51.1052C194.286 51.9815 194.437 52.6012 194.737 52.9642C195.05 53.3272 195.469 53.5088 195.995 53.5088ZM206.373 55.7245C205.735 55.7245 205.153 55.6244 204.627 55.4241C204.114 55.2238 203.676 54.9296 203.313 54.5415C202.95 54.1409 202.668 53.6527 202.468 53.0769C202.267 52.501 202.167 51.8438 202.167 51.1052V49.8659C202.167 48.4513 202.536 47.3622 203.275 46.5985C204.026 45.8224 205.028 45.4343 206.28 45.4343C207.531 45.4343 208.527 45.8224 209.265 46.5985C210.016 47.3622 210.392 48.4575 210.392 49.8847V51.2554H204.702C204.715 52.1818 204.865 52.8202 205.153 53.1708C205.453 53.5213 205.86 53.6965 206.373 53.6965C206.787 53.6965 207.099 53.5964 207.312 53.3961C207.525 53.1833 207.663 52.9329 207.725 52.645H210.204C210.066 53.5714 209.678 54.3162 209.04 54.8795C208.401 55.4429 207.513 55.7245 206.373 55.7245ZM206.355 47.4623C205.841 47.4623 205.447 47.6125 205.172 47.913C204.896 48.2009 204.74 48.7329 204.702 49.5091H208.007C207.97 48.7329 207.813 48.2009 207.538 47.913C207.262 47.6125 206.868 47.4623 206.355 47.4623ZM212.261 45.6033H214.608V47.1619C214.833 46.6486 215.19 46.2355 215.678 45.9225C216.167 45.5971 216.724 45.4343 217.35 45.4343C218.351 45.4343 219.134 45.7473 219.697 46.3732C220.273 46.9866 220.561 47.938 220.561 49.2274V55.5555H218.026V49.6218C218.026 48.8957 217.888 48.3762 217.613 48.0632C217.35 47.7502 216.98 47.5938 216.505 47.5938C215.979 47.5938 215.559 47.7628 215.247 48.1008C214.946 48.4388 214.796 48.9458 214.796 49.6218V55.5555H212.261V45.6033ZM226.714 55.5555C226.075 55.5555 225.537 55.4992 225.099 55.3865C224.661 55.2614 224.31 55.0673 224.047 54.8044C223.785 54.5415 223.59 54.1973 223.465 53.7717C223.353 53.3335 223.296 52.7952 223.296 52.1568V47.6877H221.944V45.6033H223.296V43.35H225.813V45.6033H227.765V47.6877H225.813V52.1568C225.813 52.67 225.9 53.0205 226.075 53.2083C226.251 53.3836 226.539 53.4712 226.939 53.4712H227.765V55.5555H226.714ZM229.706 45.6033H232.222V55.5555H229.706V45.6033ZM230.964 44.8522C230.551 44.8522 230.194 44.7082 229.894 44.4203C229.606 44.1199 229.462 43.7631 229.462 43.35C229.462 42.9369 229.606 42.5864 229.894 42.2984C230.194 41.998 230.551 41.8478 230.964 41.8478C231.377 41.8478 231.728 41.998 232.016 42.2984C232.316 42.5864 232.466 42.9369 232.466 43.35C232.466 43.7631 232.316 44.1199 232.016 44.4203C231.728 44.7082 231.377 44.8522 230.964 44.8522ZM238.743 55.5555C238.105 55.5555 237.567 55.4992 237.128 55.3865C236.69 55.2614 236.34 55.0673 236.077 54.8044C235.814 54.5415 235.62 54.1973 235.495 53.7717C235.382 53.3335 235.326 52.7952 235.326 52.1568V47.6877H233.974V45.6033H235.326V43.35H237.842V45.6033H239.795V47.6877H237.842V52.1568C237.842 52.67 237.93 53.0205 238.105 53.2083C238.28 53.3836 238.568 53.4712 238.969 53.4712H239.795V55.5555H238.743ZM242.017 57.2268C242.33 57.2268 242.606 57.1955 242.844 57.1329C243.081 57.0828 243.288 56.9952 243.463 56.87C243.638 56.7573 243.789 56.5946 243.914 56.3818C244.052 56.1815 244.17 55.9311 244.271 55.6307L240.478 45.6033H243.257L245.51 52.4572L247.519 45.6033H250.204L246.768 55.6307C246.505 56.4193 246.236 57.0515 245.961 57.5272C245.698 58.0154 245.385 58.391 245.022 58.6539C244.671 58.9168 244.252 59.092 243.764 59.1797C243.288 59.2673 242.706 59.3111 242.017 59.3111V57.2268ZM256.125 45.6033H258.472V47.1619C258.722 46.6611 259.06 46.2605 259.486 45.9601C259.924 45.6471 260.5 45.4907 261.213 45.4907C262.29 45.4907 263.135 45.8349 263.748 46.5234C264.362 47.2119 264.668 48.3261 264.668 49.8659V51.1052C264.668 51.9314 264.587 52.6387 264.424 53.2271C264.274 53.8029 264.049 54.2787 263.748 54.6542C263.448 55.0298 263.085 55.3052 262.659 55.4804C262.234 55.6432 261.752 55.7245 261.213 55.7245C260.6 55.7245 260.08 55.5868 259.655 55.3114C259.229 55.0235 258.897 54.6417 258.66 54.166V59.3111H256.125V45.6033ZM260.425 53.5651C260.95 53.5651 261.364 53.3836 261.664 53.0205C261.977 52.645 262.133 52.0065 262.133 51.1052V49.8659C262.133 49.0772 261.977 48.5139 261.664 48.1759C261.364 47.8254 260.95 47.6501 260.425 47.6501C259.861 47.6501 259.423 47.8254 259.11 48.1759C258.81 48.5139 258.66 49.0772 258.66 49.8659V51.1052C258.66 52.0065 258.81 52.645 259.11 53.0205C259.423 53.3836 259.861 53.5651 260.425 53.5651ZM266.597 45.6033H268.925V47.1619C269.163 46.6486 269.526 46.2355 270.014 45.9225C270.502 45.5971 271.06 45.4343 271.685 45.4343C271.811 45.4343 271.923 45.4406 272.023 45.4531C272.124 45.4656 272.211 45.4781 272.286 45.4907C272.374 45.5032 272.449 45.5157 272.512 45.5282V47.8379C272.387 47.8254 272.255 47.8066 272.117 47.7815C271.992 47.769 271.842 47.7565 271.667 47.744C271.504 47.7315 271.316 47.7252 271.103 47.7252C270.465 47.7252 269.97 47.8942 269.62 48.2322C269.282 48.5577 269.113 49.0209 269.113 49.6218V55.5555H266.597V45.6033ZM277.636 55.7245C276.309 55.7245 275.257 55.3302 274.481 54.5415C273.718 53.7404 273.336 52.5949 273.336 51.1052V49.8659C273.336 49.1774 273.436 48.5577 273.636 48.0069C273.836 47.4561 274.118 46.9929 274.481 46.6173C274.857 46.2292 275.307 45.9351 275.833 45.7348C276.371 45.5345 276.972 45.4343 277.636 45.4343C278.299 45.4343 278.894 45.5345 279.42 45.7348C279.958 45.9351 280.409 46.2292 280.772 46.6173C281.147 46.9929 281.435 47.4561 281.635 48.0069C281.836 48.5577 281.936 49.1774 281.936 49.8659V51.1052C281.936 52.5949 281.548 53.7404 280.772 54.5415C280.008 55.3302 278.963 55.7245 277.636 55.7245ZM277.636 53.5651C278.199 53.5651 278.631 53.3836 278.931 53.0205C279.244 52.645 279.401 52.0065 279.401 51.1052V49.8659C279.401 49.0522 279.244 48.4701 278.931 48.1195C278.631 47.769 278.199 47.5938 277.636 47.5938C277.072 47.5938 276.634 47.769 276.321 48.1195C276.021 48.4701 275.871 49.0522 275.871 49.8659V51.1052C275.871 52.0065 276.021 52.645 276.321 53.0205C276.634 53.3836 277.072 53.5651 277.636 53.5651ZM282.416 45.6033H285.195L287.448 52.4572L289.457 45.6033H292.143L288.744 55.5555H286.19L282.416 45.6033ZM293.631 45.6033H296.147V55.5555H293.631V45.6033ZM294.889 44.8522C294.476 44.8522 294.119 44.7082 293.819 44.4203C293.531 44.1199 293.387 43.7631 293.387 43.35C293.387 42.9369 293.531 42.5864 293.819 42.2984C294.119 41.998 294.476 41.8478 294.889 41.8478C295.302 41.8478 295.653 41.998 295.941 42.2984C296.241 42.5864 296.392 42.9369 296.392 43.35C296.392 43.7631 296.241 44.1199 295.941 44.4203C295.653 44.7082 295.302 44.8522 294.889 44.8522ZM301.748 55.6682C301.21 55.6682 300.728 55.5868 300.303 55.4241C299.877 55.2488 299.514 54.9797 299.213 54.6167C298.913 54.2536 298.681 53.7842 298.519 53.2083C298.368 52.6199 298.293 51.9189 298.293 51.1052V49.8659C298.293 48.3136 298.6 47.1869 299.213 46.4859C299.827 45.7848 300.672 45.4343 301.748 45.4343C302.362 45.4343 302.881 45.5783 303.307 45.8662C303.733 46.1416 304.064 46.5172 304.302 46.9929V42.4111H306.837V55.5555H304.49V53.997C304.24 54.4977 303.895 54.9046 303.457 55.2175C303.032 55.518 302.462 55.6682 301.748 55.6682ZM302.537 53.5088C303.1 53.5088 303.532 53.3272 303.833 52.9642C304.146 52.6012 304.302 51.9815 304.302 51.1052V49.8659C304.302 49.0522 304.146 48.4701 303.833 48.1195C303.532 47.769 303.1 47.5938 302.537 47.5938C302.011 47.5938 301.592 47.769 301.279 48.1195C300.979 48.4701 300.828 49.0522 300.828 49.8659V51.1052C300.828 51.9815 300.979 52.6012 301.279 52.9642C301.592 53.3272 302.011 53.5088 302.537 53.5088ZM312.915 55.7245C312.277 55.7245 311.695 55.6244 311.169 55.4241C310.656 55.2238 310.218 54.9296 309.855 54.5415C309.491 54.1409 309.21 53.6527 309.01 53.0769C308.809 52.501 308.709 51.8438 308.709 51.1052V49.8659C308.709 48.4513 309.078 47.3622 309.817 46.5985C310.568 45.8224 311.57 45.4343 312.821 45.4343C314.073 45.4343 315.068 45.8224 315.807 46.5985C316.558 47.3622 316.934 48.4575 316.934 49.8847V51.2554H311.244C311.257 52.1818 311.407 52.8202 311.695 53.1708C311.995 53.5213 312.402 53.6965 312.915 53.6965C313.328 53.6965 313.641 53.5964 313.854 53.3961C314.067 53.1833 314.205 52.9329 314.267 52.645H316.746C316.608 53.5714 316.22 54.3162 315.582 54.8795C314.943 55.4429 314.054 55.7245 312.915 55.7245ZM312.897 47.4623C312.383 47.4623 311.989 47.6125 311.714 47.913C311.438 48.2009 311.282 48.7329 311.244 49.5091H314.549C314.511 48.7329 314.355 48.2009 314.08 47.913C313.804 47.6125 313.41 47.4623 312.897 47.4623ZM318.859 45.6033H321.187V47.1619C321.425 46.6486 321.788 46.2355 322.277 45.9225C322.765 45.5971 323.322 45.4343 323.948 45.4343C324.073 45.4343 324.186 45.4406 324.286 45.4531C324.386 45.4656 324.474 45.4781 324.549 45.4907C324.636 45.5032 324.711 45.5157 324.774 45.5282V47.8379C324.649 47.8254 324.517 47.8066 324.38 47.7815C324.255 47.769 324.104 47.7565 323.929 47.744C323.766 47.7315 323.579 47.7252 323.366 47.7252C322.727 47.7252 322.233 47.8942 321.882 48.2322C321.544 48.5577 321.375 49.0209 321.375 49.6218V55.5555H318.859V45.6033Z" fill="#100C27"/>
<rect x="144.972" y="78.1667" width="168" height="9" rx="2.88889" fill="#D3D5DC"/>
<rect x="144.972" y="98" width="85" height="8" rx="2.88889" fill="#D3D5DC"/>
<rect x="181.083" y="118" width="61.3889" height="20" rx="4" fill="#876FEC"/>
<rect x="253.306" y="118" width="61.3889" height="20" rx="4" fill="#D3D5DC"/>
<rect x="325.528" y="118" width="61.3889" height="20" rx="4" fill="#D3D5DC"/>
<rect x="181.083" y="150" width="61.3889" height="20" rx="4" fill="#D3D5DC"/>
<rect x="253.306" y="150" width="61.3889" height="20" rx="4" fill="#D3D5DC"/>
<rect x="325.528" y="150" width="61.3889" height="20" rx="4" fill="#D3D5DC"/>
<rect x="181.083" y="182" width="61.3889" height="20" rx="4" fill="#D3D5DC"/>
<rect x="253.306" y="182" width="61.3889" height="20" rx="4" fill="#D3D5DC"/>
<rect x="325.528" y="182" width="61.3889" height="20" rx="4" fill="#D3D5DC"/>
<defs>
<filter id="filter0_dd_932_13601" x="125.472" y="22.5556" width="317.056" height="212.333" filterUnits="userSpaceOnUse" color-interpolation-filters="sRGB">
<feFlood flood-opacity="0" result="BackgroundImageFix"/>
<feColorMatrix in="SourceAlpha" type="matrix" values="0 0 0 0 0 0 0 0 0 0 0 0 0 0 0 0 0 0 127 0" result="hardAlpha"/>
<feMorphology radius="2.16667" operator="erode" in="SourceAlpha" result="effect1_dropShadow_932_13601"/>
<feOffset dy="7.22222"/>
<feGaussianBlur stdDeviation="5.41667"/>
<feComposite in2="hardAlpha" operator="out"/>
<feColorMatrix type="matrix" values="0 0 0 0 0.0666667 0 0 0 0 0.0941176 0 0 0 0 0.152941 0 0 0 0.1 0"/>
<feBlend mode="normal" in2="BackgroundImageFix" result="effect1_dropShadow_932_13601"/>
<feColorMatrix in="SourceAlpha" type="matrix" values="0 0 0 0 0 0 0 0 0 0 0 0 0 0 0 0 0 0 127 0" result="hardAlpha"/>
<feMorphology radius="1.44444" operator="erode" in="SourceAlpha" result="effect2_dropShadow_932_13601"/>
<feOffset dy="2.88889"/>
<feGaussianBlur stdDeviation="2.16667"/>
<feComposite in2="hardAlpha" operator="out"/>
<feColorMatrix type="matrix" values="0 0 0 0 0.0666667 0 0 0 0 0.0941176 0 0 0 0 0.152941 0 0 0 0.06 0"/>
<feBlend mode="normal" in2="effect1_dropShadow_932_13601" result="effect2_dropShadow_932_13601"/>
<feBlend mode="normal" in="SourceGraphic" in2="effect2_dropShadow_932_13601" result="shape"/>
</filter>
</defs>
</svg>
