<svg width="568" height="259" viewBox="0 0 568 259" fill="none" xmlns="http://www.w3.org/2000/svg">
<g filter="url(#filter0_dd_932_13874)">
<rect x="134.139" y="24" width="299.722" height="195" rx="5.77778" fill="white"/>
<rect x="134.5" y="24.3611" width="299" height="194.278" rx="5.41667" stroke="#D3D5DC" stroke-width="0.722222"/>
</g>
<path d="M150.775 55.7245C149.898 55.7245 149.147 55.6369 148.521 55.4617C147.895 55.2739 147.382 55.011 146.981 54.673C146.581 54.3225 146.28 53.9031 146.08 53.4149C145.88 52.9267 145.773 52.3821 145.761 51.7812H148.465C148.49 52.2945 148.665 52.6951 148.991 52.983C149.329 53.2709 149.923 53.4149 150.775 53.4149C151.626 53.4149 152.22 53.2834 152.558 53.0205C152.909 52.7451 153.084 52.3946 153.084 51.969C153.084 51.7186 153.04 51.4995 152.953 51.3118C152.865 51.1115 152.709 50.9362 152.483 50.786C152.258 50.6358 151.958 50.4918 151.582 50.3541C151.206 50.2164 150.731 50.0787 150.155 49.941C149.454 49.7657 148.847 49.5654 148.333 49.3401C147.833 49.1022 147.413 48.8268 147.075 48.5139C146.737 48.2009 146.487 47.8379 146.324 47.4248C146.161 46.9991 146.08 46.5047 146.08 45.9413C146.08 45.3905 146.174 44.8898 146.362 44.4391C146.55 43.9884 146.837 43.6004 147.226 43.2749C147.614 42.9494 148.102 42.699 148.69 42.5238C149.279 42.336 149.973 42.2421 150.775 42.2421C152.377 42.2421 153.554 42.5926 154.305 43.2937C155.068 43.9947 155.463 44.9398 155.488 46.1291H152.803C152.777 45.6409 152.608 45.2591 152.296 44.9837C151.995 44.6957 151.488 44.5518 150.775 44.5518C150.061 44.5518 149.548 44.6832 149.235 44.9461C148.922 45.209 148.765 45.5407 148.765 45.9413C148.765 46.1792 148.809 46.3857 148.897 46.561C148.997 46.7362 149.153 46.8927 149.366 47.0304C149.579 47.1681 149.861 47.2996 150.211 47.4248C150.562 47.5374 151 47.6564 151.526 47.7815C152.277 47.9693 152.915 48.1884 153.441 48.4388C153.979 48.6766 154.417 48.9583 154.755 49.2838C155.106 49.6092 155.363 49.9911 155.525 50.4292C155.688 50.8674 155.769 51.3806 155.769 51.969C155.769 52.5323 155.669 53.0456 155.469 53.5088C155.281 53.9594 154.981 54.3538 154.568 54.6918C154.167 55.0172 153.648 55.2739 153.009 55.4617C152.383 55.6369 151.638 55.7245 150.775 55.7245ZM160.109 55.6682C159.208 55.6682 158.494 55.4178 157.969 54.9171C157.455 54.4164 157.199 53.6778 157.199 52.7013C157.199 51.6998 157.493 50.9425 158.081 50.4292C158.67 49.9034 159.552 49.6405 160.729 49.6405H162.794V49.0584C162.794 48.4951 162.676 48.1008 162.438 47.8754C162.212 47.6376 161.824 47.5187 161.273 47.5187C160.748 47.5187 160.378 47.6063 160.166 47.7815C159.965 47.9568 159.853 48.2009 159.828 48.5139H157.631C157.656 47.5374 157.95 46.7801 158.513 46.2418C159.089 45.7035 160.028 45.4343 161.33 45.4343C162.694 45.4343 163.677 45.7222 164.278 46.2981C164.879 46.8739 165.179 47.7878 165.179 49.0397V55.5555H162.982V53.997C162.857 54.2223 162.713 54.4414 162.55 54.6542C162.388 54.8545 162.194 55.0298 161.968 55.18C161.743 55.3302 161.48 55.4491 161.18 55.5368C160.879 55.6244 160.522 55.6682 160.109 55.6682ZM160.879 53.6402C161.493 53.6402 161.962 53.4712 162.287 53.1332C162.625 52.7952 162.794 52.307 162.794 51.6685V51.3305H161.011C160.485 51.3305 160.116 51.4369 159.903 51.6498C159.702 51.8501 159.602 52.1317 159.602 52.4948C159.602 53.2584 160.028 53.6402 160.879 53.6402ZM170.827 55.5555C170.189 55.5555 169.65 55.4992 169.212 55.3865C168.774 55.2614 168.423 55.0673 168.161 54.8044C167.898 54.5415 167.704 54.1973 167.578 53.7717C167.466 53.3335 167.409 52.7952 167.409 52.1568V42.4111H169.944V52.1568C169.944 52.67 170.026 53.0205 170.189 53.2083C170.364 53.3836 170.652 53.4712 171.052 53.4712H171.372V55.5555H170.827ZM176.795 55.7245C176.156 55.7245 175.574 55.6244 175.048 55.4241C174.535 55.2238 174.097 54.9296 173.734 54.5415C173.371 54.1409 173.089 53.6527 172.889 53.0769C172.689 52.501 172.588 51.8438 172.588 51.1052V49.8659C172.588 48.4513 172.958 47.3622 173.696 46.5985C174.447 45.8224 175.449 45.4343 176.701 45.4343C177.953 45.4343 178.948 45.8224 179.686 46.5985C180.438 47.3622 180.813 48.4575 180.813 49.8847V51.2554H175.123C175.136 52.1818 175.286 52.8202 175.574 53.1708C175.875 53.5213 176.281 53.6965 176.795 53.6965C177.208 53.6965 177.521 53.5964 177.734 53.3961C177.946 53.1833 178.084 52.9329 178.147 52.645H180.625C180.488 53.5714 180.1 54.3162 179.461 54.8795C178.823 55.4429 177.934 55.7245 176.795 55.7245ZM176.776 47.4623C176.263 47.4623 175.868 47.6125 175.593 47.913C175.317 48.2009 175.161 48.7329 175.123 49.5091H178.428C178.391 48.7329 178.234 48.2009 177.959 47.913C177.683 47.6125 177.289 47.4623 176.776 47.4623ZM186.269 55.7245C185.568 55.7245 184.967 55.6494 184.466 55.4992C183.978 55.349 183.571 55.1424 183.245 54.8795C182.932 54.6041 182.695 54.2787 182.532 53.9031C182.369 53.515 182.275 53.0957 182.25 52.645H184.729C184.779 52.9579 184.91 53.2146 185.123 53.4149C185.336 53.6027 185.718 53.6965 186.269 53.6965C186.869 53.6965 187.276 53.6152 187.489 53.4524C187.714 53.2772 187.827 53.0518 187.827 52.7764C187.827 52.6387 187.808 52.5135 187.771 52.4009C187.733 52.2882 187.652 52.1818 187.527 52.0817C187.402 51.9815 187.226 51.8876 187.001 51.8C186.776 51.7124 186.469 51.631 186.081 51.5559C184.804 51.3055 183.878 50.9487 183.302 50.4855C182.738 50.0098 182.457 49.3464 182.457 48.4951C182.457 47.5812 182.77 46.8427 183.396 46.2793C184.022 45.716 184.979 45.4343 186.269 45.4343C187.545 45.4343 188.484 45.716 189.085 46.2793C189.699 46.8427 190.03 47.5812 190.08 48.4951H187.602C187.552 48.1571 187.433 47.9005 187.245 47.7252C187.07 47.5499 186.744 47.4623 186.269 47.4623C185.768 47.4623 185.417 47.5437 185.217 47.7064C185.029 47.8567 184.935 48.0757 184.935 48.3637C184.935 48.6265 185.042 48.8519 185.255 49.0397C185.48 49.2149 185.931 49.3651 186.607 49.4903C187.283 49.6155 187.852 49.7657 188.315 49.941C188.791 50.1162 189.173 50.3291 189.461 50.5794C189.761 50.8298 189.974 51.124 190.099 51.462C190.224 51.8 190.287 52.1943 190.287 52.645C190.287 53.5588 189.962 54.3037 189.311 54.8795C188.672 55.4429 187.658 55.7245 186.269 55.7245ZM192.559 47.6877H191.282V45.6033H192.559V45.3029C192.559 44.7896 192.615 44.3515 192.728 43.9884C192.841 43.6129 193.035 43.3124 193.31 43.0871C193.586 42.8492 193.942 42.6802 194.381 42.5801C194.831 42.4674 195.395 42.4111 196.071 42.4111H196.84V44.4767H196.146C195.758 44.4767 195.482 44.5455 195.319 44.6832C195.169 44.8209 195.094 45.0275 195.094 45.3029V45.6033H196.84V47.6877H195.094V55.5555H192.559V47.6877ZM202.415 55.7245C201.088 55.7245 200.036 55.3302 199.26 54.5415C198.496 53.7404 198.114 52.5949 198.114 51.1052V49.8659C198.114 49.1774 198.215 48.5577 198.415 48.0069C198.615 47.4561 198.897 46.9929 199.26 46.6173C199.635 46.2292 200.086 45.9351 200.612 45.7348C201.15 45.5345 201.751 45.4343 202.415 45.4343C203.078 45.4343 203.673 45.5345 204.198 45.7348C204.737 45.9351 205.187 46.2292 205.55 46.6173C205.926 46.9929 206.214 47.4561 206.414 48.0069C206.615 48.5577 206.715 49.1774 206.715 49.8659V51.1052C206.715 52.5949 206.327 53.7404 205.55 54.5415C204.787 55.3302 203.742 55.7245 202.415 55.7245ZM202.415 53.5651C202.978 53.5651 203.41 53.3836 203.71 53.0205C204.023 52.645 204.18 52.0065 204.18 51.1052V49.8659C204.18 49.0522 204.023 48.4701 203.71 48.1195C203.41 47.769 202.978 47.5938 202.415 47.5938C201.851 47.5938 201.413 47.769 201.1 48.1195C200.8 48.4701 200.649 49.0522 200.649 49.8659V51.1052C200.649 52.0065 200.8 52.645 201.1 53.0205C201.413 53.3836 201.851 53.5651 202.415 53.5651ZM208.65 45.6033H210.978V47.1619C211.216 46.6486 211.579 46.2355 212.067 45.9225C212.555 45.5971 213.112 45.4343 213.738 45.4343C213.863 45.4343 213.976 45.4406 214.076 45.4531C214.176 45.4656 214.264 45.4781 214.339 45.4907C214.427 45.5032 214.502 45.5157 214.565 45.5282V47.8379C214.439 47.8254 214.308 47.8066 214.17 47.7815C214.045 47.769 213.895 47.7565 213.72 47.744C213.557 47.7315 213.369 47.7252 213.156 47.7252C212.518 47.7252 212.023 47.8942 211.673 48.2322C211.335 48.5577 211.166 49.0209 211.166 49.6218V55.5555H208.65V45.6033ZM219.595 55.7245C218.956 55.7245 218.374 55.6244 217.848 55.4241C217.335 55.2238 216.897 54.9296 216.534 54.5415C216.171 54.1409 215.889 53.6527 215.689 53.0769C215.489 52.501 215.389 51.8438 215.389 51.1052V49.8659C215.389 49.1774 215.489 48.5577 215.689 48.0069C215.889 47.4561 216.171 46.9929 216.534 46.6173C216.897 46.2292 217.335 45.9351 217.848 45.7348C218.374 45.5345 218.956 45.4343 219.595 45.4343C220.233 45.4343 220.797 45.5219 221.285 45.6972C221.773 45.8725 222.186 46.1166 222.524 46.4295C222.862 46.7425 223.119 47.1118 223.294 47.5374C223.482 47.9631 223.588 48.42 223.613 48.9082H221.059C220.997 48.5452 220.853 48.2385 220.628 47.9881C220.402 47.7252 220.058 47.5938 219.595 47.5938C219.082 47.5938 218.675 47.769 218.374 48.1195C218.074 48.4701 217.924 49.0522 217.924 49.8659V51.1052C217.924 52.0065 218.074 52.645 218.374 53.0205C218.675 53.3836 219.082 53.5651 219.595 53.5651C220.058 53.5651 220.402 53.4399 220.628 53.1895C220.853 52.9267 220.997 52.6137 221.059 52.2507H223.613C223.576 52.7639 223.463 53.2334 223.275 53.659C223.087 54.0721 222.825 54.4351 222.487 54.7481C222.161 55.0611 221.754 55.3052 221.266 55.4804C220.79 55.6432 220.233 55.7245 219.595 55.7245ZM228.984 55.7245C228.345 55.7245 227.763 55.6244 227.237 55.4241C226.724 55.2238 226.286 54.9296 225.923 54.5415C225.56 54.1409 225.278 53.6527 225.078 53.0769C224.878 52.501 224.777 51.8438 224.777 51.1052V49.8659C224.777 48.4513 225.147 47.3622 225.885 46.5985C226.636 45.8224 227.638 45.4343 228.89 45.4343C230.142 45.4343 231.137 45.8224 231.875 46.5985C232.627 47.3622 233.002 48.4575 233.002 49.8847V51.2554H227.312C227.325 52.1818 227.475 52.8202 227.763 53.1708C228.064 53.5213 228.47 53.6965 228.984 53.6965C229.397 53.6965 229.71 53.5964 229.923 53.3961C230.135 53.1833 230.273 52.9329 230.336 52.645H232.814C232.677 53.5714 232.289 54.3162 231.65 54.8795C231.012 55.4429 230.123 55.7245 228.984 55.7245ZM228.965 47.4623C228.452 47.4623 228.057 47.6125 227.782 47.913C227.506 48.2009 227.35 48.7329 227.312 49.5091H230.617C230.58 48.7329 230.423 48.2009 230.148 47.913C229.872 47.6125 229.478 47.4623 228.965 47.4623ZM240.035 42.4111H242.701V55.5555H240.035V42.4111ZM248.496 55.6682C247.957 55.6682 247.475 55.5868 247.05 55.4241C246.624 55.2488 246.261 54.9797 245.961 54.6167C245.66 54.2536 245.429 53.7842 245.266 53.2083C245.116 52.6199 245.041 51.9189 245.041 51.1052V49.8659C245.041 48.3136 245.347 47.1869 245.961 46.4859C246.574 45.7848 247.419 45.4343 248.496 45.4343C249.109 45.4343 249.629 45.5783 250.054 45.8662C250.48 46.1416 250.812 46.5172 251.049 46.9929V42.4111H253.584V55.5555H251.237V53.997C250.987 54.4977 250.643 54.9046 250.204 55.2175C249.779 55.518 249.209 55.6682 248.496 55.6682ZM249.284 53.5088C249.848 53.5088 250.28 53.3272 250.58 52.9642C250.893 52.6012 251.049 51.9815 251.049 51.1052V49.8659C251.049 49.0522 250.893 48.4701 250.58 48.1195C250.28 47.769 249.848 47.5938 249.284 47.5938C248.759 47.5938 248.339 47.769 248.026 48.1195C247.726 48.4701 247.576 49.0522 247.576 49.8659V51.1052C247.576 51.9815 247.726 52.6012 248.026 52.9642C248.339 53.3272 248.759 53.5088 249.284 53.5088ZM259.663 55.7245C259.024 55.7245 258.442 55.6244 257.916 55.4241C257.403 55.2238 256.965 54.9296 256.602 54.5415C256.239 54.1409 255.957 53.6527 255.757 53.0769C255.556 52.501 255.456 51.8438 255.456 51.1052V49.8659C255.456 48.4513 255.826 47.3622 256.564 46.5985C257.315 45.8224 258.317 45.4343 259.569 45.4343C260.821 45.4343 261.816 45.8224 262.554 46.5985C263.305 47.3622 263.681 48.4575 263.681 49.8847V51.2554H257.991C258.004 52.1818 258.154 52.8202 258.442 53.1708C258.742 53.5213 259.149 53.6965 259.663 53.6965C260.076 53.6965 260.389 53.5964 260.601 53.3961C260.814 53.1833 260.952 52.9329 261.015 52.645H263.493C263.356 53.5714 262.967 54.3162 262.329 54.8795C261.691 55.4429 260.802 55.7245 259.663 55.7245ZM259.644 47.4623C259.131 47.4623 258.736 47.6125 258.461 47.913C258.185 48.2009 258.029 48.7329 257.991 49.5091H261.296C261.259 48.7329 261.102 48.2009 260.827 47.913C260.551 47.6125 260.157 47.4623 259.644 47.4623ZM265.55 45.6033H267.897V47.1619C268.123 46.6486 268.479 46.2355 268.968 45.9225C269.456 45.5971 270.013 45.4343 270.639 45.4343C271.64 45.4343 272.423 45.7473 272.986 46.3732C273.562 46.9866 273.85 47.938 273.85 49.2274V55.5555H271.315V49.6218C271.315 48.8957 271.177 48.3762 270.902 48.0632C270.639 47.7502 270.269 47.5938 269.794 47.5938C269.268 47.5938 268.849 47.7628 268.536 48.1008C268.235 48.4388 268.085 48.9458 268.085 49.6218V55.5555H265.55V45.6033ZM280.003 55.5555C279.365 55.5555 278.826 55.4992 278.388 55.3865C277.95 55.2614 277.599 55.0673 277.337 54.8044C277.074 54.5415 276.88 54.1973 276.754 53.7717C276.642 53.3335 276.585 52.7952 276.585 52.1568V47.6877H275.233V45.6033H276.585V43.35H279.102V45.6033H281.055V47.6877H279.102V52.1568C279.102 52.67 279.189 53.0205 279.365 53.2083C279.54 53.3836 279.828 53.4712 280.228 53.4712H281.055V55.5555H280.003ZM282.995 45.6033H285.512V55.5555H282.995V45.6033ZM284.253 44.8522C283.84 44.8522 283.484 44.7082 283.183 44.4203C282.895 44.1199 282.751 43.7631 282.751 43.35C282.751 42.9369 282.895 42.5864 283.183 42.2984C283.484 41.998 283.84 41.8478 284.253 41.8478C284.667 41.8478 285.017 41.998 285.305 42.2984C285.605 42.5864 285.756 42.9369 285.756 43.35C285.756 43.7631 285.605 44.1199 285.305 44.4203C285.017 44.7082 284.667 44.8522 284.253 44.8522ZM292.033 55.5555C291.394 55.5555 290.856 55.4992 290.418 55.3865C289.979 55.2614 289.629 55.0673 289.366 54.8044C289.103 54.5415 288.909 54.1973 288.784 53.7717C288.671 53.3335 288.615 52.7952 288.615 52.1568V47.6877H287.263V45.6033H288.615V43.35H291.131V45.6033H293.084V47.6877H291.131V52.1568C291.131 52.67 291.219 53.0205 291.394 53.2083C291.569 53.3836 291.857 53.4712 292.258 53.4712H293.084V55.5555H292.033ZM295.306 57.2268C295.619 57.2268 295.895 57.1955 296.133 57.1329C296.371 57.0828 296.577 56.9952 296.752 56.87C296.928 56.7573 297.078 56.5946 297.203 56.3818C297.341 56.1815 297.46 55.9311 297.56 55.6307L293.767 45.6033H296.546L298.799 52.4572L300.808 45.6033H303.494L300.057 55.6307C299.794 56.4193 299.525 57.0515 299.25 57.5272C298.987 58.0154 298.674 58.391 298.311 58.6539C297.96 58.9168 297.541 59.092 297.053 59.1797C296.577 59.2673 295.995 59.3111 295.306 59.3111V57.2268ZM309.414 45.6033H311.761V47.1619C312.011 46.6611 312.349 46.2605 312.775 45.9601C313.213 45.6471 313.789 45.4907 314.502 45.4907C315.579 45.4907 316.424 45.8349 317.037 46.5234C317.651 47.2119 317.958 48.3261 317.958 49.8659V51.1052C317.958 51.9314 317.876 52.6387 317.713 53.2271C317.563 53.8029 317.338 54.2787 317.037 54.6542C316.737 55.0298 316.374 55.3052 315.948 55.4804C315.523 55.6432 315.041 55.7245 314.502 55.7245C313.889 55.7245 313.37 55.5868 312.944 55.3114C312.518 55.0235 312.187 54.6417 311.949 54.166V59.3111H309.414V45.6033ZM313.714 53.5651C314.24 53.5651 314.653 53.3836 314.953 53.0205C315.266 52.645 315.423 52.0065 315.423 51.1052V49.8659C315.423 49.0772 315.266 48.5139 314.953 48.1759C314.653 47.8254 314.24 47.6501 313.714 47.6501C313.15 47.6501 312.712 47.8254 312.399 48.1759C312.099 48.5139 311.949 49.0772 311.949 49.8659V51.1052C311.949 52.0065 312.099 52.645 312.399 53.0205C312.712 53.3836 313.15 53.5651 313.714 53.5651ZM319.886 45.6033H322.214V47.1619C322.452 46.6486 322.815 46.2355 323.303 45.9225C323.792 45.5971 324.349 45.4343 324.975 45.4343C325.1 45.4343 325.212 45.4406 325.313 45.4531C325.413 45.4656 325.5 45.4781 325.576 45.4907C325.663 45.5032 325.738 45.5157 325.801 45.5282V47.8379C325.676 47.8254 325.544 47.8066 325.407 47.7815C325.281 47.769 325.131 47.7565 324.956 47.744C324.793 47.7315 324.605 47.7252 324.393 47.7252C323.754 47.7252 323.26 47.8942 322.909 48.2322C322.571 48.5577 322.402 49.0209 322.402 49.6218V55.5555H319.886V45.6033ZM330.925 55.7245C329.598 55.7245 328.546 55.3302 327.77 54.5415C327.007 53.7404 326.625 52.5949 326.625 51.1052V49.8659C326.625 49.1774 326.725 48.5577 326.925 48.0069C327.126 47.4561 327.407 46.9929 327.77 46.6173C328.146 46.2292 328.597 45.9351 329.122 45.7348C329.661 45.5345 330.261 45.4343 330.925 45.4343C331.588 45.4343 332.183 45.5345 332.709 45.7348C333.247 45.9351 333.698 46.2292 334.061 46.6173C334.436 46.9929 334.724 47.4561 334.925 48.0069C335.125 48.5577 335.225 49.1774 335.225 49.8659V51.1052C335.225 52.5949 334.837 53.7404 334.061 54.5415C333.297 55.3302 332.252 55.7245 330.925 55.7245ZM330.925 53.5651C331.488 53.5651 331.92 53.3836 332.221 53.0205C332.534 52.645 332.69 52.0065 332.69 51.1052V49.8659C332.69 49.0522 332.534 48.4701 332.221 48.1195C331.92 47.769 331.488 47.5938 330.925 47.5938C330.362 47.5938 329.923 47.769 329.611 48.1195C329.31 48.4701 329.16 49.0522 329.16 49.8659V51.1052C329.16 52.0065 329.31 52.645 329.611 53.0205C329.923 53.3836 330.362 53.5651 330.925 53.5651ZM335.705 45.6033H338.484L340.737 52.4572L342.747 45.6033H345.432L342.033 55.5555H339.479L335.705 45.6033ZM346.92 45.6033H349.437V55.5555H346.92V45.6033ZM348.179 44.8522C347.765 44.8522 347.409 44.7082 347.108 44.4203C346.82 44.1199 346.676 43.7631 346.676 43.35C346.676 42.9369 346.82 42.5864 347.108 42.2984C347.409 41.998 347.765 41.8478 348.179 41.8478C348.592 41.8478 348.942 41.998 349.23 42.2984C349.531 42.5864 349.681 42.9369 349.681 43.35C349.681 43.7631 349.531 44.1199 349.23 44.4203C348.942 44.7082 348.592 44.8522 348.179 44.8522ZM355.038 55.6682C354.499 55.6682 354.017 55.5868 353.592 55.4241C353.166 55.2488 352.803 54.9797 352.503 54.6167C352.202 54.2536 351.971 53.7842 351.808 53.2083C351.658 52.6199 351.582 51.9189 351.582 51.1052V49.8659C351.582 48.3136 351.889 47.1869 352.503 46.4859C353.116 45.7848 353.961 45.4343 355.038 45.4343C355.651 45.4343 356.17 45.5783 356.596 45.8662C357.022 46.1416 357.353 46.5172 357.591 46.9929V42.4111H360.126V55.5555H357.779V53.997C357.529 54.4977 357.184 54.9046 356.746 55.2175C356.321 55.518 355.751 55.6682 355.038 55.6682ZM355.826 53.5088C356.39 53.5088 356.821 53.3272 357.122 52.9642C357.435 52.6012 357.591 51.9815 357.591 51.1052V49.8659C357.591 49.0522 357.435 48.4701 357.122 48.1195C356.821 47.769 356.39 47.5938 355.826 47.5938C355.3 47.5938 354.881 47.769 354.568 48.1195C354.268 48.4701 354.117 49.0522 354.117 49.8659V51.1052C354.117 51.9815 354.268 52.6012 354.568 52.9642C354.881 53.3272 355.3 53.5088 355.826 53.5088ZM366.204 55.7245C365.566 55.7245 364.984 55.6244 364.458 55.4241C363.945 55.2238 363.507 54.9296 363.144 54.5415C362.781 54.1409 362.499 53.6527 362.299 53.0769C362.098 52.501 361.998 51.8438 361.998 51.1052V49.8659C361.998 48.4513 362.368 47.3622 363.106 46.5985C363.857 45.8224 364.859 45.4343 366.111 45.4343C367.362 45.4343 368.358 45.8224 369.096 46.5985C369.847 47.3622 370.223 48.4575 370.223 49.8847V51.2554H364.533C364.546 52.1818 364.696 52.8202 364.984 53.1708C365.284 53.5213 365.691 53.6965 366.204 53.6965C366.618 53.6965 366.931 53.5964 367.143 53.3961C367.356 53.1833 367.494 52.9329 367.556 52.645H370.035C369.897 53.5714 369.509 54.3162 368.871 54.8795C368.232 55.4429 367.344 55.7245 366.204 55.7245ZM366.186 47.4623C365.672 47.4623 365.278 47.6125 365.003 47.913C364.727 48.2009 364.571 48.7329 364.533 49.5091H367.838C367.801 48.7329 367.644 48.2009 367.369 47.913C367.093 47.6125 366.699 47.4623 366.186 47.4623ZM372.148 45.6033H374.477V47.1619C374.714 46.6486 375.078 46.2355 375.566 45.9225C376.054 45.5971 376.611 45.4343 377.237 45.4343C377.362 45.4343 377.475 45.4406 377.575 45.4531C377.675 45.4656 377.763 45.4781 377.838 45.4907C377.925 45.5032 378.001 45.5157 378.063 45.5282V47.8379C377.938 47.8254 377.807 47.8066 377.669 47.7815C377.544 47.769 377.393 47.7565 377.218 47.744C377.055 47.7315 376.868 47.7252 376.655 47.7252C376.016 47.7252 375.522 47.8942 375.171 48.2322C374.833 48.5577 374.664 49.0209 374.664 49.6218V55.5555H372.148V45.6033Z" fill="#100C27"/>
<rect x="144.972" y="78.1667" width="168" height="9" rx="2.88889" fill="#D3D5DC"/>
<rect x="144.972" y="98" width="85" height="8" rx="2.88889" fill="#D3D5DC"/>
<rect x="181.083" y="118" width="61.3889" height="20" rx="4" fill="#876FEC"/>
<rect x="253.306" y="118" width="61.3889" height="20" rx="4" fill="#D3D5DC"/>
<rect x="325.528" y="118" width="61.3889" height="20" rx="4" fill="#D3D5DC"/>
<rect x="181.083" y="150" width="61.3889" height="20" rx="4" fill="#D3D5DC"/>
<rect x="253.306" y="150" width="61.3889" height="20" rx="4" fill="#D3D5DC"/>
<rect x="325.528" y="150" width="61.3889" height="20" rx="4" fill="#D3D5DC"/>
<rect x="181.083" y="182" width="61.3889" height="20" rx="4" fill="#D3D5DC"/>
<rect x="253.306" y="182" width="61.3889" height="20" rx="4" fill="#D3D5DC"/>
<rect x="325.528" y="182" width="61.3889" height="20" rx="4" fill="#D3D5DC"/>
<defs>
<filter id="filter0_dd_932_13874" x="125.472" y="22.5556" width="317.056" height="212.333" filterUnits="userSpaceOnUse" color-interpolation-filters="sRGB">
<feFlood flood-opacity="0" result="BackgroundImageFix"/>
<feColorMatrix in="SourceAlpha" type="matrix" values="0 0 0 0 0 0 0 0 0 0 0 0 0 0 0 0 0 0 127 0" result="hardAlpha"/>
<feMorphology radius="2.16667" operator="erode" in="SourceAlpha" result="effect1_dropShadow_932_13874"/>
<feOffset dy="7.22222"/>
<feGaussianBlur stdDeviation="5.41667"/>
<feComposite in2="hardAlpha" operator="out"/>
<feColorMatrix type="matrix" values="0 0 0 0 0.0666667 0 0 0 0 0.0941176 0 0 0 0 0.152941 0 0 0 0.1 0"/>
<feBlend mode="normal" in2="BackgroundImageFix" result="effect1_dropShadow_932_13874"/>
<feColorMatrix in="SourceAlpha" type="matrix" values="0 0 0 0 0 0 0 0 0 0 0 0 0 0 0 0 0 0 127 0" result="hardAlpha"/>
<feMorphology radius="1.44444" operator="erode" in="SourceAlpha" result="effect2_dropShadow_932_13874"/>
<feOffset dy="2.88889"/>
<feGaussianBlur stdDeviation="2.16667"/>
<feComposite in2="hardAlpha" operator="out"/>
<feColorMatrix type="matrix" values="0 0 0 0 0.0666667 0 0 0 0 0.0941176 0 0 0 0 0.152941 0 0 0 0.06 0"/>
<feBlend mode="normal" in2="effect1_dropShadow_932_13874" result="effect2_dropShadow_932_13874"/>
<feBlend mode="normal" in="SourceGraphic" in2="effect2_dropShadow_932_13874" result="shape"/>
</filter>
</defs>
</svg>
