<svg width="568" height="259" viewBox="0 0 568 259" fill="none" xmlns="http://www.w3.org/2000/svg">
<g filter="url(#filter0_dd_845_13783)">
<rect x="134.139" y="24" width="299.722" height="195" rx="5.77778" fill="white"/>
<rect x="134.5" y="24.3611" width="299" height="194.278" rx="5.41667" stroke="#D3D5DC" stroke-width="0.722222"/>
</g>
<path d="M150.775 55.7247C149.898 55.7247 149.147 55.637 148.521 55.4618C147.895 55.274 147.382 55.0111 146.982 54.6731C146.581 54.3226 146.28 53.9032 146.08 53.415C145.88 52.9268 145.773 52.3822 145.761 51.7813H148.465C148.49 52.2946 148.665 52.6952 148.991 52.9831C149.329 53.271 149.923 53.415 150.775 53.415C151.626 53.415 152.221 53.2836 152.559 53.0207C152.909 52.7453 153.084 52.3947 153.084 51.9691C153.084 51.7187 153.04 51.4997 152.953 51.3119C152.865 51.1116 152.709 50.9363 152.483 50.7861C152.258 50.6359 151.958 50.4919 151.582 50.3542C151.207 50.2165 150.731 50.0788 150.155 49.9411C149.454 49.7658 148.847 49.5656 148.334 49.3402C147.833 49.1024 147.413 48.827 147.075 48.514C146.737 48.201 146.487 47.838 146.324 47.4249C146.162 46.9993 146.08 46.5048 146.08 45.9414C146.08 45.3906 146.174 44.8899 146.362 44.4392C146.55 43.9886 146.838 43.6005 147.226 43.275C147.614 42.9495 148.102 42.6991 148.69 42.5239C149.279 42.3361 149.973 42.2422 150.775 42.2422C152.377 42.2422 153.554 42.5927 154.305 43.2938C155.068 43.9948 155.463 44.94 155.488 46.1292H152.803C152.778 45.641 152.609 45.2592 152.296 44.9838C151.995 44.6958 151.488 44.5519 150.775 44.5519C150.061 44.5519 149.548 44.6833 149.235 44.9462C148.922 45.2091 148.765 45.5408 148.765 45.9414C148.765 46.1793 148.809 46.3858 148.897 46.5611C148.997 46.7364 149.153 46.8928 149.366 47.0306C149.579 47.1683 149.861 47.2997 150.211 47.4249C150.562 47.5376 151 47.6565 151.526 47.7817C152.277 47.9694 152.915 48.1885 153.441 48.4389C153.979 48.6767 154.418 48.9584 154.756 49.2839C155.106 49.6094 155.363 49.9912 155.525 50.4293C155.688 50.8675 155.77 51.3807 155.77 51.9691C155.77 52.5324 155.669 53.0457 155.469 53.5089C155.281 53.9596 154.981 54.3539 154.568 54.6919C154.167 55.0174 153.648 55.274 153.009 55.4618C152.383 55.637 151.638 55.7247 150.775 55.7247ZM161.054 42.4112H163.871L168.434 55.5557H165.561L164.679 52.9456H160.172L159.271 55.5557H156.491L161.054 42.4112ZM163.927 50.6922L162.425 45.7537L160.904 50.6922H163.927ZM170.019 42.4112H172.723L176.441 49.9036L180.159 42.4112H182.713V55.5557H180.159V46.9179L177.323 52.7578H175.408L172.573 46.9179V55.5557H170.019V42.4112ZM185.606 42.4112H188.291V53.3211H194.093V55.5557H185.606V42.4112ZM199.915 53.8469L204.366 48.7206C204.854 48.1572 205.223 47.6815 205.473 47.2934C205.724 46.8928 205.849 46.511 205.849 46.148C205.849 45.6222 205.705 45.2154 205.417 44.9274C205.129 44.6395 204.741 44.4956 204.253 44.4956C203.765 44.4956 203.377 44.6395 203.089 44.9274C202.801 45.2154 202.657 45.6222 202.657 46.148H200.103C200.103 45.6097 200.203 45.109 200.403 44.6458C200.616 44.1701 200.904 43.757 201.267 43.4064C201.643 43.0434 202.081 42.7617 202.582 42.5614C203.095 42.3486 203.652 42.2422 204.253 42.2422C204.854 42.2422 205.405 42.3486 205.905 42.5614C206.419 42.7617 206.857 43.0434 207.22 43.4064C207.595 43.757 207.883 44.1701 208.084 44.6458C208.296 45.109 208.403 45.6097 208.403 46.148C208.403 46.849 208.19 47.5313 207.764 48.1948C207.351 48.8457 206.838 49.5155 206.225 50.204L203.427 53.3211H208.403V55.5557H199.915V53.8469ZM212.136 55.7247C211.66 55.7247 211.26 55.5619 210.934 55.2364C210.609 54.911 210.446 54.5104 210.446 54.0347C210.446 53.559 210.609 53.1584 210.934 52.8329C211.26 52.5074 211.66 52.3447 212.136 52.3447C212.612 52.3447 213.012 52.5074 213.338 52.8329C213.663 53.1584 213.826 53.559 213.826 54.0347C213.826 54.5104 213.663 54.911 213.338 55.2364C213.012 55.5619 212.612 55.7247 212.136 55.7247ZM220.113 55.7247C219.374 55.7247 218.729 55.6245 218.179 55.4242C217.628 55.2239 217.165 54.8922 216.789 54.429C216.426 53.9658 216.151 53.3649 215.963 52.6263C215.775 51.8752 215.681 50.9551 215.681 49.866V47.9882C215.681 46.9241 215.775 46.0291 215.963 45.303C216.151 44.5644 216.426 43.9698 216.789 43.5191C217.165 43.0684 217.628 42.743 218.179 42.5427C218.729 42.3424 219.374 42.2422 220.113 42.2422C220.851 42.2422 221.496 42.3424 222.047 42.5427C222.598 42.743 223.055 43.0684 223.418 43.5191C223.793 43.9698 224.075 44.5644 224.263 45.303C224.45 46.0291 224.544 46.9241 224.544 47.9882V49.866C224.544 50.9551 224.45 51.8752 224.263 52.6263C224.075 53.3649 223.793 53.9658 223.418 54.429C223.055 54.8922 222.598 55.2239 222.047 55.4242C221.496 55.6245 220.851 55.7247 220.113 55.7247ZM220.113 53.4713C220.401 53.4713 220.651 53.4275 220.864 53.3399C221.089 53.2397 221.271 53.0582 221.408 52.7953C221.559 52.5324 221.671 52.1694 221.746 51.7062C221.822 51.2305 221.859 50.6171 221.859 49.866V47.9882C221.859 47.2621 221.822 46.6738 221.746 46.2231C221.671 45.7599 221.559 45.4031 221.408 45.1528C221.271 44.8899 221.089 44.7146 220.864 44.627C220.651 44.5268 220.401 44.4768 220.113 44.4768C219.825 44.4768 219.568 44.5268 219.343 44.627C219.13 44.7146 218.949 44.8899 218.798 45.1528C218.661 45.4031 218.554 45.7599 218.479 46.2231C218.404 46.6738 218.366 47.2621 218.366 47.9882V49.866C218.366 50.6171 218.404 51.2305 218.479 51.7062C218.554 52.1694 218.661 52.5324 218.798 52.7953C218.949 53.0582 219.13 53.2397 219.343 53.3399C219.568 53.4275 219.825 53.4713 220.113 53.4713ZM231.545 42.4112H234.211V55.5557H231.545V42.4112ZM240.005 55.6683C239.467 55.6683 238.985 55.587 238.56 55.4242C238.134 55.249 237.771 54.9798 237.47 54.6168C237.17 54.2537 236.938 53.7843 236.776 53.2084C236.625 52.6201 236.55 51.919 236.55 51.1053V49.866C236.55 48.3137 236.857 47.187 237.47 46.486C238.084 45.785 238.929 45.4344 240.005 45.4344C240.619 45.4344 241.138 45.5784 241.564 45.8663C241.99 46.1417 242.321 46.5173 242.559 46.993V42.4112H245.094V55.5557H242.747V53.9971C242.497 54.4978 242.152 54.9047 241.714 55.2177C241.289 55.5181 240.719 55.6683 240.005 55.6683ZM240.794 53.5089C241.357 53.5089 241.789 53.3274 242.09 52.9643C242.403 52.6013 242.559 51.9816 242.559 51.1053V49.866C242.559 49.0523 242.403 48.4702 242.09 48.1197C241.789 47.7691 241.357 47.5939 240.794 47.5939C240.268 47.5939 239.849 47.7691 239.536 48.1197C239.236 48.4702 239.085 49.0523 239.085 49.866V51.1053C239.085 51.9816 239.236 52.6013 239.536 52.9643C239.849 53.3274 240.268 53.5089 240.794 53.5089ZM247.642 42.4112H252.412C254.152 42.4112 255.447 42.8056 256.299 43.5942C257.15 44.3829 257.576 45.447 257.576 46.7864C257.576 48.1384 257.15 49.2088 256.299 49.9974C255.447 50.7861 254.152 51.1804 252.412 51.1804H250.327V55.5557H247.642V42.4112ZM252.412 48.9271C253.301 48.9271 253.933 48.7518 254.308 48.4013C254.696 48.0383 254.89 47.5 254.89 46.7864C254.89 46.0729 254.696 45.5408 254.308 45.1903C253.933 44.8273 253.301 44.6458 252.412 44.6458H250.327V48.9271H252.412ZM267.596 55.7247C266.895 55.7247 266.294 55.6496 265.794 55.4993C265.305 55.3491 264.899 55.1426 264.573 54.8797C264.26 54.6043 264.022 54.2788 263.86 53.9032C263.697 53.5151 263.603 53.0958 263.578 52.6451H266.057C266.107 52.9581 266.238 53.2147 266.451 53.415C266.664 53.6028 267.045 53.6967 267.596 53.6967C268.197 53.6967 268.604 53.6153 268.817 53.4526C269.042 53.2773 269.155 53.052 269.155 52.7766C269.155 52.6388 269.136 52.5137 269.099 52.401C269.061 52.2883 268.98 52.1819 268.854 52.0818C268.729 51.9816 268.554 51.8877 268.329 51.8001C268.103 51.7125 267.797 51.6311 267.409 51.556C266.132 51.3056 265.205 50.9488 264.629 50.4857C264.066 50.01 263.784 49.3465 263.784 48.4952C263.784 47.5814 264.097 46.8428 264.723 46.2794C265.349 45.7161 266.307 45.4344 267.596 45.4344C268.873 45.4344 269.812 45.7161 270.413 46.2794C271.026 46.8428 271.358 47.5814 271.408 48.4952H268.93C268.879 48.1572 268.761 47.9006 268.573 47.7253C268.397 47.5501 268.072 47.4624 267.596 47.4624C267.096 47.4624 266.745 47.5438 266.545 47.7066C266.357 47.8568 266.263 48.0758 266.263 48.3638C266.263 48.6267 266.369 48.852 266.582 49.0398C266.808 49.215 267.258 49.3653 267.934 49.4904C268.61 49.6156 269.18 49.7658 269.643 49.9411C270.119 50.1164 270.501 50.3292 270.789 50.5796C271.089 50.8299 271.302 51.1241 271.427 51.4621C271.552 51.8001 271.615 52.1944 271.615 52.6451C271.615 53.559 271.289 54.3038 270.638 54.8797C270 55.443 268.986 55.7247 267.596 55.7247ZM276.459 55.7247C275.508 55.7247 274.744 55.418 274.169 54.8046C273.593 54.1786 273.305 53.221 273.305 51.9316V45.6034H275.84V51.5372C275.84 52.2633 275.965 52.7828 276.215 53.0958C276.478 53.4087 276.829 53.5652 277.267 53.5652C277.718 53.5652 278.099 53.39 278.412 53.0394C278.725 52.6889 278.882 52.1882 278.882 51.5372V45.6034H281.417V55.5557H279.07V53.9971C278.844 54.5104 278.5 54.9297 278.037 55.2552C277.586 55.5682 277.06 55.7247 276.459 55.7247ZM283.631 45.6034H285.978V47.162C286.229 46.6613 286.567 46.2607 286.992 45.9602C287.43 45.6473 288.006 45.4908 288.72 45.4908C289.796 45.4908 290.641 45.835 291.255 46.5236C291.868 47.2121 292.175 48.3262 292.175 49.866V51.1053C292.175 51.9316 292.094 52.6388 291.931 53.2272C291.781 53.8031 291.555 54.2788 291.255 54.6543C290.954 55.0299 290.591 55.3053 290.166 55.4806C289.74 55.6433 289.258 55.7247 288.72 55.7247C288.106 55.7247 287.587 55.587 287.161 55.3116C286.736 55.0236 286.404 54.6418 286.166 54.1661V59.3112H283.631V45.6034ZM287.931 53.5652C288.457 53.5652 288.87 53.3837 289.171 53.0207C289.483 52.6451 289.64 52.0067 289.64 51.1053V49.866C289.64 49.0773 289.483 48.514 289.171 48.176C288.87 47.8255 288.457 47.6502 287.931 47.6502C287.368 47.6502 286.93 47.8255 286.617 48.176C286.316 48.514 286.166 49.0773 286.166 49.866V51.1053C286.166 52.0067 286.316 52.6451 286.617 53.0207C286.93 53.3837 287.368 53.5652 287.931 53.5652ZM294.047 45.6034H296.394V47.162C296.644 46.6613 296.982 46.2607 297.408 45.9602C297.846 45.6473 298.422 45.4908 299.136 45.4908C300.212 45.4908 301.057 45.835 301.671 46.5236C302.284 47.2121 302.591 48.3262 302.591 49.866V51.1053C302.591 51.9316 302.509 52.6388 302.347 53.2272C302.196 53.8031 301.971 54.2788 301.671 54.6543C301.37 55.0299 301.007 55.3053 300.582 55.4806C300.156 55.6433 299.674 55.7247 299.136 55.7247C298.522 55.7247 298.003 55.587 297.577 55.3116C297.151 55.0236 296.82 54.6418 296.582 54.1661V59.3112H294.047V45.6034ZM298.347 53.5652C298.873 53.5652 299.286 53.3837 299.586 53.0207C299.899 52.6451 300.056 52.0067 300.056 51.1053V49.866C300.056 49.0773 299.899 48.514 299.586 48.176C299.286 47.8255 298.873 47.6502 298.347 47.6502C297.784 47.6502 297.345 47.8255 297.033 48.176C296.732 48.514 296.582 49.0773 296.582 49.866V51.1053C296.582 52.0067 296.732 52.6451 297.033 53.0207C297.345 53.3837 297.784 53.5652 298.347 53.5652ZM308.425 55.7247C307.098 55.7247 306.046 55.3303 305.27 54.5417C304.506 53.7405 304.125 52.595 304.125 51.1053V49.866C304.125 49.1775 304.225 48.5578 304.425 48.007C304.625 47.4562 304.907 46.993 305.27 46.6174C305.646 46.2294 306.096 45.9352 306.622 45.7349C307.16 45.5346 307.761 45.4344 308.425 45.4344C309.088 45.4344 309.683 45.5346 310.209 45.7349C310.747 45.9352 311.198 46.2294 311.561 46.6174C311.936 46.993 312.224 47.4562 312.424 48.007C312.625 48.5578 312.725 49.1775 312.725 49.866V51.1053C312.725 52.595 312.337 53.7405 311.561 54.5417C310.797 55.3303 309.752 55.7247 308.425 55.7247ZM308.425 53.5652C308.988 53.5652 309.42 53.3837 309.72 53.0207C310.033 52.6451 310.19 52.0067 310.19 51.1053V49.866C310.19 49.0523 310.033 48.4702 309.72 48.1197C309.42 47.7691 308.988 47.5939 308.425 47.5939C307.861 47.5939 307.423 47.7691 307.11 48.1197C306.81 48.4702 306.66 49.0523 306.66 49.866V51.1053C306.66 52.0067 306.81 52.6451 307.11 53.0207C307.423 53.3837 307.861 53.5652 308.425 53.5652ZM314.66 45.6034H316.988V47.162C317.226 46.6487 317.589 46.2356 318.077 45.9227C318.565 45.5972 319.123 45.4344 319.748 45.4344C319.874 45.4344 319.986 45.4407 320.086 45.4532C320.187 45.4657 320.274 45.4783 320.349 45.4908C320.437 45.5033 320.512 45.5158 320.575 45.5283V47.838C320.45 47.8255 320.318 47.8067 320.18 47.7817C320.055 47.7691 319.905 47.7566 319.73 47.7441C319.567 47.7316 319.379 47.7253 319.166 47.7253C318.528 47.7253 318.033 47.8943 317.683 48.2323C317.345 48.5578 317.176 49.021 317.176 49.6219V55.5557H314.66V45.6034ZM326.104 55.5557C325.466 55.5557 324.927 55.4993 324.489 55.3867C324.051 55.2615 323.7 55.0674 323.438 54.8046C323.175 54.5417 322.981 54.1974 322.855 53.7718C322.743 53.3336 322.686 52.7953 322.686 52.1569V47.6878H321.334V45.6034H322.686V43.3501H325.203V45.6034H327.156V47.6878H325.203V52.1569C325.203 52.6701 325.29 53.0207 325.466 53.2084C325.641 53.3837 325.929 53.4713 326.329 53.4713H327.156V55.5557H326.104Z" fill="#100C27"/>
<rect x="144.972" y="78.5" width="33.9444" height="8.66667" rx="2.88889" fill="#876FEC"/>
<rect x="189.75" y="78.1665" width="57" height="9" rx="2.88889" fill="#D3D5DC"/>
<rect x="144.972" y="100.167" width="278.056" height="1.44444" rx="0.722222" fill="#E7E8EF"/>
<rect x="144.972" y="114.611" width="150" height="8" rx="2.88889" fill="#D3D5DC"/>
<rect x="144.972" y="135.611" width="278.056" height="1.44444" rx="0.722222" fill="#E7E8EF"/>
<rect x="144.972" y="150.055" width="150" height="9" rx="2.88889" fill="#D3D5DC"/>
<rect x="144.972" y="172.055" width="278.056" height="1.44444" rx="0.722222" fill="#E7E8EF"/>
<rect x="144.972" y="186.5" width="57" height="9" rx="2.88889" fill="#D3D5DC"/>
<defs>
<filter id="filter0_dd_845_13783" x="125.472" y="22.5556" width="317.056" height="212.333" filterUnits="userSpaceOnUse" color-interpolation-filters="sRGB">
<feFlood flood-opacity="0" result="BackgroundImageFix"/>
<feColorMatrix in="SourceAlpha" type="matrix" values="0 0 0 0 0 0 0 0 0 0 0 0 0 0 0 0 0 0 127 0" result="hardAlpha"/>
<feMorphology radius="2.16667" operator="erode" in="SourceAlpha" result="effect1_dropShadow_845_13783"/>
<feOffset dy="7.22222"/>
<feGaussianBlur stdDeviation="5.41667"/>
<feComposite in2="hardAlpha" operator="out"/>
<feColorMatrix type="matrix" values="0 0 0 0 0.0666667 0 0 0 0 0.0941176 0 0 0 0 0.152941 0 0 0 0.1 0"/>
<feBlend mode="normal" in2="BackgroundImageFix" result="effect1_dropShadow_845_13783"/>
<feColorMatrix in="SourceAlpha" type="matrix" values="0 0 0 0 0 0 0 0 0 0 0 0 0 0 0 0 0 0 127 0" result="hardAlpha"/>
<feMorphology radius="1.44444" operator="erode" in="SourceAlpha" result="effect2_dropShadow_845_13783"/>
<feOffset dy="2.88889"/>
<feGaussianBlur stdDeviation="2.16667"/>
<feComposite in2="hardAlpha" operator="out"/>
<feColorMatrix type="matrix" values="0 0 0 0 0.0666667 0 0 0 0 0.0941176 0 0 0 0 0.152941 0 0 0 0.06 0"/>
<feBlend mode="normal" in2="effect1_dropShadow_845_13783" result="effect2_dropShadow_845_13783"/>
<feBlend mode="normal" in="SourceGraphic" in2="effect2_dropShadow_845_13783" result="shape"/>
</filter>
</defs>
</svg>
