<svg width="568" height="259" viewBox="0 0 568 259" fill="none" xmlns="http://www.w3.org/2000/svg">
<g filter="url(#filter0_dd_932_13640)">
<rect x="134.139" y="24" width="299.722" height="195" rx="5.77778" fill="white"/>
<rect x="134.5" y="24.3611" width="299" height="194.278" rx="5.41667" stroke="#D3D5DC" stroke-width="0.722222"/>
</g>
<path d="M146.418 42.4111H149.103V48.1195L153.347 42.4111H156.464L152.371 47.7252L157.291 55.5555H154.117L150.606 49.6969L149.103 51.5934V55.5555H146.418V42.4111ZM161.923 55.7245C161.284 55.7245 160.702 55.6244 160.177 55.4241C159.663 55.2238 159.225 54.9296 158.862 54.5415C158.499 54.1409 158.217 53.6527 158.017 53.0769C157.817 52.501 157.717 51.8438 157.717 51.1052V49.8659C157.717 48.4513 158.086 47.3622 158.825 46.5985C159.576 45.8224 160.577 45.4343 161.829 45.4343C163.081 45.4343 164.076 45.8224 164.815 46.5985C165.566 47.3622 165.941 48.4575 165.941 49.8847V51.2554H160.252C160.264 52.1818 160.414 52.8202 160.702 53.1708C161.003 53.5213 161.41 53.6965 161.923 53.6965C162.336 53.6965 162.649 53.5964 162.862 53.3961C163.075 53.1833 163.212 52.9329 163.275 52.645H165.754C165.616 53.5714 165.228 54.3162 164.589 54.8795C163.951 55.4429 163.062 55.7245 161.923 55.7245ZM161.904 47.4623C161.391 47.4623 160.997 47.6125 160.721 47.913C160.446 48.2009 160.289 48.7329 160.252 49.5091H163.557C163.519 48.7329 163.363 48.2009 163.087 47.913C162.812 47.6125 162.417 47.4623 161.904 47.4623ZM167.867 45.6033H170.195V47.1619C170.433 46.6486 170.796 46.2355 171.284 45.9225C171.772 45.5971 172.33 45.4343 172.955 45.4343C173.081 45.4343 173.193 45.4406 173.293 45.4531C173.394 45.4656 173.481 45.4781 173.556 45.4907C173.644 45.5032 173.719 45.5157 173.782 45.5282V47.8379C173.656 47.8254 173.525 47.8066 173.387 47.7815C173.262 47.769 173.112 47.7565 172.937 47.744C172.774 47.7315 172.586 47.7252 172.373 47.7252C171.735 47.7252 171.24 47.8942 170.89 48.2322C170.552 48.5577 170.383 49.0209 170.383 49.6218V55.5555H167.867V45.6033ZM180.216 55.6682C179.502 55.6682 178.926 55.518 178.488 55.2175C178.063 54.9046 177.725 54.4977 177.474 53.997V55.5555H175.127V42.4111H177.662V46.9929C177.9 46.5172 178.232 46.1416 178.657 45.8662C179.083 45.5783 179.602 45.4343 180.216 45.4343C181.292 45.4343 182.137 45.7848 182.751 46.4859C183.364 47.1869 183.671 48.3136 183.671 49.8659V51.1052C183.671 51.9189 183.59 52.6199 183.427 53.2083C183.277 53.7842 183.051 54.2536 182.751 54.6167C182.45 54.9797 182.087 55.2488 181.662 55.4241C181.236 55.5868 180.754 55.6682 180.216 55.6682ZM179.427 53.5088C179.953 53.5088 180.366 53.3272 180.666 52.9642C180.979 52.6012 181.136 51.9815 181.136 51.1052V49.8659C181.136 49.0522 180.979 48.4701 180.666 48.1195C180.366 47.769 179.953 47.5938 179.427 47.5938C178.864 47.5938 178.426 47.769 178.113 48.1195C177.812 48.4701 177.662 49.0522 177.662 49.8659V51.1052C177.662 51.9815 177.812 52.6012 178.113 52.9642C178.426 53.3272 178.864 53.5088 179.427 53.5088ZM189.411 55.7245C188.773 55.7245 188.191 55.6244 187.665 55.4241C187.151 55.2238 186.713 54.9296 186.35 54.5415C185.987 54.1409 185.706 53.6527 185.505 53.0769C185.305 52.501 185.205 51.8438 185.205 51.1052V49.8659C185.205 48.4513 185.574 47.3622 186.313 46.5985C187.064 45.8224 188.065 45.4343 189.317 45.4343C190.569 45.4343 191.564 45.8224 192.303 46.5985C193.054 47.3622 193.43 48.4575 193.43 49.8847V51.2554H187.74C187.752 52.1818 187.903 52.8202 188.191 53.1708C188.491 53.5213 188.898 53.6965 189.411 53.6965C189.824 53.6965 190.137 53.5964 190.35 53.3961C190.563 53.1833 190.7 52.9329 190.763 52.645H193.242C193.104 53.5714 192.716 54.3162 192.078 54.8795C191.439 55.4429 190.55 55.7245 189.411 55.7245ZM189.392 47.4623C188.879 47.4623 188.485 47.6125 188.209 47.913C187.934 48.2009 187.777 48.7329 187.74 49.5091H191.045C191.007 48.7329 190.851 48.2009 190.575 47.913C190.3 47.6125 189.906 47.4623 189.392 47.4623ZM195.355 45.6033H197.683V47.1619C197.921 46.6486 198.284 46.2355 198.772 45.9225C199.261 45.5971 199.818 45.4343 200.444 45.4343C200.569 45.4343 200.681 45.4406 200.782 45.4531C200.882 45.4656 200.969 45.4781 201.044 45.4907C201.132 45.5032 201.207 45.5157 201.27 45.5282V47.8379C201.145 47.8254 201.013 47.8066 200.875 47.7815C200.75 47.769 200.6 47.7565 200.425 47.744C200.262 47.7315 200.074 47.7252 199.861 47.7252C199.223 47.7252 198.729 47.8942 198.378 48.2322C198.04 48.5577 197.871 49.0209 197.871 49.6218V55.5555H195.355V45.6033ZM206.394 55.7245C205.067 55.7245 204.015 55.3302 203.239 54.5415C202.476 53.7404 202.094 52.5949 202.094 51.1052V49.8659C202.094 49.1774 202.194 48.5577 202.394 48.0069C202.595 47.4561 202.876 46.9929 203.239 46.6173C203.615 46.2292 204.066 45.9351 204.591 45.7348C205.13 45.5345 205.73 45.4343 206.394 45.4343C207.057 45.4343 207.652 45.5345 208.178 45.7348C208.716 45.9351 209.167 46.2292 209.53 46.6173C209.905 46.9929 210.193 47.4561 210.394 48.0069C210.594 48.5577 210.694 49.1774 210.694 49.8659V51.1052C210.694 52.5949 210.306 53.7404 209.53 54.5415C208.766 55.3302 207.721 55.7245 206.394 55.7245ZM206.394 53.5651C206.957 53.5651 207.389 53.3836 207.69 53.0205C208.003 52.645 208.159 52.0065 208.159 51.1052V49.8659C208.159 49.0522 208.003 48.4701 207.69 48.1195C207.389 47.769 206.957 47.5938 206.394 47.5938C205.831 47.5938 205.392 47.769 205.08 48.1195C204.779 48.4701 204.629 49.0522 204.629 49.8659V51.1052C204.629 52.0065 204.779 52.645 205.08 53.0205C205.392 53.3836 205.831 53.5651 206.394 53.5651ZM216.159 55.7245C215.458 55.7245 214.857 55.6494 214.356 55.4992C213.868 55.349 213.461 55.1424 213.136 54.8795C212.823 54.6041 212.585 54.2787 212.422 53.9031C212.26 53.515 212.166 53.0957 212.141 52.645H214.619C214.669 52.9579 214.801 53.2146 215.014 53.4149C215.227 53.6027 215.608 53.6965 216.159 53.6965C216.76 53.6965 217.167 53.6152 217.38 53.4524C217.605 53.2772 217.718 53.0518 217.718 52.7764C217.718 52.6387 217.699 52.5135 217.661 52.4009C217.624 52.2882 217.542 52.1818 217.417 52.0817C217.292 51.9815 217.117 51.8876 216.891 51.8C216.666 51.7124 216.359 51.631 215.971 51.5559C214.694 51.3055 213.768 50.9487 213.192 50.4855C212.629 50.0098 212.347 49.3464 212.347 48.4951C212.347 47.5812 212.66 46.8427 213.286 46.2793C213.912 45.716 214.87 45.4343 216.159 45.4343C217.436 45.4343 218.375 45.716 218.976 46.2793C219.589 46.8427 219.921 47.5812 219.971 48.4951H217.492C217.442 48.1571 217.323 47.9005 217.136 47.7252C216.96 47.5499 216.635 47.4623 216.159 47.4623C215.658 47.4623 215.308 47.5437 215.108 47.7064C214.92 47.8567 214.826 48.0757 214.826 48.3637C214.826 48.6265 214.932 48.8519 215.145 49.0397C215.37 49.2149 215.821 49.3651 216.497 49.4903C217.173 49.6155 217.743 49.7657 218.206 49.941C218.682 50.1162 219.063 50.3291 219.351 50.5794C219.652 50.8298 219.865 51.124 219.99 51.462C220.115 51.8 220.178 52.1943 220.178 52.645C220.178 53.5588 219.852 54.3037 219.201 54.8795C218.563 55.4429 217.549 55.7245 216.159 55.7245ZM227.125 42.4111H229.792V55.5555H227.125V42.4111ZM235.586 55.6682C235.048 55.6682 234.566 55.5868 234.14 55.4241C233.715 55.2488 233.352 54.9797 233.051 54.6167C232.751 54.2536 232.519 53.7842 232.356 53.2083C232.206 52.6199 232.131 51.9189 232.131 51.1052V49.8659C232.131 48.3136 232.438 47.1869 233.051 46.4859C233.664 45.7848 234.509 45.4343 235.586 45.4343C236.199 45.4343 236.719 45.5783 237.145 45.8662C237.57 46.1416 237.902 46.5172 238.14 46.9929V42.4111H240.675V55.5555H238.328V53.997C238.077 54.4977 237.733 54.9046 237.295 55.2175C236.869 55.518 236.3 55.6682 235.586 55.6682ZM236.375 53.5088C236.938 53.5088 237.37 53.3272 237.67 52.9642C237.983 52.6012 238.14 51.9815 238.14 51.1052V49.8659C238.14 49.0522 237.983 48.4701 237.67 48.1195C237.37 47.769 236.938 47.5938 236.375 47.5938C235.849 47.5938 235.43 47.769 235.117 48.1195C234.816 48.4701 234.666 49.0522 234.666 49.8659V51.1052C234.666 51.9815 234.816 52.6012 235.117 52.9642C235.43 53.3272 235.849 53.5088 236.375 53.5088ZM246.753 55.7245C246.115 55.7245 245.532 55.6244 245.007 55.4241C244.493 55.2238 244.055 54.9296 243.692 54.5415C243.329 54.1409 243.047 53.6527 242.847 53.0769C242.647 52.501 242.547 51.8438 242.547 51.1052V49.8659C242.547 48.4513 242.916 47.3622 243.655 46.5985C244.406 45.8224 245.407 45.4343 246.659 45.4343C247.911 45.4343 248.906 45.8224 249.645 46.5985C250.396 47.3622 250.771 48.4575 250.771 49.8847V51.2554H245.082C245.094 52.1818 245.244 52.8202 245.532 53.1708C245.833 53.5213 246.24 53.6965 246.753 53.6965C247.166 53.6965 247.479 53.5964 247.692 53.3961C247.905 53.1833 248.042 52.9329 248.105 52.645H250.584C250.446 53.5714 250.058 54.3162 249.419 54.8795C248.781 55.4429 247.892 55.7245 246.753 55.7245ZM246.734 47.4623C246.221 47.4623 245.827 47.6125 245.551 47.913C245.276 48.2009 245.119 48.7329 245.082 49.5091H248.387C248.349 48.7329 248.193 48.2009 247.917 47.913C247.642 47.6125 247.247 47.4623 246.734 47.4623ZM252.64 45.6033H254.988V47.1619C255.213 46.6486 255.57 46.2355 256.058 45.9225C256.546 45.5971 257.103 45.4343 257.729 45.4343C258.731 45.4343 259.513 45.7473 260.076 46.3732C260.652 46.9866 260.94 47.938 260.94 49.2274V55.5555H258.405V49.6218C258.405 48.8957 258.267 48.3762 257.992 48.0632C257.729 47.7502 257.36 47.5938 256.884 47.5938C256.358 47.5938 255.939 47.7628 255.626 48.1008C255.326 48.4388 255.175 48.9458 255.175 49.6218V55.5555H252.64V45.6033ZM267.093 55.5555C266.455 55.5555 265.917 55.4992 265.479 55.3865C265.04 55.2614 264.69 55.0673 264.427 54.8044C264.164 54.5415 263.97 54.1973 263.845 53.7717C263.732 53.3335 263.676 52.7952 263.676 52.1568V47.6877H262.324V45.6033H263.676V43.35H266.192V45.6033H268.145V47.6877H266.192V52.1568C266.192 52.67 266.28 53.0205 266.455 53.2083C266.63 53.3836 266.918 53.4712 267.319 53.4712H268.145V55.5555H267.093ZM270.086 45.6033H272.602V55.5555H270.086V45.6033ZM271.344 44.8522C270.931 44.8522 270.574 44.7082 270.273 44.4203C269.986 44.1199 269.842 43.7631 269.842 43.35C269.842 42.9369 269.986 42.5864 270.273 42.2984C270.574 41.998 270.931 41.8478 271.344 41.8478C271.757 41.8478 272.107 41.998 272.395 42.2984C272.696 42.5864 272.846 42.9369 272.846 43.35C272.846 43.7631 272.696 44.1199 272.395 44.4203C272.107 44.7082 271.757 44.8522 271.344 44.8522ZM279.123 55.5555C278.484 55.5555 277.946 55.4992 277.508 55.3865C277.07 55.2614 276.719 55.0673 276.456 54.8044C276.194 54.5415 276 54.1973 275.874 53.7717C275.762 53.3335 275.705 52.7952 275.705 52.1568V47.6877H274.353V45.6033H275.705V43.35H278.222V45.6033H280.174V47.6877H278.222V52.1568C278.222 52.67 278.309 53.0205 278.484 53.2083C278.66 53.3836 278.948 53.4712 279.348 53.4712H280.174V55.5555H279.123ZM282.397 57.2268C282.71 57.2268 282.985 57.1955 283.223 57.1329C283.461 57.0828 283.667 56.9952 283.843 56.87C284.018 56.7573 284.168 56.5946 284.293 56.3818C284.431 56.1815 284.55 55.9311 284.65 55.6307L280.857 45.6033H283.636L285.89 52.4572L287.899 45.6033H290.584L287.148 55.6307C286.885 56.4193 286.616 57.0515 286.34 57.5272C286.077 58.0154 285.764 58.391 285.401 58.6539C285.051 58.9168 284.631 59.092 284.143 59.1797C283.667 59.2673 283.085 59.3111 282.397 59.3111V57.2268ZM296.504 45.6033H298.851V47.1619C299.102 46.6611 299.44 46.2605 299.865 45.9601C300.303 45.6471 300.879 45.4907 301.593 45.4907C302.669 45.4907 303.514 45.8349 304.128 46.5234C304.741 47.2119 305.048 48.3261 305.048 49.8659V51.1052C305.048 51.9314 304.967 52.6387 304.804 53.2271C304.654 53.8029 304.428 54.2787 304.128 54.6542C303.827 55.0298 303.464 55.3052 303.039 55.4804C302.613 55.6432 302.131 55.7245 301.593 55.7245C300.979 55.7245 300.46 55.5868 300.034 55.3114C299.609 55.0235 299.277 54.6417 299.039 54.166V59.3111H296.504V45.6033ZM300.804 53.5651C301.33 53.5651 301.743 53.3836 302.044 53.0205C302.357 52.645 302.513 52.0065 302.513 51.1052V49.8659C302.513 49.0772 302.357 48.5139 302.044 48.1759C301.743 47.8254 301.33 47.6501 300.804 47.6501C300.241 47.6501 299.803 47.8254 299.49 48.1759C299.189 48.5139 299.039 49.0772 299.039 49.8659V51.1052C299.039 52.0065 299.189 52.645 299.49 53.0205C299.803 53.3836 300.241 53.5651 300.804 53.5651ZM306.976 45.6033H309.305V47.1619C309.543 46.6486 309.906 46.2355 310.394 45.9225C310.882 45.5971 311.439 45.4343 312.065 45.4343C312.19 45.4343 312.303 45.4406 312.403 45.4531C312.503 45.4656 312.591 45.4781 312.666 45.4907C312.754 45.5032 312.829 45.5157 312.891 45.5282V47.8379C312.766 47.8254 312.635 47.8066 312.497 47.7815C312.372 47.769 312.221 47.7565 312.046 47.744C311.883 47.7315 311.696 47.7252 311.483 47.7252C310.844 47.7252 310.35 47.8942 309.999 48.2322C309.661 48.5577 309.492 49.0209 309.492 49.6218V55.5555H306.976V45.6033ZM318.015 55.7245C316.688 55.7245 315.637 55.3302 314.861 54.5415C314.097 53.7404 313.715 52.5949 313.715 51.1052V49.8659C313.715 49.1774 313.815 48.5577 314.016 48.0069C314.216 47.4561 314.498 46.9929 314.861 46.6173C315.236 46.2292 315.687 45.9351 316.213 45.7348C316.751 45.5345 317.352 45.4343 318.015 45.4343C318.679 45.4343 319.273 45.5345 319.799 45.7348C320.338 45.9351 320.788 46.2292 321.151 46.6173C321.527 46.9929 321.815 47.4561 322.015 48.0069C322.215 48.5577 322.315 49.1774 322.315 49.8659V51.1052C322.315 52.5949 321.927 53.7404 321.151 54.5415C320.388 55.3302 319.342 55.7245 318.015 55.7245ZM318.015 53.5651C318.579 53.5651 319.011 53.3836 319.311 53.0205C319.624 52.645 319.78 52.0065 319.78 51.1052V49.8659C319.78 49.0522 319.624 48.4701 319.311 48.1195C319.011 47.769 318.579 47.5938 318.015 47.5938C317.452 47.5938 317.014 47.769 316.701 48.1195C316.4 48.4701 316.25 49.0522 316.25 49.8659V51.1052C316.25 52.0065 316.4 52.645 316.701 53.0205C317.014 53.3836 317.452 53.5651 318.015 53.5651ZM322.795 45.6033H325.574L327.828 52.4572L329.837 45.6033H332.522L329.123 55.5555H326.57L322.795 45.6033ZM334.011 45.6033H336.527V55.5555H334.011V45.6033ZM335.269 44.8522C334.856 44.8522 334.499 44.7082 334.199 44.4203C333.911 44.1199 333.767 43.7631 333.767 43.35C333.767 42.9369 333.911 42.5864 334.199 42.2984C334.499 41.998 334.856 41.8478 335.269 41.8478C335.682 41.8478 336.033 41.998 336.32 42.2984C336.621 42.5864 336.771 42.9369 336.771 43.35C336.771 43.7631 336.621 44.1199 336.32 44.4203C336.033 44.7082 335.682 44.8522 335.269 44.8522ZM342.128 55.6682C341.59 55.6682 341.108 55.5868 340.682 55.4241C340.256 55.2488 339.893 54.9797 339.593 54.6167C339.292 54.2536 339.061 53.7842 338.898 53.2083C338.748 52.6199 338.673 51.9189 338.673 51.1052V49.8659C338.673 48.3136 338.98 47.1869 339.593 46.4859C340.206 45.7848 341.051 45.4343 342.128 45.4343C342.741 45.4343 343.261 45.5783 343.686 45.8662C344.112 46.1416 344.444 46.5172 344.682 46.9929V42.4111H347.217V55.5555H344.869V53.997C344.619 54.4977 344.275 54.9046 343.837 55.2175C343.411 55.518 342.841 55.6682 342.128 55.6682ZM342.917 53.5088C343.48 53.5088 343.912 53.3272 344.212 52.9642C344.525 52.6012 344.682 51.9815 344.682 51.1052V49.8659C344.682 49.0522 344.525 48.4701 344.212 48.1195C343.912 47.769 343.48 47.5938 342.917 47.5938C342.391 47.5938 341.971 47.769 341.658 48.1195C341.358 48.4701 341.208 49.0522 341.208 49.8659V51.1052C341.208 51.9815 341.358 52.6012 341.658 52.9642C341.971 53.3272 342.391 53.5088 342.917 53.5088ZM353.295 55.7245C352.656 55.7245 352.074 55.6244 351.549 55.4241C351.035 55.2238 350.597 54.9296 350.234 54.5415C349.871 54.1409 349.589 53.6527 349.389 53.0769C349.189 52.501 349.089 51.8438 349.089 51.1052V49.8659C349.089 48.4513 349.458 47.3622 350.197 46.5985C350.948 45.8224 351.949 45.4343 353.201 45.4343C354.453 45.4343 355.448 45.8224 356.187 46.5985C356.938 47.3622 357.313 48.4575 357.313 49.8847V51.2554H351.624C351.636 52.1818 351.786 52.8202 352.074 53.1708C352.375 53.5213 352.782 53.6965 353.295 53.6965C353.708 53.6965 354.021 53.5964 354.234 53.3961C354.447 53.1833 354.584 52.9329 354.647 52.645H357.126C356.988 53.5714 356.6 54.3162 355.961 54.8795C355.323 55.4429 354.434 55.7245 353.295 55.7245ZM353.276 47.4623C352.763 47.4623 352.368 47.6125 352.093 47.913C351.818 48.2009 351.661 48.7329 351.624 49.5091H354.929C354.891 48.7329 354.734 48.2009 354.459 47.913C354.184 47.6125 353.789 47.4623 353.276 47.4623ZM359.239 45.6033H361.567V47.1619C361.805 46.6486 362.168 46.2355 362.656 45.9225C363.144 45.5971 363.701 45.4343 364.327 45.4343C364.453 45.4343 364.565 45.4406 364.665 45.4531C364.766 45.4656 364.853 45.4781 364.928 45.4907C365.016 45.5032 365.091 45.5157 365.154 45.5282V47.8379C365.028 47.8254 364.897 47.8066 364.759 47.7815C364.634 47.769 364.484 47.7565 364.309 47.744C364.146 47.7315 363.958 47.7252 363.745 47.7252C363.107 47.7252 362.612 47.8942 362.262 48.2322C361.924 48.5577 361.755 49.0209 361.755 49.6218V55.5555H359.239V45.6033Z" fill="#100C27"/>
<rect x="144.972" y="78.1667" width="168" height="9" rx="2.88889" fill="#D3D5DC"/>
<rect x="144.972" y="98" width="85" height="8" rx="2.88889" fill="#D3D5DC"/>
<rect x="181.083" y="118" width="61.3889" height="20" rx="4" fill="#876FEC"/>
<rect x="253.306" y="118" width="61.3889" height="20" rx="4" fill="#D3D5DC"/>
<rect x="325.528" y="118" width="61.3889" height="20" rx="4" fill="#D3D5DC"/>
<rect x="181.083" y="150" width="61.3889" height="20" rx="4" fill="#D3D5DC"/>
<rect x="253.306" y="150" width="61.3889" height="20" rx="4" fill="#D3D5DC"/>
<rect x="325.528" y="150" width="61.3889" height="20" rx="4" fill="#D3D5DC"/>
<rect x="181.083" y="182" width="61.3889" height="20" rx="4" fill="#D3D5DC"/>
<rect x="253.306" y="182" width="61.3889" height="20" rx="4" fill="#D3D5DC"/>
<rect x="325.528" y="182" width="61.3889" height="20" rx="4" fill="#D3D5DC"/>
<defs>
<filter id="filter0_dd_932_13640" x="125.472" y="22.5556" width="317.056" height="212.333" filterUnits="userSpaceOnUse" color-interpolation-filters="sRGB">
<feFlood flood-opacity="0" result="BackgroundImageFix"/>
<feColorMatrix in="SourceAlpha" type="matrix" values="0 0 0 0 0 0 0 0 0 0 0 0 0 0 0 0 0 0 127 0" result="hardAlpha"/>
<feMorphology radius="2.16667" operator="erode" in="SourceAlpha" result="effect1_dropShadow_932_13640"/>
<feOffset dy="7.22222"/>
<feGaussianBlur stdDeviation="5.41667"/>
<feComposite in2="hardAlpha" operator="out"/>
<feColorMatrix type="matrix" values="0 0 0 0 0.0666667 0 0 0 0 0.0941176 0 0 0 0 0.152941 0 0 0 0.1 0"/>
<feBlend mode="normal" in2="BackgroundImageFix" result="effect1_dropShadow_932_13640"/>
<feColorMatrix in="SourceAlpha" type="matrix" values="0 0 0 0 0 0 0 0 0 0 0 0 0 0 0 0 0 0 127 0" result="hardAlpha"/>
<feMorphology radius="1.44444" operator="erode" in="SourceAlpha" result="effect2_dropShadow_932_13640"/>
<feOffset dy="2.88889"/>
<feGaussianBlur stdDeviation="2.16667"/>
<feComposite in2="hardAlpha" operator="out"/>
<feColorMatrix type="matrix" values="0 0 0 0 0.0666667 0 0 0 0 0.0941176 0 0 0 0 0.152941 0 0 0 0.06 0"/>
<feBlend mode="normal" in2="effect1_dropShadow_932_13640" result="effect2_dropShadow_932_13640"/>
<feBlend mode="normal" in="SourceGraphic" in2="effect2_dropShadow_932_13640" result="shape"/>
</filter>
</defs>
</svg>
