<svg width="568" height="259" viewBox="0 0 568 259" fill="none" xmlns="http://www.w3.org/2000/svg">
<g filter="url(#filter0_dd_932_13757)">
<rect x="134.139" y="24" width="299.722" height="195" rx="5.77778" fill="white"/>
<rect x="134.5" y="24.3611" width="299" height="194.278" rx="5.41667" stroke="#D3D5DC" stroke-width="0.722222"/>
</g>
<path d="M149.667 42.4111H152.484L157.047 55.5555H154.174L153.291 52.9454H148.784L147.883 55.5555H145.104L149.667 42.4111ZM152.54 50.6921L151.038 45.7535L149.517 50.6921H152.54ZM157.861 53.8655L162.518 47.6877H158.049V45.6033H165.523V47.2933L160.885 53.4712H165.523V55.5555H157.861V53.8655ZM170.376 55.7245C169.425 55.7245 168.661 55.4178 168.085 54.8044C167.509 54.1785 167.221 53.2208 167.221 51.9314V45.6033H169.756V51.5371C169.756 52.2632 169.882 52.7827 170.132 53.0957C170.395 53.4086 170.745 53.5651 171.184 53.5651C171.634 53.5651 172.016 53.3898 172.329 53.0393C172.642 52.6888 172.798 52.1881 172.798 51.5371V45.6033H175.333V55.5555H172.986V53.997C172.761 54.5102 172.417 54.9296 171.953 55.2551C171.503 55.5681 170.977 55.7245 170.376 55.7245ZM177.604 45.6033H179.933V47.1619C180.17 46.6486 180.533 46.2355 181.022 45.9225C181.51 45.5971 182.067 45.4343 182.693 45.4343C182.818 45.4343 182.931 45.4406 183.031 45.4531C183.131 45.4656 183.219 45.4781 183.294 45.4907C183.381 45.5032 183.456 45.5157 183.519 45.5282V47.8379C183.394 47.8254 183.262 47.8066 183.125 47.7815C183 47.769 182.849 47.7565 182.674 47.744C182.511 47.7315 182.324 47.7252 182.111 47.7252C181.472 47.7252 180.978 47.8942 180.627 48.2322C180.289 48.5577 180.12 49.0209 180.12 49.6218V55.5555H177.604V45.6033ZM188.549 55.7245C187.911 55.7245 187.329 55.6244 186.803 55.4241C186.29 55.2238 185.852 54.9296 185.489 54.5415C185.126 54.1409 184.844 53.6527 184.644 53.0769C184.443 52.501 184.343 51.8438 184.343 51.1052V49.8659C184.343 48.4513 184.712 47.3622 185.451 46.5985C186.202 45.8224 187.204 45.4343 188.455 45.4343C189.707 45.4343 190.703 45.8224 191.441 46.5985C192.192 47.3622 192.568 48.4575 192.568 49.8847V51.2554H186.878C186.891 52.1818 187.041 52.8202 187.329 53.1708C187.629 53.5213 188.036 53.6965 188.549 53.6965C188.962 53.6965 189.275 53.5964 189.488 53.3961C189.701 53.1833 189.839 52.9329 189.901 52.645H192.38C192.242 53.5714 191.854 54.3162 191.216 54.8795C190.577 55.4429 189.689 55.7245 188.549 55.7245ZM188.531 47.4623C188.017 47.4623 187.623 47.6125 187.348 47.913C187.072 48.2009 186.916 48.7329 186.878 49.5091H190.183C190.145 48.7329 189.989 48.2009 189.714 47.913C189.438 47.6125 189.044 47.4623 188.531 47.4623ZM202.718 42.4111H205.534L210.097 55.5555H207.224L206.342 52.9454H201.835L200.934 55.5555H198.155L202.718 42.4111ZM205.591 50.6921L204.089 45.7535L202.568 50.6921H205.591ZM211.682 42.4111H216.433C218.048 42.4111 219.318 42.8993 220.245 43.8758C221.184 44.8397 221.653 46.2668 221.653 48.1571V49.6593C221.653 51.6247 221.184 53.1019 220.245 54.0909C219.318 55.0673 218.048 55.5555 216.433 55.5555H211.682V42.4111ZM216.433 53.321C217.222 53.321 217.841 53.0393 218.292 52.476C218.743 51.9127 218.968 50.9738 218.968 49.6593V48.1571C218.968 46.9178 218.743 46.0227 218.292 45.4719C217.841 44.9211 217.222 44.6457 216.433 44.6457H214.367V53.321H216.433ZM228.904 42.4111H231.571V55.5555H228.904V42.4111ZM237.365 55.6682C236.827 55.6682 236.345 55.5868 235.919 55.4241C235.493 55.2488 235.13 54.9797 234.83 54.6167C234.529 54.2536 234.298 53.7842 234.135 53.2083C233.985 52.6199 233.91 51.9189 233.91 51.1052V49.8659C233.91 48.3136 234.217 47.1869 234.83 46.4859C235.443 45.7848 236.288 45.4343 237.365 45.4343C237.978 45.4343 238.498 45.5783 238.923 45.8662C239.349 46.1416 239.681 46.5172 239.919 46.9929V42.4111H242.454V55.5555H240.106V53.997C239.856 54.4977 239.512 54.9046 239.074 55.2175C238.648 55.518 238.078 55.6682 237.365 55.6682ZM238.154 53.5088C238.717 53.5088 239.149 53.3272 239.449 52.9642C239.762 52.6012 239.919 51.9815 239.919 51.1052V49.8659C239.919 49.0522 239.762 48.4701 239.449 48.1195C239.149 47.769 238.717 47.5938 238.154 47.5938C237.628 47.5938 237.208 47.769 236.895 48.1195C236.595 48.4701 236.445 49.0522 236.445 49.8659V51.1052C236.445 51.9815 236.595 52.6012 236.895 52.9642C237.208 53.3272 237.628 53.5088 238.154 53.5088ZM248.532 55.7245C247.893 55.7245 247.311 55.6244 246.786 55.4241C246.272 55.2238 245.834 54.9296 245.471 54.5415C245.108 54.1409 244.826 53.6527 244.626 53.0769C244.426 52.501 244.326 51.8438 244.326 51.1052V49.8659C244.326 48.4513 244.695 47.3622 245.434 46.5985C246.185 45.8224 247.186 45.4343 248.438 45.4343C249.69 45.4343 250.685 45.8224 251.424 46.5985C252.175 47.3622 252.55 48.4575 252.55 49.8847V51.2554H246.861C246.873 52.1818 247.023 52.8202 247.311 53.1708C247.612 53.5213 248.019 53.6965 248.532 53.6965C248.945 53.6965 249.258 53.5964 249.471 53.3961C249.684 53.1833 249.821 52.9329 249.884 52.645H252.363C252.225 53.5714 251.837 54.3162 251.198 54.8795C250.56 55.4429 249.671 55.7245 248.532 55.7245ZM248.513 47.4623C248 47.4623 247.605 47.6125 247.33 47.913C247.055 48.2009 246.898 48.7329 246.861 49.5091H250.166C250.128 48.7329 249.971 48.2009 249.696 47.913C249.421 47.6125 249.026 47.4623 248.513 47.4623ZM254.419 45.6033H256.766V47.1619C256.992 46.6486 257.349 46.2355 257.837 45.9225C258.325 45.5971 258.882 45.4343 259.508 45.4343C260.51 45.4343 261.292 45.7473 261.855 46.3732C262.431 46.9866 262.719 47.938 262.719 49.2274V55.5555H260.184V49.6218C260.184 48.8957 260.046 48.3762 259.771 48.0632C259.508 47.7502 259.139 47.5938 258.663 47.5938C258.137 47.5938 257.718 47.7628 257.405 48.1008C257.104 48.4388 256.954 48.9458 256.954 49.6218V55.5555H254.419V45.6033ZM268.872 55.5555C268.234 55.5555 267.696 55.4992 267.257 55.3865C266.819 55.2614 266.469 55.0673 266.206 54.8044C265.943 54.5415 265.749 54.1973 265.624 53.7717C265.511 53.3335 265.455 52.7952 265.455 52.1568V47.6877H264.103V45.6033H265.455V43.35H267.971V45.6033H269.924V47.6877H267.971V52.1568C267.971 52.67 268.059 53.0205 268.234 53.2083C268.409 53.3836 268.697 53.4712 269.098 53.4712H269.924V55.5555H268.872ZM271.865 45.6033H274.381V55.5555H271.865V45.6033ZM273.123 44.8522C272.71 44.8522 272.353 44.7082 272.052 44.4203C271.764 44.1199 271.62 43.7631 271.62 43.35C271.62 42.9369 271.764 42.5864 272.052 42.2984C272.353 41.998 272.71 41.8478 273.123 41.8478C273.536 41.8478 273.886 41.998 274.174 42.2984C274.475 42.5864 274.625 42.9369 274.625 43.35C274.625 43.7631 274.475 44.1199 274.174 44.4203C273.886 44.7082 273.536 44.8522 273.123 44.8522ZM280.902 55.5555C280.263 55.5555 279.725 55.4992 279.287 55.3865C278.849 55.2614 278.498 55.0673 278.235 54.8044C277.972 54.5415 277.778 54.1973 277.653 53.7717C277.541 53.3335 277.484 52.7952 277.484 52.1568V47.6877H276.132V45.6033H277.484V43.35H280V45.6033H281.953V47.6877H280V52.1568C280 52.67 280.088 53.0205 280.263 53.2083C280.439 53.3836 280.727 53.4712 281.127 53.4712H281.953V55.5555H280.902ZM284.176 57.2268C284.489 57.2268 284.764 57.1955 285.002 57.1329C285.24 57.0828 285.446 56.9952 285.622 56.87C285.797 56.7573 285.947 56.5946 286.072 56.3818C286.21 56.1815 286.329 55.9311 286.429 55.6307L282.636 45.6033H285.415L287.668 52.4572L289.678 45.6033H292.363L288.927 55.6307C288.664 56.4193 288.394 57.0515 288.119 57.5272C287.856 58.0154 287.543 58.391 287.18 58.6539C286.83 58.9168 286.41 59.092 285.922 59.1797C285.446 59.2673 284.864 59.3111 284.176 59.3111V57.2268ZM298.283 45.6033H300.63V47.1619C300.881 46.6611 301.219 46.2605 301.644 45.9601C302.082 45.6471 302.658 45.4907 303.372 45.4907C304.448 45.4907 305.293 45.8349 305.907 46.5234C306.52 47.2119 306.827 48.3261 306.827 49.8659V51.1052C306.827 51.9314 306.746 52.6387 306.583 53.2271C306.433 53.8029 306.207 54.2787 305.907 54.6542C305.606 55.0298 305.243 55.3052 304.818 55.4804C304.392 55.6432 303.91 55.7245 303.372 55.7245C302.758 55.7245 302.239 55.5868 301.813 55.3114C301.388 55.0235 301.056 54.6417 300.818 54.166V59.3111H298.283V45.6033ZM302.583 53.5651C303.109 53.5651 303.522 53.3836 303.822 53.0205C304.135 52.645 304.292 52.0065 304.292 51.1052V49.8659C304.292 49.0772 304.135 48.5139 303.822 48.1759C303.522 47.8254 303.109 47.6501 302.583 47.6501C302.02 47.6501 301.582 47.8254 301.269 48.1759C300.968 48.5139 300.818 49.0772 300.818 49.8659V51.1052C300.818 52.0065 300.968 52.645 301.269 53.0205C301.582 53.3836 302.02 53.5651 302.583 53.5651ZM308.755 45.6033H311.084V47.1619C311.321 46.6486 311.684 46.2355 312.173 45.9225C312.661 45.5971 313.218 45.4343 313.844 45.4343C313.969 45.4343 314.082 45.4406 314.182 45.4531C314.282 45.4656 314.37 45.4781 314.445 45.4907C314.532 45.5032 314.608 45.5157 314.67 45.5282V47.8379C314.545 47.8254 314.413 47.8066 314.276 47.7815C314.151 47.769 314 47.7565 313.825 47.744C313.662 47.7315 313.475 47.7252 313.262 47.7252C312.623 47.7252 312.129 47.8942 311.778 48.2322C311.44 48.5577 311.271 49.0209 311.271 49.6218V55.5555H308.755V45.6033ZM319.794 55.7245C318.467 55.7245 317.416 55.3302 316.64 54.5415C315.876 53.7404 315.494 52.5949 315.494 51.1052V49.8659C315.494 49.1774 315.594 48.5577 315.795 48.0069C315.995 47.4561 316.277 46.9929 316.64 46.6173C317.015 46.2292 317.466 45.9351 317.992 45.7348C318.53 45.5345 319.131 45.4343 319.794 45.4343C320.458 45.4343 321.052 45.5345 321.578 45.7348C322.116 45.9351 322.567 46.2292 322.93 46.6173C323.306 46.9929 323.594 47.4561 323.794 48.0069C323.994 48.5577 324.094 49.1774 324.094 49.8659V51.1052C324.094 52.5949 323.706 53.7404 322.93 54.5415C322.167 55.3302 321.121 55.7245 319.794 55.7245ZM319.794 53.5651C320.358 53.5651 320.789 53.3836 321.09 53.0205C321.403 52.645 321.559 52.0065 321.559 51.1052V49.8659C321.559 49.0522 321.403 48.4701 321.09 48.1195C320.789 47.769 320.358 47.5938 319.794 47.5938C319.231 47.5938 318.793 47.769 318.48 48.1195C318.179 48.4701 318.029 49.0522 318.029 49.8659V51.1052C318.029 52.0065 318.179 52.645 318.48 53.0205C318.793 53.3836 319.231 53.5651 319.794 53.5651ZM324.574 45.6033H327.353L329.607 52.4572L331.616 45.6033H334.301L330.902 55.5555H328.349L324.574 45.6033ZM335.79 45.6033H338.306V55.5555H335.79V45.6033ZM337.048 44.8522C336.635 44.8522 336.278 44.7082 335.977 44.4203C335.69 44.1199 335.546 43.7631 335.546 43.35C335.546 42.9369 335.69 42.5864 335.977 42.2984C336.278 41.998 336.635 41.8478 337.048 41.8478C337.461 41.8478 337.811 41.998 338.099 42.2984C338.4 42.5864 338.55 42.9369 338.55 43.35C338.55 43.7631 338.4 44.1199 338.099 44.4203C337.811 44.7082 337.461 44.8522 337.048 44.8522ZM343.907 55.6682C343.369 55.6682 342.887 55.5868 342.461 55.4241C342.035 55.2488 341.672 54.9797 341.372 54.6167C341.071 54.2536 340.84 53.7842 340.677 53.2083C340.527 52.6199 340.452 51.9189 340.452 51.1052V49.8659C340.452 48.3136 340.758 47.1869 341.372 46.4859C341.985 45.7848 342.83 45.4343 343.907 45.4343C344.52 45.4343 345.04 45.5783 345.465 45.8662C345.891 46.1416 346.223 46.5172 346.461 46.9929V42.4111H348.996V55.5555H346.648V53.997C346.398 54.4977 346.054 54.9046 345.616 55.2175C345.19 55.518 344.62 55.6682 343.907 55.6682ZM344.695 53.5088C345.259 53.5088 345.691 53.3272 345.991 52.9642C346.304 52.6012 346.461 51.9815 346.461 51.1052V49.8659C346.461 49.0522 346.304 48.4701 345.991 48.1195C345.691 47.769 345.259 47.5938 344.695 47.5938C344.17 47.5938 343.75 47.769 343.437 48.1195C343.137 48.4701 342.987 49.0522 342.987 49.8659V51.1052C342.987 51.9815 343.137 52.6012 343.437 52.9642C343.75 53.3272 344.17 53.5088 344.695 53.5088ZM355.074 55.7245C354.435 55.7245 353.853 55.6244 353.327 55.4241C352.814 55.2238 352.376 54.9296 352.013 54.5415C351.65 54.1409 351.368 53.6527 351.168 53.0769C350.968 52.501 350.867 51.8438 350.867 51.1052V49.8659C350.867 48.4513 351.237 47.3622 351.975 46.5985C352.726 45.8224 353.728 45.4343 354.98 45.4343C356.232 45.4343 357.227 45.8224 357.965 46.5985C358.717 47.3622 359.092 48.4575 359.092 49.8847V51.2554H353.402C353.415 52.1818 353.565 52.8202 353.853 53.1708C354.154 53.5213 354.56 53.6965 355.074 53.6965C355.487 53.6965 355.8 53.5964 356.013 53.3961C356.225 53.1833 356.363 52.9329 356.426 52.645H358.904C358.767 53.5714 358.379 54.3162 357.74 54.8795C357.102 55.4429 356.213 55.7245 355.074 55.7245ZM355.055 47.4623C354.542 47.4623 354.147 47.6125 353.872 47.913C353.597 48.2009 353.44 48.7329 353.402 49.5091H356.707C356.67 48.7329 356.513 48.2009 356.238 47.913C355.963 47.6125 355.568 47.4623 355.055 47.4623ZM361.017 45.6033H363.346V47.1619C363.584 46.6486 363.947 46.2355 364.435 45.9225C364.923 45.5971 365.48 45.4343 366.106 45.4343C366.231 45.4343 366.344 45.4406 366.444 45.4531C366.544 45.4656 366.632 45.4781 366.707 45.4907C366.795 45.5032 366.87 45.5157 366.932 45.5282V47.8379C366.807 47.8254 366.676 47.8066 366.538 47.7815C366.413 47.769 366.263 47.7565 366.087 47.744C365.925 47.7315 365.737 47.7252 365.524 47.7252C364.886 47.7252 364.391 47.8942 364.041 48.2322C363.703 48.5577 363.534 49.0209 363.534 49.6218V55.5555H361.017V45.6033Z" fill="#100C27"/>
<rect x="144.972" y="78.1667" width="168" height="9" rx="2.88889" fill="#D3D5DC"/>
<rect x="144.972" y="98" width="85" height="8" rx="2.88889" fill="#D3D5DC"/>
<rect x="181.083" y="118" width="61.3889" height="20" rx="4" fill="#876FEC"/>
<rect x="253.306" y="118" width="61.3889" height="20" rx="4" fill="#D3D5DC"/>
<rect x="325.528" y="118" width="61.3889" height="20" rx="4" fill="#D3D5DC"/>
<rect x="181.083" y="150" width="61.3889" height="20" rx="4" fill="#D3D5DC"/>
<rect x="253.306" y="150" width="61.3889" height="20" rx="4" fill="#D3D5DC"/>
<rect x="325.528" y="150" width="61.3889" height="20" rx="4" fill="#D3D5DC"/>
<rect x="181.083" y="182" width="61.3889" height="20" rx="4" fill="#D3D5DC"/>
<rect x="253.306" y="182" width="61.3889" height="20" rx="4" fill="#D3D5DC"/>
<rect x="325.528" y="182" width="61.3889" height="20" rx="4" fill="#D3D5DC"/>
<defs>
<filter id="filter0_dd_932_13757" x="125.472" y="22.5556" width="317.056" height="212.333" filterUnits="userSpaceOnUse" color-interpolation-filters="sRGB">
<feFlood flood-opacity="0" result="BackgroundImageFix"/>
<feColorMatrix in="SourceAlpha" type="matrix" values="0 0 0 0 0 0 0 0 0 0 0 0 0 0 0 0 0 0 127 0" result="hardAlpha"/>
<feMorphology radius="2.16667" operator="erode" in="SourceAlpha" result="effect1_dropShadow_932_13757"/>
<feOffset dy="7.22222"/>
<feGaussianBlur stdDeviation="5.41667"/>
<feComposite in2="hardAlpha" operator="out"/>
<feColorMatrix type="matrix" values="0 0 0 0 0.0666667 0 0 0 0 0.0941176 0 0 0 0 0.152941 0 0 0 0.1 0"/>
<feBlend mode="normal" in2="BackgroundImageFix" result="effect1_dropShadow_932_13757"/>
<feColorMatrix in="SourceAlpha" type="matrix" values="0 0 0 0 0 0 0 0 0 0 0 0 0 0 0 0 0 0 127 0" result="hardAlpha"/>
<feMorphology radius="1.44444" operator="erode" in="SourceAlpha" result="effect2_dropShadow_932_13757"/>
<feOffset dy="2.88889"/>
<feGaussianBlur stdDeviation="2.16667"/>
<feComposite in2="hardAlpha" operator="out"/>
<feColorMatrix type="matrix" values="0 0 0 0 0.0666667 0 0 0 0 0.0941176 0 0 0 0 0.152941 0 0 0 0.06 0"/>
<feBlend mode="normal" in2="effect1_dropShadow_932_13757" result="effect2_dropShadow_932_13757"/>
<feBlend mode="normal" in="SourceGraphic" in2="effect2_dropShadow_932_13757" result="shape"/>
</filter>
</defs>
</svg>
