<svg width="568" height="259" viewBox="0 0 568 259" fill="none" xmlns="http://www.w3.org/2000/svg">
<g filter="url(#filter0_dd_935_13913)">
<rect x="134.139" y="24" width="299.722" height="195" rx="5.77778" fill="white"/>
<rect x="134.5" y="24.3611" width="299" height="194.278" rx="5.41667" stroke="#D3D5DC" stroke-width="0.722222"/>
</g>
<path d="M151.169 55.7247C149.554 55.7247 148.277 55.2177 147.338 54.2037C146.412 53.1897 145.949 51.6374 145.949 49.5468V48.0446C145.949 46.1417 146.412 44.7021 147.338 43.7257C148.277 42.7367 149.554 42.2422 151.169 42.2422C151.945 42.2422 152.627 42.3424 153.216 42.5427C153.804 42.743 154.305 43.0309 154.718 43.4064C155.131 43.782 155.457 44.2389 155.694 44.7772C155.932 45.303 156.089 45.8976 156.164 46.5611H153.479C153.366 45.9227 153.134 45.4282 152.784 45.0777C152.433 44.7271 151.895 44.5519 151.169 44.5519C150.38 44.5519 149.761 44.821 149.31 45.3593C148.859 45.8851 148.634 46.7802 148.634 48.0446V49.5468C148.634 50.2728 148.69 50.8863 148.803 51.387C148.928 51.8752 149.097 52.2696 149.31 52.57C149.523 52.8704 149.786 53.0895 150.099 53.2272C150.412 53.3524 150.768 53.415 151.169 53.415C151.908 53.415 152.44 53.2397 152.765 52.8892C153.103 52.5262 153.341 52.0004 153.479 51.3119H156.164C156.001 52.714 155.513 53.8031 154.699 54.5792C153.885 55.3428 152.709 55.7247 151.169 55.7247ZM160.036 55.6683C159.135 55.6683 158.421 55.418 157.895 54.9172C157.382 54.4165 157.125 53.6779 157.125 52.7014C157.125 51.7 157.42 50.9426 158.008 50.4293C158.596 49.9036 159.479 49.6407 160.656 49.6407H162.721V49.0586C162.721 48.4952 162.602 48.1009 162.364 47.8756C162.139 47.6377 161.751 47.5188 161.2 47.5188C160.674 47.5188 160.305 47.6064 160.092 47.7817C159.892 47.9569 159.779 48.201 159.754 48.514H157.557C157.582 47.5376 157.877 46.7802 158.44 46.2419C159.016 45.7036 159.955 45.4344 161.257 45.4344C162.621 45.4344 163.604 45.7224 164.205 46.2982C164.806 46.8741 165.106 47.7879 165.106 49.0398V55.5557H162.909V53.9971C162.784 54.2224 162.64 54.4415 162.477 54.6543C162.314 54.8546 162.12 55.0299 161.895 55.1801C161.67 55.3303 161.407 55.4493 161.106 55.5369C160.806 55.6245 160.449 55.6683 160.036 55.6683ZM160.806 53.6403C161.419 53.6403 161.889 53.4713 162.214 53.1333C162.552 52.7953 162.721 52.3071 162.721 51.6687V51.3307H160.937C160.412 51.3307 160.042 51.4371 159.829 51.6499C159.629 51.8502 159.529 52.1318 159.529 52.4949C159.529 53.2585 159.955 53.6403 160.806 53.6403ZM170.754 55.5557C170.115 55.5557 169.577 55.4993 169.139 55.3867C168.701 55.2615 168.35 55.0674 168.087 54.8046C167.824 54.5417 167.63 54.1974 167.505 53.7718C167.393 53.3336 167.336 52.7953 167.336 52.1569V42.4112H169.871V52.1569C169.871 52.6701 169.953 53.0207 170.115 53.2084C170.291 53.3837 170.578 53.4713 170.979 53.4713H171.298V55.5557H170.754ZM176.383 55.5557C175.745 55.5557 175.207 55.4993 174.769 55.3867C174.33 55.2615 173.98 55.0674 173.717 54.8046C173.454 54.5417 173.26 54.1974 173.135 53.7718C173.022 53.3336 172.966 52.7953 172.966 52.1569V42.4112H175.501V52.1569C175.501 52.6701 175.582 53.0207 175.745 53.2084C175.92 53.3837 176.208 53.4713 176.609 53.4713H176.928V55.5557H176.383ZM183.515 42.4112H192.134V44.6458H186.201V47.8568H191.44V50.1101H186.201V55.5557H183.515V42.4112ZM195.813 55.6683C194.911 55.6683 194.198 55.418 193.672 54.9172C193.159 54.4165 192.902 53.6779 192.902 52.7014C192.902 51.7 193.196 50.9426 193.785 50.4293C194.373 49.9036 195.256 49.6407 196.432 49.6407H198.498V49.0586C198.498 48.4952 198.379 48.1009 198.141 47.8756C197.916 47.6377 197.528 47.5188 196.977 47.5188C196.451 47.5188 196.082 47.6064 195.869 47.7817C195.669 47.9569 195.556 48.201 195.531 48.514H193.334C193.359 47.5376 193.653 46.7802 194.217 46.2419C194.793 45.7036 195.731 45.4344 197.033 45.4344C198.398 45.4344 199.381 45.7224 199.981 46.2982C200.582 46.8741 200.883 47.7879 200.883 49.0398V55.5557H198.686V53.9971C198.561 54.2224 198.417 54.4415 198.254 54.6543C198.091 54.8546 197.897 55.0299 197.672 55.1801C197.446 55.3303 197.184 55.4493 196.883 55.5369C196.583 55.6245 196.226 55.6683 195.813 55.6683ZM196.583 53.6403C197.196 53.6403 197.666 53.4713 197.991 53.1333C198.329 52.7953 198.498 52.3071 198.498 51.6687V51.3307H196.714C196.188 51.3307 195.819 51.4371 195.606 51.6499C195.406 51.8502 195.306 52.1318 195.306 52.4949C195.306 53.2585 195.731 53.6403 196.583 53.6403ZM206.869 55.7247C206.23 55.7247 205.648 55.6245 205.122 55.4242C204.609 55.2239 204.171 54.9297 203.808 54.5417C203.445 54.1411 203.163 53.6528 202.963 53.077C202.762 52.5011 202.662 51.8439 202.662 51.1053V49.866C202.662 49.1775 202.762 48.5578 202.963 48.007C203.163 47.4562 203.445 46.993 203.808 46.6174C204.171 46.2294 204.609 45.9352 205.122 45.7349C205.648 45.5346 206.23 45.4344 206.869 45.4344C207.507 45.4344 208.07 45.5221 208.559 45.6973C209.047 45.8726 209.46 46.1167 209.798 46.4297C210.136 46.7426 210.392 47.1119 210.568 47.5376C210.756 47.9632 210.862 48.4201 210.887 48.9083H208.333C208.271 48.5453 208.127 48.2386 207.901 47.9882C207.676 47.7253 207.332 47.5939 206.869 47.5939C206.355 47.5939 205.948 47.7691 205.648 48.1197C205.348 48.4702 205.197 49.0523 205.197 49.866V51.1053C205.197 52.0067 205.348 52.6451 205.648 53.0207C205.948 53.3837 206.355 53.5652 206.869 53.5652C207.332 53.5652 207.676 53.44 207.901 53.1897C208.127 52.9268 208.271 52.6138 208.333 52.2508H210.887C210.849 52.764 210.737 53.2335 210.549 53.6591C210.361 54.0722 210.098 54.4353 209.76 54.7482C209.435 55.0612 209.028 55.3053 208.54 55.4806C208.064 55.6433 207.507 55.7247 206.869 55.7247ZM216.61 55.5557C215.971 55.5557 215.433 55.4993 214.995 55.3867C214.557 55.2615 214.206 55.0674 213.943 54.8046C213.68 54.5417 213.486 54.1974 213.361 53.7718C213.249 53.3336 213.192 52.7953 213.192 52.1569V47.6878H211.84V45.6034H213.192V43.3501H215.708V45.6034H217.661V47.6878H215.708V52.1569C215.708 52.6701 215.796 53.0207 215.971 53.2084C216.147 53.3837 216.435 53.4713 216.835 53.4713H217.661V55.5557H216.61ZM223.301 55.7247C221.974 55.7247 220.923 55.3303 220.147 54.5417C219.383 53.7405 219.001 52.595 219.001 51.1053V49.866C219.001 49.1775 219.101 48.5578 219.302 48.007C219.502 47.4562 219.784 46.993 220.147 46.6174C220.522 46.2294 220.973 45.9352 221.499 45.7349C222.037 45.5346 222.638 45.4344 223.301 45.4344C223.965 45.4344 224.559 45.5346 225.085 45.7349C225.623 45.9352 226.074 46.2294 226.437 46.6174C226.813 46.993 227.101 47.4562 227.301 48.007C227.501 48.5578 227.601 49.1775 227.601 49.866V51.1053C227.601 52.595 227.213 53.7405 226.437 54.5417C225.674 55.3303 224.628 55.7247 223.301 55.7247ZM223.301 53.5652C223.865 53.5652 224.297 53.3837 224.597 53.0207C224.91 52.6451 225.066 52.0067 225.066 51.1053V49.866C225.066 49.0523 224.91 48.4702 224.597 48.1197C224.297 47.7691 223.865 47.5939 223.301 47.5939C222.738 47.5939 222.3 47.7691 221.987 48.1197C221.686 48.4702 221.536 49.0523 221.536 49.866V51.1053C221.536 52.0067 221.686 52.6451 221.987 53.0207C222.3 53.3837 222.738 53.5652 223.301 53.5652ZM229.536 45.6034H231.865V47.162C232.103 46.6487 232.466 46.2356 232.954 45.9227C233.442 45.5972 233.999 45.4344 234.625 45.4344C234.75 45.4344 234.863 45.4407 234.963 45.4532C235.063 45.4657 235.151 45.4783 235.226 45.4908C235.314 45.5033 235.389 45.5158 235.451 45.5283V47.838C235.326 47.8255 235.195 47.8067 235.057 47.7817C234.932 47.7691 234.782 47.7566 234.606 47.7441C234.444 47.7316 234.256 47.7253 234.043 47.7253C233.404 47.7253 232.91 47.8943 232.559 48.2323C232.221 48.5578 232.052 49.021 232.052 49.6219V55.5557H229.536V45.6034Z" fill="#100C27"/>
<rect x="144.972" y="78.1667" width="168" height="9" rx="2.88889" fill="#D3D5DC"/>
<rect x="144.972" y="98" width="85" height="8" rx="2.88889" fill="#D3D5DC"/>
<rect x="181.083" y="118" width="61.3889" height="20" rx="4" fill="#876FEC"/>
<rect x="253.306" y="118" width="61.3889" height="20" rx="4" fill="#D3D5DC"/>
<rect x="325.528" y="118" width="61.3889" height="20" rx="4" fill="#D3D5DC"/>
<rect x="181.083" y="150" width="61.3889" height="20" rx="4" fill="#D3D5DC"/>
<rect x="253.306" y="150" width="61.3889" height="20" rx="4" fill="#D3D5DC"/>
<rect x="325.528" y="150" width="61.3889" height="20" rx="4" fill="#D3D5DC"/>
<rect x="181.083" y="182" width="61.3889" height="20" rx="4" fill="#D3D5DC"/>
<rect x="253.306" y="182" width="61.3889" height="20" rx="4" fill="#D3D5DC"/>
<rect x="325.528" y="182" width="61.3889" height="20" rx="4" fill="#D3D5DC"/>
<defs>
<filter id="filter0_dd_935_13913" x="125.472" y="22.5556" width="317.056" height="212.333" filterUnits="userSpaceOnUse" color-interpolation-filters="sRGB">
<feFlood flood-opacity="0" result="BackgroundImageFix"/>
<feColorMatrix in="SourceAlpha" type="matrix" values="0 0 0 0 0 0 0 0 0 0 0 0 0 0 0 0 0 0 127 0" result="hardAlpha"/>
<feMorphology radius="2.16667" operator="erode" in="SourceAlpha" result="effect1_dropShadow_935_13913"/>
<feOffset dy="7.22222"/>
<feGaussianBlur stdDeviation="5.41667"/>
<feComposite in2="hardAlpha" operator="out"/>
<feColorMatrix type="matrix" values="0 0 0 0 0.0666667 0 0 0 0 0.0941176 0 0 0 0 0.152941 0 0 0 0.1 0"/>
<feBlend mode="normal" in2="BackgroundImageFix" result="effect1_dropShadow_935_13913"/>
<feColorMatrix in="SourceAlpha" type="matrix" values="0 0 0 0 0 0 0 0 0 0 0 0 0 0 0 0 0 0 127 0" result="hardAlpha"/>
<feMorphology radius="1.44444" operator="erode" in="SourceAlpha" result="effect2_dropShadow_935_13913"/>
<feOffset dy="2.88889"/>
<feGaussianBlur stdDeviation="2.16667"/>
<feComposite in2="hardAlpha" operator="out"/>
<feColorMatrix type="matrix" values="0 0 0 0 0.0666667 0 0 0 0 0.0941176 0 0 0 0 0.152941 0 0 0 0.06 0"/>
<feBlend mode="normal" in2="effect1_dropShadow_935_13913" result="effect2_dropShadow_935_13913"/>
<feBlend mode="normal" in="SourceGraphic" in2="effect2_dropShadow_935_13913" result="shape"/>
</filter>
</defs>
</svg>
