<svg width="568" height="259" viewBox="0 0 568 259" fill="none" xmlns="http://www.w3.org/2000/svg">
<g filter="url(#filter0_dd_935_14069)">
<rect x="134.139" y="24" width="299.722" height="195" rx="5.77778" fill="white"/>
<rect x="134.5" y="24.3611" width="299" height="194.278" rx="5.41667" stroke="#D3D5DC" stroke-width="0.722222"/>
</g>
<path d="M150.775 55.7247C149.898 55.7247 149.147 55.637 148.521 55.4618C147.895 55.274 147.382 55.0111 146.982 54.6731C146.581 54.3226 146.281 53.9032 146.08 53.415C145.88 52.9268 145.774 52.3822 145.761 51.7813H148.465C148.49 52.2946 148.665 52.6952 148.991 52.9831C149.329 53.271 149.923 53.415 150.775 53.415C151.626 53.415 152.221 53.2836 152.559 53.0207C152.909 52.7453 153.084 52.3947 153.084 51.9691C153.084 51.7187 153.041 51.4997 152.953 51.3119C152.865 51.1116 152.709 50.9363 152.484 50.7861C152.258 50.6359 151.958 50.4919 151.582 50.3542C151.207 50.2165 150.731 50.0788 150.155 49.9411C149.454 49.7658 148.847 49.5656 148.334 49.3402C147.833 49.1024 147.414 48.827 147.076 48.514C146.738 48.201 146.487 47.838 146.324 47.4249C146.162 46.9993 146.08 46.5048 146.08 45.9414C146.08 45.3906 146.174 44.8899 146.362 44.4392C146.55 43.9886 146.838 43.6005 147.226 43.275C147.614 42.9495 148.102 42.6991 148.69 42.5239C149.279 42.3361 149.974 42.2422 150.775 42.2422C152.377 42.2422 153.554 42.5927 154.305 43.2938C155.069 43.9948 155.463 44.94 155.488 46.1292H152.803C152.778 45.641 152.609 45.2592 152.296 44.9838C151.995 44.6958 151.488 44.5519 150.775 44.5519C150.061 44.5519 149.548 44.6833 149.235 44.9462C148.922 45.2091 148.766 45.5408 148.766 45.9414C148.766 46.1793 148.809 46.3858 148.897 46.5611C148.997 46.7364 149.154 46.8928 149.366 47.0306C149.579 47.1683 149.861 47.2997 150.211 47.4249C150.562 47.5376 151 47.6565 151.526 47.7817C152.277 47.9694 152.915 48.1885 153.441 48.4389C153.979 48.6767 154.418 48.9584 154.756 49.2839C155.106 49.6094 155.363 49.9912 155.526 50.4293C155.688 50.8675 155.77 51.3807 155.77 51.9691C155.77 52.5324 155.669 53.0457 155.469 53.5089C155.281 53.9596 154.981 54.3539 154.568 54.6919C154.167 55.0174 153.648 55.274 153.009 55.4618C152.383 55.637 151.639 55.7247 150.775 55.7247ZM158.063 42.4112H160.767L164.485 49.9036L168.203 42.4112H170.757V55.5557H168.203V46.9179L165.367 52.7578H163.452L160.617 46.9179V55.5557H158.063V42.4112ZM178.006 55.7247C177.13 55.7247 176.379 55.637 175.753 55.4618C175.127 55.274 174.614 55.0111 174.213 54.6731C173.812 54.3226 173.512 53.9032 173.312 53.415C173.111 52.9268 173.005 52.3822 172.993 51.7813H175.697C175.722 52.2946 175.897 52.6952 176.222 52.9831C176.56 53.271 177.155 53.415 178.006 53.415C178.857 53.415 179.452 53.2836 179.79 53.0207C180.141 52.7453 180.316 52.3947 180.316 51.9691C180.316 51.7187 180.272 51.4997 180.184 51.3119C180.097 51.1116 179.94 50.9363 179.715 50.7861C179.49 50.6359 179.189 50.4919 178.814 50.3542C178.438 50.2165 177.962 50.0788 177.387 49.9411C176.685 49.7658 176.078 49.5656 175.565 49.3402C175.064 49.1024 174.645 48.827 174.307 48.514C173.969 48.201 173.719 47.838 173.556 47.4249C173.393 46.9993 173.312 46.5048 173.312 45.9414C173.312 45.3906 173.406 44.8899 173.593 44.4392C173.781 43.9886 174.069 43.6005 174.457 43.275C174.845 42.9495 175.333 42.6991 175.922 42.5239C176.51 42.3361 177.205 42.2422 178.006 42.2422C179.609 42.2422 180.785 42.5927 181.536 43.2938C182.3 43.9948 182.694 44.94 182.719 46.1292H180.034C180.009 45.641 179.84 45.2592 179.527 44.9838C179.227 44.6958 178.72 44.5519 178.006 44.5519C177.293 44.5519 176.779 44.6833 176.466 44.9462C176.153 45.2091 175.997 45.5408 175.997 45.9414C175.997 46.1793 176.041 46.3858 176.128 46.5611C176.229 46.7364 176.385 46.8928 176.598 47.0306C176.811 47.1683 177.092 47.2997 177.443 47.4249C177.793 47.5376 178.232 47.6565 178.757 47.7817C179.508 47.9694 180.147 48.1885 180.673 48.4389C181.211 48.6767 181.649 48.9584 181.987 49.2839C182.338 49.6094 182.594 49.9912 182.757 50.4293C182.92 50.8675 183.001 51.3807 183.001 51.9691C183.001 52.5324 182.901 53.0457 182.701 53.5089C182.513 53.9596 182.212 54.3539 181.799 54.6919C181.399 55.0174 180.879 55.274 180.241 55.4618C179.615 55.637 178.87 55.7247 178.006 55.7247ZM189.989 42.4112H198.608V44.6458H192.674V47.8568H197.913V50.1101H192.674V55.5557H189.989V42.4112ZM202.286 55.6683C201.385 55.6683 200.671 55.418 200.145 54.9172C199.632 54.4165 199.376 53.6779 199.376 52.7014C199.376 51.7 199.67 50.9426 200.258 50.4293C200.847 49.9036 201.729 49.6407 202.906 49.6407H204.971V49.0586C204.971 48.4952 204.852 48.1009 204.615 47.8756C204.389 47.6377 204.001 47.5188 203.45 47.5188C202.925 47.5188 202.555 47.6064 202.342 47.7817C202.142 47.9569 202.03 48.201 202.004 48.514H199.807C199.833 47.5376 200.127 46.7802 200.69 46.2419C201.266 45.7036 202.205 45.4344 203.507 45.4344C204.871 45.4344 205.854 45.7224 206.455 46.2982C207.056 46.8741 207.356 47.7879 207.356 49.0398V55.5557H205.159V53.9971C205.034 54.2224 204.89 54.4415 204.727 54.6543C204.565 54.8546 204.37 55.0299 204.145 55.1801C203.92 55.3303 203.657 55.4493 203.356 55.5369C203.056 55.6245 202.699 55.6683 202.286 55.6683ZM203.056 53.6403C203.669 53.6403 204.139 53.4713 204.464 53.1333C204.802 52.7953 204.971 52.3071 204.971 51.6687V51.3307H203.187C202.662 51.3307 202.292 51.4371 202.08 51.6499C201.879 51.8502 201.779 52.1318 201.779 52.4949C201.779 53.2585 202.205 53.6403 203.056 53.6403ZM213.342 55.7247C212.703 55.7247 212.121 55.6245 211.596 55.4242C211.082 55.2239 210.644 54.9297 210.281 54.5417C209.918 54.1411 209.636 53.6528 209.436 53.077C209.236 52.5011 209.136 51.8439 209.136 51.1053V49.866C209.136 49.1775 209.236 48.5578 209.436 48.007C209.636 47.4562 209.918 46.993 210.281 46.6174C210.644 46.2294 211.082 45.9352 211.596 45.7349C212.121 45.5346 212.703 45.4344 213.342 45.4344C213.98 45.4344 214.544 45.5221 215.032 45.6973C215.52 45.8726 215.933 46.1167 216.271 46.4297C216.609 46.7426 216.866 47.1119 217.041 47.5376C217.229 47.9632 217.335 48.4201 217.36 48.9083H214.807C214.744 48.5453 214.6 48.2386 214.375 47.9882C214.149 47.7253 213.805 47.5939 213.342 47.5939C212.829 47.5939 212.422 47.7691 212.121 48.1197C211.821 48.4702 211.671 49.0523 211.671 49.866V51.1053C211.671 52.0067 211.821 52.6451 212.121 53.0207C212.422 53.3837 212.829 53.5652 213.342 53.5652C213.805 53.5652 214.149 53.44 214.375 53.1897C214.6 52.9268 214.744 52.6138 214.807 52.2508H217.36C217.323 52.764 217.21 53.2335 217.022 53.6591C216.835 54.0722 216.572 54.4353 216.234 54.7482C215.908 55.0612 215.501 55.3053 215.013 55.4806C214.537 55.6433 213.98 55.7247 213.342 55.7247ZM223.083 55.5557C222.445 55.5557 221.906 55.4993 221.468 55.3867C221.03 55.2615 220.68 55.0674 220.417 54.8046C220.154 54.5417 219.96 54.1974 219.835 53.7718C219.722 53.3336 219.666 52.7953 219.666 52.1569V47.6878H218.314V45.6034H219.666V43.3501H222.182V45.6034H224.135V47.6878H222.182V52.1569C222.182 52.6701 222.269 53.0207 222.445 53.2084C222.62 53.3837 222.908 53.4713 223.308 53.4713H224.135V55.5557H223.083ZM229.775 55.7247C228.448 55.7247 227.396 55.3303 226.62 54.5417C225.856 53.7405 225.475 52.595 225.475 51.1053V49.866C225.475 49.1775 225.575 48.5578 225.775 48.007C225.975 47.4562 226.257 46.993 226.62 46.6174C226.996 46.2294 227.446 45.9352 227.972 45.7349C228.51 45.5346 229.111 45.4344 229.775 45.4344C230.438 45.4344 231.033 45.5346 231.559 45.7349C232.097 45.9352 232.547 46.2294 232.911 46.6174C233.286 46.993 233.574 47.4562 233.774 48.007C233.975 48.5578 234.075 49.1775 234.075 49.866V51.1053C234.075 52.595 233.687 53.7405 232.911 54.5417C232.147 55.3303 231.102 55.7247 229.775 55.7247ZM229.775 53.5652C230.338 53.5652 230.77 53.3837 231.07 53.0207C231.383 52.6451 231.54 52.0067 231.54 51.1053V49.866C231.54 49.0523 231.383 48.4702 231.07 48.1197C230.77 47.7691 230.338 47.5939 229.775 47.5939C229.211 47.5939 228.773 47.7691 228.46 48.1197C228.16 48.4702 228.01 49.0523 228.01 49.866V51.1053C228.01 52.0067 228.16 52.6451 228.46 53.0207C228.773 53.3837 229.211 53.5652 229.775 53.5652ZM236.01 45.6034H238.338V47.162C238.576 46.6487 238.939 46.2356 239.427 45.9227C239.915 45.5972 240.472 45.4344 241.098 45.4344C241.224 45.4344 241.336 45.4407 241.436 45.4532C241.536 45.4657 241.624 45.4783 241.699 45.4908C241.787 45.5033 241.862 45.5158 241.925 45.5283V47.838C241.799 47.8255 241.668 47.8067 241.53 47.7817C241.405 47.7691 241.255 47.7566 241.08 47.7441C240.917 47.7316 240.729 47.7253 240.516 47.7253C239.878 47.7253 239.383 47.8943 239.033 48.2323C238.695 48.5578 238.526 49.021 238.526 49.6219V55.5557H236.01V45.6034Z" fill="#100C27"/>
<rect x="144.972" y="78.1667" width="168" height="9" rx="2.88889" fill="#D3D5DC"/>
<rect x="144.972" y="98" width="85" height="8" rx="2.88889" fill="#D3D5DC"/>
<rect x="181.083" y="118" width="61.3889" height="20" rx="4" fill="#876FEC"/>
<rect x="253.306" y="118" width="61.3889" height="20" rx="4" fill="#D3D5DC"/>
<rect x="325.528" y="118" width="61.3889" height="20" rx="4" fill="#D3D5DC"/>
<rect x="181.083" y="150" width="61.3889" height="20" rx="4" fill="#D3D5DC"/>
<rect x="253.306" y="150" width="61.3889" height="20" rx="4" fill="#D3D5DC"/>
<rect x="325.528" y="150" width="61.3889" height="20" rx="4" fill="#D3D5DC"/>
<rect x="181.083" y="182" width="61.3889" height="20" rx="4" fill="#D3D5DC"/>
<rect x="253.306" y="182" width="61.3889" height="20" rx="4" fill="#D3D5DC"/>
<rect x="325.528" y="182" width="61.3889" height="20" rx="4" fill="#D3D5DC"/>
<defs>
<filter id="filter0_dd_935_14069" x="125.472" y="22.5556" width="317.056" height="212.333" filterUnits="userSpaceOnUse" color-interpolation-filters="sRGB">
<feFlood flood-opacity="0" result="BackgroundImageFix"/>
<feColorMatrix in="SourceAlpha" type="matrix" values="0 0 0 0 0 0 0 0 0 0 0 0 0 0 0 0 0 0 127 0" result="hardAlpha"/>
<feMorphology radius="2.16667" operator="erode" in="SourceAlpha" result="effect1_dropShadow_935_14069"/>
<feOffset dy="7.22222"/>
<feGaussianBlur stdDeviation="5.41667"/>
<feComposite in2="hardAlpha" operator="out"/>
<feColorMatrix type="matrix" values="0 0 0 0 0.0666667 0 0 0 0 0.0941176 0 0 0 0 0.152941 0 0 0 0.1 0"/>
<feBlend mode="normal" in2="BackgroundImageFix" result="effect1_dropShadow_935_14069"/>
<feColorMatrix in="SourceAlpha" type="matrix" values="0 0 0 0 0 0 0 0 0 0 0 0 0 0 0 0 0 0 127 0" result="hardAlpha"/>
<feMorphology radius="1.44444" operator="erode" in="SourceAlpha" result="effect2_dropShadow_935_14069"/>
<feOffset dy="2.88889"/>
<feGaussianBlur stdDeviation="2.16667"/>
<feComposite in2="hardAlpha" operator="out"/>
<feColorMatrix type="matrix" values="0 0 0 0 0.0666667 0 0 0 0 0.0941176 0 0 0 0 0.152941 0 0 0 0.06 0"/>
<feBlend mode="normal" in2="effect1_dropShadow_935_14069" result="effect2_dropShadow_935_14069"/>
<feBlend mode="normal" in="SourceGraphic" in2="effect2_dropShadow_935_14069" result="shape"/>
</filter>
</defs>
</svg>
