<svg width="568" height="259" viewBox="0 0 568 259" fill="none" xmlns="http://www.w3.org/2000/svg">
<g filter="url(#filter0_dd_935_13991)">
<rect x="134.139" y="24" width="299.722" height="195" rx="5.77778" fill="white"/>
<rect x="134.5" y="24.3611" width="299" height="194.278" rx="5.41667" stroke="#D3D5DC" stroke-width="0.722222"/>
</g>
<path d="M146.418 42.4112H149.104V47.669H153.986V42.4112H156.671V55.5557H153.986V49.9223H149.104V55.5557H146.418V42.4112ZM162.139 44.6458H158.365V42.4112H168.58V44.6458H164.805V55.5557H162.139V44.6458ZM172.848 44.6458H169.074V42.4112H179.289V44.6458H175.515V55.5557H172.848V44.6458ZM180.985 42.4112H185.754C187.494 42.4112 188.79 42.8056 189.641 43.5942C190.493 44.3829 190.918 45.447 190.918 46.7864C190.918 48.1384 190.493 49.2088 189.641 49.9974C188.79 50.7861 187.494 51.1804 185.754 51.1804H183.67V55.5557H180.985V42.4112ZM185.754 48.9271C186.643 48.9271 187.275 48.7518 187.651 48.4013C188.039 48.0383 188.233 47.5 188.233 46.7864C188.233 46.0729 188.039 45.5408 187.651 45.1903C187.275 44.8273 186.643 44.6458 185.754 44.6458H183.67V48.9271H185.754ZM197.69 42.4112H206.309V44.6458H200.376V47.8568H205.615V50.1101H200.376V55.5557H197.69V42.4112ZM209.988 55.6683C209.087 55.6683 208.373 55.418 207.847 54.9172C207.334 54.4165 207.077 53.6779 207.077 52.7014C207.077 51.7 207.372 50.9426 207.96 50.4293C208.548 49.9036 209.431 49.6407 210.608 49.6407H212.673V49.0586C212.673 48.4952 212.554 48.1009 212.316 47.8756C212.091 47.6377 211.703 47.5188 211.152 47.5188C210.626 47.5188 210.257 47.6064 210.044 47.7817C209.844 47.9569 209.731 48.201 209.706 48.514H207.509C207.534 47.5376 207.829 46.7802 208.392 46.2419C208.968 45.7036 209.907 45.4344 211.209 45.4344C212.573 45.4344 213.556 45.7224 214.157 46.2982C214.758 46.8741 215.058 47.7879 215.058 49.0398V55.5557H212.861V53.9971C212.736 54.2224 212.592 54.4415 212.429 54.6543C212.266 54.8546 212.072 55.0299 211.847 55.1801C211.622 55.3303 211.359 55.4493 211.058 55.5369C210.758 55.6245 210.401 55.6683 209.988 55.6683ZM210.758 53.6403C211.371 53.6403 211.841 53.4713 212.166 53.1333C212.504 52.7953 212.673 52.3071 212.673 51.6687V51.3307H210.889C210.364 51.3307 209.994 51.4371 209.781 51.6499C209.581 51.8502 209.481 52.1318 209.481 52.4949C209.481 53.2585 209.907 53.6403 210.758 53.6403ZM221.044 55.7247C220.405 55.7247 219.823 55.6245 219.297 55.4242C218.784 55.2239 218.346 54.9297 217.983 54.5417C217.62 54.1411 217.338 53.6528 217.138 53.077C216.938 52.5011 216.837 51.8439 216.837 51.1053V49.866C216.837 49.1775 216.938 48.5578 217.138 48.007C217.338 47.4562 217.62 46.993 217.983 46.6174C218.346 46.2294 218.784 45.9352 219.297 45.7349C219.823 45.5346 220.405 45.4344 221.044 45.4344C221.682 45.4344 222.245 45.5221 222.734 45.6973C223.222 45.8726 223.635 46.1167 223.973 46.4297C224.311 46.7426 224.568 47.1119 224.743 47.5376C224.931 47.9632 225.037 48.4201 225.062 48.9083H222.508C222.446 48.5453 222.302 48.2386 222.076 47.9882C221.851 47.7253 221.507 47.5939 221.044 47.5939C220.53 47.5939 220.124 47.7691 219.823 48.1197C219.523 48.4702 219.372 49.0523 219.372 49.866V51.1053C219.372 52.0067 219.523 52.6451 219.823 53.0207C220.124 53.3837 220.53 53.5652 221.044 53.5652C221.507 53.5652 221.851 53.44 222.076 53.1897C222.302 52.9268 222.446 52.6138 222.508 52.2508H225.062C225.025 52.764 224.912 53.2335 224.724 53.6591C224.536 54.0722 224.273 54.4353 223.935 54.7482C223.61 55.0612 223.203 55.3053 222.715 55.4806C222.239 55.6433 221.682 55.7247 221.044 55.7247ZM230.785 55.5557C230.146 55.5557 229.608 55.4993 229.17 55.3867C228.732 55.2615 228.381 55.0674 228.118 54.8046C227.856 54.5417 227.662 54.1974 227.536 53.7718C227.424 53.3336 227.367 52.7953 227.367 52.1569V47.6878H226.015V45.6034H227.367V43.3501H229.884V45.6034H231.836V47.6878H229.884V52.1569C229.884 52.6701 229.971 53.0207 230.146 53.2084C230.322 53.3837 230.61 53.4713 231.01 53.4713H231.836V55.5557H230.785ZM237.476 55.7247C236.149 55.7247 235.098 55.3303 234.322 54.5417C233.558 53.7405 233.176 52.595 233.176 51.1053V49.866C233.176 49.1775 233.276 48.5578 233.477 48.007C233.677 47.4562 233.959 46.993 234.322 46.6174C234.697 46.2294 235.148 45.9352 235.674 45.7349C236.212 45.5346 236.813 45.4344 237.476 45.4344C238.14 45.4344 238.735 45.5346 239.26 45.7349C239.799 45.9352 240.249 46.2294 240.612 46.6174C240.988 46.993 241.276 47.4562 241.476 48.007C241.676 48.5578 241.777 49.1775 241.777 49.866V51.1053C241.777 52.595 241.388 53.7405 240.612 54.5417C239.849 55.3303 238.803 55.7247 237.476 55.7247ZM237.476 53.5652C238.04 53.5652 238.472 53.3837 238.772 53.0207C239.085 52.6451 239.242 52.0067 239.242 51.1053V49.866C239.242 49.0523 239.085 48.4702 238.772 48.1197C238.472 47.7691 238.04 47.5939 237.476 47.5939C236.913 47.5939 236.475 47.7691 236.162 48.1197C235.862 48.4702 235.711 49.0523 235.711 49.866V51.1053C235.711 52.0067 235.862 52.6451 236.162 53.0207C236.475 53.3837 236.913 53.5652 237.476 53.5652ZM243.711 45.6034H246.04V47.162C246.278 46.6487 246.641 46.2356 247.129 45.9227C247.617 45.5972 248.174 45.4344 248.8 45.4344C248.925 45.4344 249.038 45.4407 249.138 45.4532C249.238 45.4657 249.326 45.4783 249.401 45.4908C249.489 45.5033 249.564 45.5158 249.626 45.5283V47.838C249.501 47.8255 249.37 47.8067 249.232 47.7817C249.107 47.7691 248.957 47.7566 248.781 47.7441C248.619 47.7316 248.431 47.7253 248.218 47.7253C247.58 47.7253 247.085 47.8943 246.735 48.2323C246.397 48.5578 246.228 49.021 246.228 49.6219V55.5557H243.711V45.6034Z" fill="#100C27"/>
<rect x="144.972" y="78.1667" width="168" height="9" rx="2.88889" fill="#D3D5DC"/>
<rect x="144.972" y="98" width="85" height="8" rx="2.88889" fill="#D3D5DC"/>
<rect x="181.083" y="118" width="61.3889" height="20" rx="4" fill="#876FEC"/>
<rect x="253.306" y="118" width="61.3889" height="20" rx="4" fill="#D3D5DC"/>
<rect x="325.528" y="118" width="61.3889" height="20" rx="4" fill="#D3D5DC"/>
<rect x="181.083" y="150" width="61.3889" height="20" rx="4" fill="#D3D5DC"/>
<rect x="253.306" y="150" width="61.3889" height="20" rx="4" fill="#D3D5DC"/>
<rect x="325.528" y="150" width="61.3889" height="20" rx="4" fill="#D3D5DC"/>
<rect x="181.083" y="182" width="61.3889" height="20" rx="4" fill="#D3D5DC"/>
<rect x="253.306" y="182" width="61.3889" height="20" rx="4" fill="#D3D5DC"/>
<rect x="325.528" y="182" width="61.3889" height="20" rx="4" fill="#D3D5DC"/>
<defs>
<filter id="filter0_dd_935_13991" x="125.472" y="22.5556" width="317.056" height="212.333" filterUnits="userSpaceOnUse" color-interpolation-filters="sRGB">
<feFlood flood-opacity="0" result="BackgroundImageFix"/>
<feColorMatrix in="SourceAlpha" type="matrix" values="0 0 0 0 0 0 0 0 0 0 0 0 0 0 0 0 0 0 127 0" result="hardAlpha"/>
<feMorphology radius="2.16667" operator="erode" in="SourceAlpha" result="effect1_dropShadow_935_13991"/>
<feOffset dy="7.22222"/>
<feGaussianBlur stdDeviation="5.41667"/>
<feComposite in2="hardAlpha" operator="out"/>
<feColorMatrix type="matrix" values="0 0 0 0 0.0666667 0 0 0 0 0.0941176 0 0 0 0 0.152941 0 0 0 0.1 0"/>
<feBlend mode="normal" in2="BackgroundImageFix" result="effect1_dropShadow_935_13991"/>
<feColorMatrix in="SourceAlpha" type="matrix" values="0 0 0 0 0 0 0 0 0 0 0 0 0 0 0 0 0 0 127 0" result="hardAlpha"/>
<feMorphology radius="1.44444" operator="erode" in="SourceAlpha" result="effect2_dropShadow_935_13991"/>
<feOffset dy="2.88889"/>
<feGaussianBlur stdDeviation="2.16667"/>
<feComposite in2="hardAlpha" operator="out"/>
<feColorMatrix type="matrix" values="0 0 0 0 0.0666667 0 0 0 0 0.0941176 0 0 0 0 0.152941 0 0 0 0.06 0"/>
<feBlend mode="normal" in2="effect1_dropShadow_935_13991" result="effect2_dropShadow_935_13991"/>
<feBlend mode="normal" in="SourceGraphic" in2="effect2_dropShadow_935_13991" result="shape"/>
</filter>
</defs>
</svg>
