<svg width="568" height="259" viewBox="0 0 568 259" fill="none" xmlns="http://www.w3.org/2000/svg">
<g filter="url(#filter0_dd_2_411)">
<rect x="134.139" y="24" width="299.722" height="195" rx="5.77778" fill="white"/>
<rect x="134.5" y="24.3611" width="299" height="194.278" rx="5.41667" stroke="#D3D5DC" stroke-width="0.722222"/>
</g>
<path d="M149.667 42.4111H152.484L157.047 55.5556H154.174L153.291 52.9455H148.784L147.883 55.5556H145.104L149.667 42.4111ZM152.54 50.6921L151.038 45.7536L149.517 50.6921H152.54ZM162.161 55.7246C161.523 55.7246 160.941 55.6244 160.415 55.4241C159.902 55.2238 159.464 54.9296 159.101 54.5416C158.738 54.141 158.456 53.6528 158.256 53.0769C158.055 52.5011 157.955 51.8438 157.955 51.1052V49.8659C157.955 49.1774 158.055 48.5577 158.256 48.0069C158.456 47.4561 158.738 46.9929 159.101 46.6174C159.464 46.2293 159.902 45.9351 160.415 45.7348C160.941 45.5345 161.523 45.4344 162.161 45.4344C162.8 45.4344 163.363 45.522 163.851 45.6972C164.34 45.8725 164.753 46.1166 165.091 46.4296C165.429 46.7425 165.685 47.1118 165.861 47.5375C166.048 47.9631 166.155 48.42 166.18 48.9082H163.626C163.563 48.5452 163.42 48.2385 163.194 47.9881C162.969 47.7252 162.625 47.5938 162.161 47.5938C161.648 47.5938 161.241 47.7691 160.941 48.1196C160.64 48.4701 160.49 49.0522 160.49 49.8659V51.1052C160.49 52.0066 160.64 52.645 160.941 53.0206C161.241 53.3836 161.648 53.5651 162.161 53.5651C162.625 53.5651 162.969 53.4399 163.194 53.1896C163.42 52.9267 163.563 52.6137 163.626 52.2507H166.18C166.142 52.7639 166.03 53.2334 165.842 53.659C165.654 54.0721 165.391 54.4352 165.053 54.7481C164.728 55.0611 164.321 55.3052 163.833 55.4805C163.357 55.6432 162.8 55.7246 162.161 55.7246ZM171.55 55.7246C170.912 55.7246 170.33 55.6244 169.804 55.4241C169.291 55.2238 168.853 54.9296 168.49 54.5416C168.126 54.141 167.845 53.6528 167.645 53.0769C167.444 52.5011 167.344 51.8438 167.344 51.1052V49.8659C167.344 49.1774 167.444 48.5577 167.645 48.0069C167.845 47.4561 168.126 46.9929 168.49 46.6174C168.853 46.2293 169.291 45.9351 169.804 45.7348C170.33 45.5345 170.912 45.4344 171.55 45.4344C172.189 45.4344 172.752 45.522 173.24 45.6972C173.729 45.8725 174.142 46.1166 174.48 46.4296C174.818 46.7425 175.074 47.1118 175.25 47.5375C175.437 47.9631 175.544 48.42 175.569 48.9082H173.015C172.952 48.5452 172.808 48.2385 172.583 47.9881C172.358 47.7252 172.013 47.5938 171.55 47.5938C171.037 47.5938 170.63 47.7691 170.33 48.1196C170.029 48.4701 169.879 49.0522 169.879 49.8659V51.1052C169.879 52.0066 170.029 52.645 170.33 53.0206C170.63 53.3836 171.037 53.5651 171.55 53.5651C172.013 53.5651 172.358 53.4399 172.583 53.1896C172.808 52.9267 172.952 52.6137 173.015 52.2507H175.569C175.531 52.7639 175.419 53.2334 175.231 53.659C175.043 54.0721 174.78 54.4352 174.442 54.7481C174.117 55.0611 173.71 55.3052 173.222 55.4805C172.746 55.6432 172.189 55.7246 171.55 55.7246ZM181.033 55.7246C179.706 55.7246 178.655 55.3302 177.878 54.5416C177.115 53.7404 176.733 52.5949 176.733 51.1052V49.8659C176.733 49.1774 176.833 48.5577 177.033 48.0069C177.234 47.4561 177.515 46.9929 177.878 46.6174C178.254 46.2293 178.705 45.9351 179.23 45.7348C179.769 45.5345 180.37 45.4344 181.033 45.4344C181.697 45.4344 182.291 45.5345 182.817 45.7348C183.355 45.9351 183.806 46.2293 184.169 46.6174C184.545 46.9929 184.832 47.4561 185.033 48.0069C185.233 48.5577 185.333 49.1774 185.333 49.8659V51.1052C185.333 52.5949 184.945 53.7404 184.169 54.5416C183.405 55.3302 182.36 55.7246 181.033 55.7246ZM181.033 53.5651C181.596 53.5651 182.028 53.3836 182.329 53.0206C182.642 52.645 182.798 52.0066 182.798 51.1052V49.8659C182.798 49.0522 182.642 48.4701 182.329 48.1196C182.028 47.7691 181.596 47.5938 181.033 47.5938C180.47 47.5938 180.032 47.7691 179.719 48.1196C179.418 48.4701 179.268 49.0522 179.268 49.8659V51.1052C179.268 52.0066 179.418 52.645 179.719 53.0206C180.032 53.3836 180.47 53.5651 181.033 53.5651ZM190.272 55.7246C189.321 55.7246 188.557 55.4179 187.982 54.8045C187.406 54.1785 187.118 53.2209 187.118 51.9315V45.6034H189.653V51.5371C189.653 52.2632 189.778 52.7827 190.028 53.0957C190.291 53.4086 190.642 53.5651 191.08 53.5651C191.531 53.5651 191.912 53.3899 192.225 53.0394C192.538 52.6888 192.695 52.1881 192.695 51.5371V45.6034H195.23V55.5556H192.883V53.997C192.657 54.5103 192.313 54.9296 191.85 55.2551C191.399 55.5681 190.873 55.7246 190.272 55.7246ZM197.444 45.6034H199.791V47.1619C200.017 46.6486 200.373 46.2355 200.862 45.9226C201.35 45.5971 201.907 45.4344 202.533 45.4344C203.534 45.4344 204.317 45.7473 204.88 46.3732C205.456 46.9866 205.744 47.9381 205.744 49.2275V55.5556H203.209V49.6218C203.209 48.8957 203.071 48.3762 202.796 48.0632C202.533 47.7503 202.164 47.5938 201.688 47.5938C201.162 47.5938 200.743 47.7628 200.43 48.1008C200.129 48.4388 199.979 48.9458 199.979 49.6218V55.5556H197.444V45.6034ZM211.897 55.5556C211.259 55.5556 210.72 55.4992 210.282 55.3866C209.844 55.2614 209.494 55.0674 209.231 54.8045C208.968 54.5416 208.774 54.1973 208.649 53.7717C208.536 53.3335 208.48 52.7952 208.48 52.1568V47.6877H207.128V45.6034H208.48V43.35H210.996V45.6034H212.949V47.6877H210.996V52.1568C210.996 52.6701 211.083 53.0206 211.259 53.2084C211.434 53.3836 211.722 53.4712 212.122 53.4712H212.949V55.5556H211.897ZM219.659 42.4111H222.344V53.321H228.147V55.5556H219.659V42.4111ZM229.725 45.6034H232.241V55.5556H229.725V45.6034ZM230.983 44.8522C230.57 44.8522 230.213 44.7083 229.912 44.4203C229.624 44.1199 229.48 43.7631 229.48 43.35C229.48 42.9369 229.624 42.5864 229.912 42.2985C230.213 41.998 230.57 41.8478 230.983 41.8478C231.396 41.8478 231.746 41.998 232.034 42.2985C232.335 42.5864 232.485 42.9369 232.485 43.35C232.485 43.7631 232.335 44.1199 232.034 44.4203C231.746 44.7083 231.396 44.8522 230.983 44.8522ZM234.725 45.6034H237.072V47.1619C237.297 46.6486 237.654 46.2355 238.142 45.9226C238.63 45.5971 239.187 45.4344 239.813 45.4344C240.815 45.4344 241.597 45.7473 242.161 46.3732C242.736 46.9866 243.024 47.9381 243.024 49.2275V55.5556H240.489V49.6218C240.489 48.8957 240.352 48.3762 240.076 48.0632C239.813 47.7503 239.444 47.5938 238.968 47.5938C238.443 47.5938 238.023 47.7628 237.71 48.1008C237.41 48.4388 237.26 48.9458 237.26 49.6218V55.5556H234.725V45.6034ZM245.14 42.4299H247.619V49.2838L250.849 45.6034H253.684L250.135 49.6218L254.248 55.5556H251.337L248.539 51.462L247.638 52.4572V55.5556H245.14V42.4299ZM255.819 45.6034H258.335V55.5556H255.819V45.6034ZM257.077 44.8522C256.664 44.8522 256.307 44.7083 256.007 44.4203C255.719 44.1199 255.575 43.7631 255.575 43.35C255.575 42.9369 255.719 42.5864 256.007 42.2985C256.307 41.998 256.664 41.8478 257.077 41.8478C257.49 41.8478 257.841 41.998 258.129 42.2985C258.429 42.5864 258.579 42.9369 258.579 43.35C258.579 43.7631 258.429 44.1199 258.129 44.4203C257.841 44.7083 257.49 44.8522 257.077 44.8522ZM260.819 45.6034H263.166V47.1619C263.392 46.6486 263.748 46.2355 264.237 45.9226C264.725 45.5971 265.282 45.4344 265.908 45.4344C266.909 45.4344 267.692 45.7473 268.255 46.3732C268.831 46.9866 269.119 47.9381 269.119 49.2275V55.5556H266.584V49.6218C266.584 48.8957 266.446 48.3762 266.171 48.0632C265.908 47.7503 265.539 47.5938 265.063 47.5938C264.537 47.5938 264.118 47.7628 263.805 48.1008C263.504 48.4388 263.354 48.9458 263.354 49.6218V55.5556H260.819V45.6034ZM274.352 55.5931C273.275 55.5931 272.43 55.2426 271.817 54.5416C271.204 53.8405 270.897 52.6951 270.897 51.1052V49.8659C270.897 48.3261 271.204 47.212 271.817 46.5235C272.43 45.8349 273.275 45.4907 274.352 45.4907C275.066 45.4907 275.635 45.6472 276.061 45.9601C276.499 46.2606 276.843 46.6612 277.094 47.1619V45.6034H279.441V55.5556C279.441 56.8575 279.097 57.8339 278.408 58.4849C277.732 59.1484 276.643 59.4801 275.141 59.4801C274.465 59.4801 273.883 59.405 273.394 59.2548C272.919 59.1046 272.524 58.898 272.211 58.6351C271.898 58.3722 271.654 58.0593 271.479 57.6962C271.316 57.3457 271.21 56.9576 271.16 56.532H273.545C273.595 56.6447 273.651 56.7574 273.714 56.87C273.776 56.9827 273.864 57.0828 273.976 57.1705C274.102 57.2581 274.252 57.3269 274.427 57.377C274.615 57.4271 274.853 57.4521 275.141 57.4521C275.779 57.4521 276.23 57.3082 276.493 57.0202C276.768 56.7448 276.906 56.2566 276.906 55.5556V54.166C276.668 54.5666 276.336 54.9046 275.911 55.18C275.485 55.4554 274.965 55.5931 274.352 55.5931ZM275.141 53.5651C275.704 53.5651 276.136 53.3836 276.436 53.0206C276.749 52.645 276.906 52.0066 276.906 51.1052V49.8659C276.906 49.0772 276.749 48.5139 276.436 48.1759C276.136 47.8254 275.704 47.6501 275.141 47.6501C274.615 47.6501 274.196 47.8254 273.883 48.1759C273.582 48.5139 273.432 49.0772 273.432 49.8659V51.1052C273.432 52.0066 273.582 52.645 273.883 53.0206C274.196 53.3836 274.615 53.5651 275.141 53.5651Z" fill="#100C27"/>
<rect x="145" y="87" width="54" height="8" rx="2.88889" fill="#D3D5DC"/>
<rect x="145" y="105.833" width="54" height="9" rx="2.88889" fill="#D3D5DC"/>
<rect x="145" y="125.667" width="21.5" height="9" rx="2.88889" fill="#D3D5DC"/>
<rect x="177.5" y="125.667" width="21.5" height="9" rx="2.88889" fill="#D3D5DC"/>
<rect x="145" y="145.5" width="21.5" height="9" rx="2.88889" fill="#D3D5DC"/>
<rect x="177.5" y="145.5" width="21.5" height="9" rx="2.88889" fill="#D3D5DC"/>
<rect x="145" y="165.333" width="54" height="8" rx="2.88889" fill="#876FEC"/>
<rect x="240" y="126" width="53" height="9" rx="2.88889" fill="#D3D5DC"/>
<rect x="240" y="145.833" width="39" height="8" rx="2.88889" fill="#D3D5DC"/>
<rect x="240" y="164.667" width="65" height="9" rx="2.88889" fill="#D3D5DC"/>
<rect x="240" y="184.5" width="47" height="9" rx="2.88889" fill="#D3D5DC"/>
<rect x="241" y="87" width="35" height="20" rx="4" fill="#D3D5DC"/>
<rect x="286.833" y="87" width="35" height="20" rx="4" fill="#D3D5DC"/>
<rect x="332.667" y="87" width="35" height="20" rx="4" fill="#D3D5DC"/>
<rect x="378.5" y="87" width="35" height="20" rx="4" fill="#D3D5DC"/>
<rect width="2" height="127" rx="1" transform="matrix(1 0 0 -1 219 204)" fill="#E7E8EF"/>
<defs>
<filter id="filter0_dd_2_411" x="125.472" y="22.5556" width="317.056" height="212.333" filterUnits="userSpaceOnUse" color-interpolation-filters="sRGB">
<feFlood flood-opacity="0" result="BackgroundImageFix"/>
<feColorMatrix in="SourceAlpha" type="matrix" values="0 0 0 0 0 0 0 0 0 0 0 0 0 0 0 0 0 0 127 0" result="hardAlpha"/>
<feMorphology radius="2.16667" operator="erode" in="SourceAlpha" result="effect1_dropShadow_2_411"/>
<feOffset dy="7.22222"/>
<feGaussianBlur stdDeviation="5.41667"/>
<feComposite in2="hardAlpha" operator="out"/>
<feColorMatrix type="matrix" values="0 0 0 0 0.0666667 0 0 0 0 0.0941176 0 0 0 0 0.152941 0 0 0 0.1 0"/>
<feBlend mode="normal" in2="BackgroundImageFix" result="effect1_dropShadow_2_411"/>
<feColorMatrix in="SourceAlpha" type="matrix" values="0 0 0 0 0 0 0 0 0 0 0 0 0 0 0 0 0 0 127 0" result="hardAlpha"/>
<feMorphology radius="1.44444" operator="erode" in="SourceAlpha" result="effect2_dropShadow_2_411"/>
<feOffset dy="2.88889"/>
<feGaussianBlur stdDeviation="2.16667"/>
<feComposite in2="hardAlpha" operator="out"/>
<feColorMatrix type="matrix" values="0 0 0 0 0.0666667 0 0 0 0 0.0941176 0 0 0 0 0.152941 0 0 0 0.06 0"/>
<feBlend mode="normal" in2="effect1_dropShadow_2_411" result="effect2_dropShadow_2_411"/>
<feBlend mode="normal" in="SourceGraphic" in2="effect2_dropShadow_2_411" result="shape"/>
</filter>
</defs>
</svg>
