<svg width="568" height="259" viewBox="0 0 568 259" fill="none" xmlns="http://www.w3.org/2000/svg">
<g filter="url(#filter0_dd_932_13835)">
<rect x="134.139" y="24" width="299.722" height="195" rx="5.77778" fill="white"/>
<rect x="134.5" y="24.3611" width="299" height="194.278" rx="5.41667" stroke="#D3D5DC" stroke-width="0.722222"/>
</g>
<path d="M146.418 42.4111H155.037V44.6457H149.103V47.8567H154.342V50.11H149.103V55.5555H146.418V42.4111ZM156.754 45.6033H159.082V47.1619C159.32 46.6486 159.683 46.2355 160.171 45.9225C160.66 45.5971 161.217 45.4343 161.843 45.4343C161.968 45.4343 162.081 45.4406 162.181 45.4531C162.281 45.4656 162.368 45.4781 162.444 45.4907C162.531 45.5032 162.606 45.5157 162.669 45.5282V47.8379C162.544 47.8254 162.412 47.8066 162.275 47.7815C162.149 47.769 161.999 47.7565 161.824 47.744C161.661 47.7315 161.473 47.7252 161.261 47.7252C160.622 47.7252 160.128 47.8942 159.777 48.2322C159.439 48.5577 159.27 49.0209 159.27 49.6218V55.5555H156.754V45.6033ZM166.289 55.6682C165.388 55.6682 164.674 55.4178 164.148 54.9171C163.635 54.4164 163.378 53.6778 163.378 52.7013C163.378 51.6998 163.673 50.9425 164.261 50.4292C164.849 49.9034 165.732 49.6405 166.909 49.6405H168.974V49.0584C168.974 48.4951 168.855 48.1008 168.617 47.8754C168.392 47.6376 168.004 47.5187 167.453 47.5187C166.927 47.5187 166.558 47.6063 166.345 47.7815C166.145 47.9568 166.032 48.2009 166.007 48.5139H163.81C163.835 47.5374 164.13 46.7801 164.693 46.2418C165.269 45.7035 166.208 45.4343 167.51 45.4343C168.874 45.4343 169.857 45.7222 170.458 46.2981C171.059 46.8739 171.359 47.7878 171.359 49.0397V55.5555H169.162V53.997C169.037 54.2223 168.893 54.4414 168.73 54.6542C168.567 54.8545 168.373 55.0298 168.148 55.18C167.923 55.3302 167.66 55.4491 167.359 55.5368C167.059 55.6244 166.702 55.6682 166.289 55.6682ZM167.059 53.6402C167.672 53.6402 168.142 53.4712 168.467 53.1332C168.805 52.7952 168.974 52.307 168.974 51.6685V51.3305H167.19C166.665 51.3305 166.295 51.4369 166.082 51.6498C165.882 51.8501 165.782 52.1317 165.782 52.4948C165.782 53.2584 166.208 53.6402 167.059 53.6402ZM173.477 45.6033H175.824V47.1619C176.049 46.6486 176.406 46.2355 176.894 45.9225C177.382 45.5971 177.939 45.4343 178.565 45.4343C179.567 45.4343 180.349 45.7473 180.913 46.3732C181.488 46.9866 181.776 47.938 181.776 49.2274V55.5555H179.241V49.6218C179.241 48.8957 179.104 48.3762 178.828 48.0632C178.565 47.7502 178.196 47.5938 177.72 47.5938C177.195 47.5938 176.775 47.7628 176.462 48.1008C176.162 48.4388 176.012 48.9458 176.012 49.6218V55.5555H173.477V45.6033ZM187.761 55.7245C187.122 55.7245 186.54 55.6244 186.014 55.4241C185.501 55.2238 185.063 54.9296 184.7 54.5415C184.337 54.1409 184.055 53.6527 183.855 53.0769C183.654 52.501 183.554 51.8438 183.554 51.1052V49.8659C183.554 49.1774 183.654 48.5577 183.855 48.0069C184.055 47.4561 184.337 46.9929 184.7 46.6173C185.063 46.2292 185.501 45.9351 186.014 45.7348C186.54 45.5345 187.122 45.4343 187.761 45.4343C188.399 45.4343 188.962 45.5219 189.451 45.6972C189.939 45.8725 190.352 46.1166 190.69 46.4295C191.028 46.7425 191.285 47.1118 191.46 47.5374C191.648 47.9631 191.754 48.42 191.779 48.9082H189.225C189.163 48.5452 189.019 48.2385 188.793 47.9881C188.568 47.7252 188.224 47.5938 187.761 47.5938C187.247 47.5938 186.84 47.769 186.54 48.1195C186.24 48.4701 186.089 49.0522 186.089 49.8659V51.1052C186.089 52.0065 186.24 52.645 186.54 53.0205C186.84 53.3836 187.247 53.5651 187.761 53.5651C188.224 53.5651 188.568 53.4399 188.793 53.1895C189.019 52.9267 189.163 52.6137 189.225 52.2507H191.779C191.741 52.7639 191.629 53.2334 191.441 53.659C191.253 54.0721 190.99 54.4351 190.652 54.7481C190.327 55.0611 189.92 55.3052 189.432 55.4804C188.956 55.6432 188.399 55.7245 187.761 55.7245ZM197.149 55.7245C196.511 55.7245 195.929 55.6244 195.403 55.4241C194.89 55.2238 194.452 54.9296 194.089 54.5415C193.726 54.1409 193.444 53.6527 193.244 53.0769C193.043 52.501 192.943 51.8438 192.943 51.1052V49.8659C192.943 48.4513 193.313 47.3622 194.051 46.5985C194.802 45.8224 195.804 45.4343 197.056 45.4343C198.307 45.4343 199.303 45.8224 200.041 46.5985C200.792 47.3622 201.168 48.4575 201.168 49.8847V51.2554H195.478C195.491 52.1818 195.641 52.8202 195.929 53.1708C196.229 53.5213 196.636 53.6965 197.149 53.6965C197.563 53.6965 197.876 53.5964 198.088 53.3961C198.301 53.1833 198.439 52.9329 198.501 52.645H200.98C200.842 53.5714 200.454 54.3162 199.816 54.8795C199.177 55.4429 198.289 55.7245 197.149 55.7245ZM197.131 47.4623C196.617 47.4623 196.223 47.6125 195.948 47.913C195.672 48.2009 195.516 48.7329 195.478 49.5091H198.783C198.746 48.7329 198.589 48.2009 198.314 47.913C198.038 47.6125 197.644 47.4623 197.131 47.4623ZM212.82 55.7245C211.205 55.7245 209.928 55.2175 208.989 54.2035C208.063 53.1895 207.6 51.6372 207.6 49.5467V48.0444C207.6 46.1416 208.063 44.702 208.989 43.7255C209.928 42.7366 211.205 42.2421 212.82 42.2421C213.596 42.2421 214.278 42.3422 214.867 42.5425C215.455 42.7428 215.956 43.0308 216.369 43.4063C216.782 43.7819 217.108 44.2388 217.346 44.7771C217.583 45.3029 217.74 45.8975 217.815 46.561H215.13C215.017 45.9225 214.785 45.4281 214.435 45.0775C214.084 44.727 213.546 44.5518 212.82 44.5518C212.031 44.5518 211.412 44.8209 210.961 45.3592C210.51 45.885 210.285 46.7801 210.285 48.0444V49.5467C210.285 50.2727 210.341 50.8861 210.454 51.3869C210.579 51.8751 210.748 52.2694 210.961 52.5699C211.174 52.8703 211.437 53.0894 211.75 53.2271C212.063 53.3523 212.419 53.4149 212.82 53.4149C213.559 53.4149 214.091 53.2396 214.416 52.8891C214.754 52.5261 214.992 52.0003 215.13 51.3118H217.815C217.652 52.7138 217.164 53.8029 216.35 54.5791C215.537 55.3427 214.36 55.7245 212.82 55.7245ZM223.521 55.7245C222.194 55.7245 221.143 55.3302 220.367 54.5415C219.603 53.7404 219.221 52.5949 219.221 51.1052V49.8659C219.221 49.1774 219.321 48.5577 219.522 48.0069C219.722 47.4561 220.004 46.9929 220.367 46.6173C220.742 46.2292 221.193 45.9351 221.719 45.7348C222.257 45.5345 222.858 45.4343 223.521 45.4343C224.185 45.4343 224.779 45.5345 225.305 45.7348C225.843 45.9351 226.294 46.2292 226.657 46.6173C227.033 46.9929 227.321 47.4561 227.521 48.0069C227.721 48.5577 227.821 49.1774 227.821 49.8659V51.1052C227.821 52.5949 227.433 53.7404 226.657 54.5415C225.893 55.3302 224.848 55.7245 223.521 55.7245ZM223.521 53.5651C224.085 53.5651 224.516 53.3836 224.817 53.0205C225.13 52.645 225.286 52.0065 225.286 51.1052V49.8659C225.286 49.0522 225.13 48.4701 224.817 48.1195C224.516 47.769 224.085 47.5938 223.521 47.5938C222.958 47.5938 222.52 47.769 222.207 48.1195C221.906 48.4701 221.756 49.0522 221.756 49.8659V51.1052C221.756 52.0065 221.906 52.645 222.207 53.0205C222.52 53.3836 222.958 53.5651 223.521 53.5651ZM229.7 45.6033H232.047V47.1619C232.272 46.6486 232.629 46.2355 233.117 45.9225C233.606 45.5971 234.163 45.4343 234.789 45.4343C235.79 45.4343 236.573 45.7473 237.136 46.3732C237.712 46.9866 238 47.938 238 49.2274V55.5555H235.465V49.6218C235.465 48.8957 235.327 48.3762 235.052 48.0632C234.789 47.7502 234.419 47.5938 233.944 47.5938C233.418 47.5938 232.998 47.7628 232.686 48.1008C232.385 48.4388 232.235 48.9458 232.235 49.6218V55.5555H229.7V45.6033ZM240.116 45.6033H242.463V47.1619C242.688 46.6486 243.045 46.2355 243.533 45.9225C244.021 45.5971 244.578 45.4343 245.204 45.4343C246.206 45.4343 246.988 45.7473 247.552 46.3732C248.127 46.9866 248.415 47.938 248.415 49.2274V55.5555H245.88V49.6218C245.88 48.8957 245.743 48.3762 245.467 48.0632C245.204 47.7502 244.835 47.5938 244.359 47.5938C243.834 47.5938 243.414 47.7628 243.101 48.1008C242.801 48.4388 242.651 48.9458 242.651 49.6218V55.5555H240.116V45.6033ZM254.4 55.7245C253.761 55.7245 253.179 55.6244 252.653 55.4241C252.14 55.2238 251.702 54.9296 251.339 54.5415C250.976 54.1409 250.694 53.6527 250.494 53.0769C250.294 52.501 250.193 51.8438 250.193 51.1052V49.8659C250.193 48.4513 250.563 47.3622 251.301 46.5985C252.052 45.8224 253.054 45.4343 254.306 45.4343C255.558 45.4343 256.553 45.8224 257.291 46.5985C258.043 47.3622 258.418 48.4575 258.418 49.8847V51.2554H252.728C252.741 52.1818 252.891 52.8202 253.179 53.1708C253.48 53.5213 253.886 53.6965 254.4 53.6965C254.813 53.6965 255.126 53.5964 255.339 53.3961C255.551 53.1833 255.689 52.9329 255.752 52.645H258.23C258.093 53.5714 257.705 54.3162 257.066 54.8795C256.428 55.4429 255.539 55.7245 254.4 55.7245ZM254.381 47.4623C253.868 47.4623 253.473 47.6125 253.198 47.913C252.922 48.2009 252.766 48.7329 252.728 49.5091H256.033C255.996 48.7329 255.839 48.2009 255.564 47.913C255.288 47.6125 254.894 47.4623 254.381 47.4623ZM264.155 55.7245C263.517 55.7245 262.935 55.6244 262.409 55.4241C261.896 55.2238 261.458 54.9296 261.095 54.5415C260.731 54.1409 260.45 53.6527 260.25 53.0769C260.049 52.501 259.949 51.8438 259.949 51.1052V49.8659C259.949 49.1774 260.049 48.5577 260.25 48.0069C260.45 47.4561 260.731 46.9929 261.095 46.6173C261.458 46.2292 261.896 45.9351 262.409 45.7348C262.935 45.5345 263.517 45.4343 264.155 45.4343C264.794 45.4343 265.357 45.5219 265.845 45.6972C266.334 45.8725 266.747 46.1166 267.085 46.4295C267.423 46.7425 267.679 47.1118 267.855 47.5374C268.042 47.9631 268.149 48.42 268.174 48.9082H265.62C265.557 48.5452 265.413 48.2385 265.188 47.9881C264.963 47.7252 264.618 47.5938 264.155 47.5938C263.642 47.5938 263.235 47.769 262.935 48.1195C262.634 48.4701 262.484 49.0522 262.484 49.8659V51.1052C262.484 52.0065 262.634 52.645 262.935 53.0205C263.235 53.3836 263.642 53.5651 264.155 53.5651C264.618 53.5651 264.963 53.4399 265.188 53.1895C265.413 52.9267 265.557 52.6137 265.62 52.2507H268.174C268.136 52.7639 268.024 53.2334 267.836 53.659C267.648 54.0721 267.385 54.4351 267.047 54.7481C266.722 55.0611 266.315 55.3052 265.827 55.4804C265.351 55.6432 264.794 55.7245 264.155 55.7245ZM273.897 55.5555C273.258 55.5555 272.72 55.4992 272.282 55.3865C271.844 55.2614 271.493 55.0673 271.23 54.8044C270.967 54.5415 270.773 54.1973 270.648 53.7717C270.535 53.3335 270.479 52.7952 270.479 52.1568V47.6877H269.127V45.6033H270.479V43.35H272.995V45.6033H274.948V47.6877H272.995V52.1568C272.995 52.67 273.083 53.0205 273.258 53.2083C273.433 53.3836 273.721 53.4712 274.122 53.4712H274.948V55.5555H273.897ZM281.79 42.4111H284.456V55.5555H281.79V42.4111ZM290.251 55.6682C289.712 55.6682 289.23 55.5868 288.805 55.4241C288.379 55.2488 288.016 54.9797 287.716 54.6167C287.415 54.2536 287.184 53.7842 287.021 53.2083C286.871 52.6199 286.795 51.9189 286.795 51.1052V49.8659C286.795 48.3136 287.102 47.1869 287.716 46.4859C288.329 45.7848 289.174 45.4343 290.251 45.4343C290.864 45.4343 291.383 45.5783 291.809 45.8662C292.235 46.1416 292.566 46.5172 292.804 46.9929V42.4111H295.339V55.5555H292.992V53.997C292.742 54.4977 292.397 54.9046 291.959 55.2175C291.534 55.518 290.964 55.6682 290.251 55.6682ZM291.039 53.5088C291.603 53.5088 292.034 53.3272 292.335 52.9642C292.648 52.6012 292.804 51.9815 292.804 51.1052V49.8659C292.804 49.0522 292.648 48.4701 292.335 48.1195C292.034 47.769 291.603 47.5938 291.039 47.5938C290.513 47.5938 290.094 47.769 289.781 48.1195C289.481 48.4701 289.33 49.0522 289.33 49.8659V51.1052C289.33 51.9815 289.481 52.6012 289.781 52.9642C290.094 53.3272 290.513 53.5088 291.039 53.5088ZM301.417 55.7245C300.779 55.7245 300.197 55.6244 299.671 55.4241C299.158 55.2238 298.72 54.9296 298.357 54.5415C297.994 54.1409 297.712 53.6527 297.512 53.0769C297.311 52.501 297.211 51.8438 297.211 51.1052V49.8659C297.211 48.4513 297.581 47.3622 298.319 46.5985C299.07 45.8224 300.072 45.4343 301.324 45.4343C302.575 45.4343 303.571 45.8224 304.309 46.5985C305.06 47.3622 305.436 48.4575 305.436 49.8847V51.2554H299.746C299.759 52.1818 299.909 52.8202 300.197 53.1708C300.497 53.5213 300.904 53.6965 301.417 53.6965C301.831 53.6965 302.144 53.5964 302.356 53.3961C302.569 53.1833 302.707 52.9329 302.769 52.645H305.248C305.11 53.5714 304.722 54.3162 304.084 54.8795C303.445 55.4429 302.557 55.7245 301.417 55.7245ZM301.399 47.4623C300.885 47.4623 300.491 47.6125 300.216 47.913C299.94 48.2009 299.784 48.7329 299.746 49.5091H303.051C303.014 48.7329 302.857 48.2009 302.582 47.913C302.306 47.6125 301.912 47.4623 301.399 47.4623ZM307.305 45.6033H309.652V47.1619C309.877 46.6486 310.234 46.2355 310.722 45.9225C311.211 45.5971 311.768 45.4343 312.394 45.4343C313.395 45.4343 314.178 45.7473 314.741 46.3732C315.317 46.9866 315.605 47.938 315.605 49.2274V55.5555H313.07V49.6218C313.07 48.8957 312.932 48.3762 312.657 48.0632C312.394 47.7502 312.024 47.5938 311.549 47.5938C311.023 47.5938 310.604 47.7628 310.291 48.1008C309.99 48.4388 309.84 48.9458 309.84 49.6218V55.5555H307.305V45.6033ZM321.758 55.5555C321.119 55.5555 320.581 55.4992 320.143 55.3865C319.705 55.2614 319.354 55.0673 319.091 54.8044C318.829 54.5415 318.635 54.1973 318.509 53.7717C318.397 53.3335 318.34 52.7952 318.34 52.1568V47.6877H316.988V45.6033H318.34V43.35H320.857V45.6033H322.809V47.6877H320.857V52.1568C320.857 52.67 320.944 53.0205 321.119 53.2083C321.295 53.3836 321.583 53.4712 321.983 53.4712H322.809V55.5555H321.758ZM324.75 45.6033H327.266V55.5555H324.75V45.6033ZM326.008 44.8522C325.595 44.8522 325.238 44.7082 324.938 44.4203C324.65 44.1199 324.506 43.7631 324.506 43.35C324.506 42.9369 324.65 42.5864 324.938 42.2984C325.238 41.998 325.595 41.8478 326.008 41.8478C326.421 41.8478 326.772 41.998 327.06 42.2984C327.36 42.5864 327.51 42.9369 327.51 43.35C327.51 43.7631 327.36 44.1199 327.06 44.4203C326.772 44.7082 326.421 44.8522 326.008 44.8522ZM333.787 55.5555C333.149 55.5555 332.611 55.4992 332.173 55.3865C331.734 55.2614 331.384 55.0673 331.121 54.8044C330.858 54.5415 330.664 54.1973 330.539 53.7717C330.426 53.3335 330.37 52.7952 330.37 52.1568V47.6877H329.018V45.6033H330.37V43.35H332.886V45.6033H334.839V47.6877H332.886V52.1568C332.886 52.67 332.974 53.0205 333.149 53.2083C333.324 53.3836 333.612 53.4712 334.013 53.4712H334.839V55.5555H333.787ZM337.061 57.2268C337.374 57.2268 337.65 57.1955 337.888 57.1329C338.125 57.0828 338.332 56.9952 338.507 56.87C338.682 56.7573 338.833 56.5946 338.958 56.3818C339.096 56.1815 339.215 55.9311 339.315 55.6307L335.522 45.6033H338.301L340.554 52.4572L342.563 45.6033H345.248L341.812 55.6307C341.549 56.4193 341.28 57.0515 341.005 57.5272C340.742 58.0154 340.429 58.391 340.066 58.6539C339.715 58.9168 339.296 59.092 338.808 59.1797C338.332 59.2673 337.75 59.3111 337.061 59.3111V57.2268ZM351.169 45.6033H353.516V47.1619C353.766 46.6611 354.104 46.2605 354.53 45.9601C354.968 45.6471 355.544 45.4907 356.257 45.4907C357.334 45.4907 358.179 45.8349 358.792 46.5234C359.406 47.2119 359.712 48.3261 359.712 49.8659V51.1052C359.712 51.9314 359.631 52.6387 359.468 53.2271C359.318 53.8029 359.093 54.2787 358.792 54.6542C358.492 55.0298 358.129 55.3052 357.703 55.4804C357.278 55.6432 356.796 55.7245 356.257 55.7245C355.644 55.7245 355.124 55.5868 354.699 55.3114C354.273 55.0235 353.941 54.6417 353.704 54.166V59.3111H351.169V45.6033ZM355.469 53.5651C355.994 53.5651 356.408 53.3836 356.708 53.0205C357.021 52.645 357.177 52.0065 357.177 51.1052V49.8659C357.177 49.0772 357.021 48.5139 356.708 48.1759C356.408 47.8254 355.994 47.6501 355.469 47.6501C354.905 47.6501 354.467 47.8254 354.154 48.1759C353.854 48.5139 353.704 49.0772 353.704 49.8659V51.1052C353.704 52.0065 353.854 52.645 354.154 53.0205C354.467 53.3836 354.905 53.5651 355.469 53.5651ZM361.641 45.6033H363.969V47.1619C364.207 46.6486 364.57 46.2355 365.058 45.9225C365.547 45.5971 366.104 45.4343 366.73 45.4343C366.855 45.4343 366.967 45.4406 367.068 45.4531C367.168 45.4656 367.255 45.4781 367.33 45.4907C367.418 45.5032 367.493 45.5157 367.556 45.5282V47.8379C367.431 47.8254 367.299 47.8066 367.161 47.7815C367.036 47.769 366.886 47.7565 366.711 47.744C366.548 47.7315 366.36 47.7252 366.147 47.7252C365.509 47.7252 365.014 47.8942 364.664 48.2322C364.326 48.5577 364.157 49.0209 364.157 49.6218V55.5555H361.641V45.6033ZM372.68 55.7245C371.353 55.7245 370.301 55.3302 369.525 54.5415C368.762 53.7404 368.38 52.5949 368.38 51.1052V49.8659C368.38 49.1774 368.48 48.5577 368.68 48.0069C368.88 47.4561 369.162 46.9929 369.525 46.6173C369.901 46.2292 370.351 45.9351 370.877 45.7348C371.415 45.5345 372.016 45.4343 372.68 45.4343C373.343 45.4343 373.938 45.5345 374.464 45.7348C375.002 45.9351 375.453 46.2292 375.816 46.6173C376.191 46.9929 376.479 47.4561 376.68 48.0069C376.88 48.5577 376.98 49.1774 376.98 49.8659V51.1052C376.98 52.5949 376.592 53.7404 375.816 54.5415C375.052 55.3302 374.007 55.7245 372.68 55.7245ZM372.68 53.5651C373.243 53.5651 373.675 53.3836 373.976 53.0205C374.288 52.645 374.445 52.0065 374.445 51.1052V49.8659C374.445 49.0522 374.288 48.4701 373.976 48.1195C373.675 47.769 373.243 47.5938 372.68 47.5938C372.117 47.5938 371.678 47.769 371.365 48.1195C371.065 48.4701 370.915 49.0522 370.915 49.8659V51.1052C370.915 52.0065 371.065 52.645 371.365 53.0205C371.678 53.3836 372.117 53.5651 372.68 53.5651ZM377.46 45.6033H380.239L382.492 52.4572L384.501 45.6033H387.187L383.788 55.5555H381.234L377.46 45.6033ZM388.675 45.6033H391.192V55.5555H388.675V45.6033ZM389.933 44.8522C389.52 44.8522 389.164 44.7082 388.863 44.4203C388.575 44.1199 388.431 43.7631 388.431 43.35C388.431 42.9369 388.575 42.5864 388.863 42.2984C389.164 41.998 389.52 41.8478 389.933 41.8478C390.347 41.8478 390.697 41.998 390.985 42.2984C391.285 42.5864 391.436 42.9369 391.436 43.35C391.436 43.7631 391.285 44.1199 390.985 44.4203C390.697 44.7082 390.347 44.8522 389.933 44.8522ZM396.792 55.6682C396.254 55.6682 395.772 55.5868 395.347 55.4241C394.921 55.2488 394.558 54.9797 394.257 54.6167C393.957 54.2536 393.725 53.7842 393.563 53.2083C393.412 52.6199 393.337 51.9189 393.337 51.1052V49.8659C393.337 48.3136 393.644 47.1869 394.257 46.4859C394.871 45.7848 395.716 45.4343 396.792 45.4343C397.406 45.4343 397.925 45.5783 398.351 45.8662C398.777 46.1416 399.108 46.5172 399.346 46.9929V42.4111H401.881V55.5555H399.534V53.997C399.284 54.4977 398.939 54.9046 398.501 55.2175C398.076 55.518 397.506 55.6682 396.792 55.6682ZM397.581 53.5088C398.144 53.5088 398.576 53.3272 398.877 52.9642C399.19 52.6012 399.346 51.9815 399.346 51.1052V49.8659C399.346 49.0522 399.19 48.4701 398.877 48.1195C398.576 47.769 398.144 47.5938 397.581 47.5938C397.055 47.5938 396.636 47.769 396.323 48.1195C396.023 48.4701 395.872 49.0522 395.872 49.8659V51.1052C395.872 51.9815 396.023 52.6012 396.323 52.9642C396.636 53.3272 397.055 53.5088 397.581 53.5088ZM407.959 55.7245C407.321 55.7245 406.739 55.6244 406.213 55.4241C405.7 55.2238 405.262 54.9296 404.899 54.5415C404.536 54.1409 404.254 53.6527 404.054 53.0769C403.853 52.501 403.753 51.8438 403.753 51.1052V49.8659C403.753 48.4513 404.122 47.3622 404.861 46.5985C405.612 45.8224 406.614 45.4343 407.865 45.4343C409.117 45.4343 410.113 45.8224 410.851 46.5985C411.602 47.3622 411.978 48.4575 411.978 49.8847V51.2554H406.288C406.301 52.1818 406.451 52.8202 406.739 53.1708C407.039 53.5213 407.446 53.6965 407.959 53.6965C408.372 53.6965 408.685 53.5964 408.898 53.3961C409.111 53.1833 409.249 52.9329 409.311 52.645H411.79C411.652 53.5714 411.264 54.3162 410.626 54.8795C409.987 55.4429 409.099 55.7245 407.959 55.7245ZM407.941 47.4623C407.427 47.4623 407.033 47.6125 406.758 47.913C406.482 48.2009 406.326 48.7329 406.288 49.5091H409.593C409.555 48.7329 409.399 48.2009 409.124 47.913C408.848 47.6125 408.454 47.4623 407.941 47.4623ZM413.903 45.6033H416.232V47.1619C416.469 46.6486 416.832 46.2355 417.321 45.9225C417.809 45.5971 418.366 45.4343 418.992 45.4343C419.117 45.4343 419.23 45.4406 419.33 45.4531C419.43 45.4656 419.518 45.4781 419.593 45.4907C419.68 45.5032 419.755 45.5157 419.818 45.5282V47.8379C419.693 47.8254 419.561 47.8066 419.424 47.7815C419.299 47.769 419.148 47.7565 418.973 47.744C418.81 47.7315 418.623 47.7252 418.41 47.7252C417.771 47.7252 417.277 47.8942 416.926 48.2322C416.588 48.5577 416.419 49.0209 416.419 49.6218V55.5555H413.903V45.6033Z" fill="#100C27"/>
<rect x="144.972" y="78.1667" width="168" height="9" rx="2.88889" fill="#D3D5DC"/>
<rect x="144.972" y="98" width="85" height="8" rx="2.88889" fill="#D3D5DC"/>
<rect x="181.083" y="118" width="61.3889" height="20" rx="4" fill="#876FEC"/>
<rect x="253.306" y="118" width="61.3889" height="20" rx="4" fill="#D3D5DC"/>
<rect x="325.528" y="118" width="61.3889" height="20" rx="4" fill="#D3D5DC"/>
<rect x="181.083" y="150" width="61.3889" height="20" rx="4" fill="#D3D5DC"/>
<rect x="253.306" y="150" width="61.3889" height="20" rx="4" fill="#D3D5DC"/>
<rect x="325.528" y="150" width="61.3889" height="20" rx="4" fill="#D3D5DC"/>
<rect x="181.083" y="182" width="61.3889" height="20" rx="4" fill="#D3D5DC"/>
<rect x="253.306" y="182" width="61.3889" height="20" rx="4" fill="#D3D5DC"/>
<rect x="325.528" y="182" width="61.3889" height="20" rx="4" fill="#D3D5DC"/>
<defs>
<filter id="filter0_dd_932_13835" x="125.472" y="22.5556" width="317.056" height="212.333" filterUnits="userSpaceOnUse" color-interpolation-filters="sRGB">
<feFlood flood-opacity="0" result="BackgroundImageFix"/>
<feColorMatrix in="SourceAlpha" type="matrix" values="0 0 0 0 0 0 0 0 0 0 0 0 0 0 0 0 0 0 127 0" result="hardAlpha"/>
<feMorphology radius="2.16667" operator="erode" in="SourceAlpha" result="effect1_dropShadow_932_13835"/>
<feOffset dy="7.22222"/>
<feGaussianBlur stdDeviation="5.41667"/>
<feComposite in2="hardAlpha" operator="out"/>
<feColorMatrix type="matrix" values="0 0 0 0 0.0666667 0 0 0 0 0.0941176 0 0 0 0 0.152941 0 0 0 0.1 0"/>
<feBlend mode="normal" in2="BackgroundImageFix" result="effect1_dropShadow_932_13835"/>
<feColorMatrix in="SourceAlpha" type="matrix" values="0 0 0 0 0 0 0 0 0 0 0 0 0 0 0 0 0 0 127 0" result="hardAlpha"/>
<feMorphology radius="1.44444" operator="erode" in="SourceAlpha" result="effect2_dropShadow_932_13835"/>
<feOffset dy="2.88889"/>
<feGaussianBlur stdDeviation="2.16667"/>
<feComposite in2="hardAlpha" operator="out"/>
<feColorMatrix type="matrix" values="0 0 0 0 0.0666667 0 0 0 0 0.0941176 0 0 0 0 0.152941 0 0 0 0.06 0"/>
<feBlend mode="normal" in2="effect1_dropShadow_932_13835" result="effect2_dropShadow_932_13835"/>
<feBlend mode="normal" in="SourceGraphic" in2="effect2_dropShadow_932_13835" result="shape"/>
</filter>
</defs>
</svg>
