<svg width="568" height="259" viewBox="0 0 568 259" fill="none" xmlns="http://www.w3.org/2000/svg">
<g filter="url(#filter0_dd_932_13679)">
<rect x="134.139" y="24" width="299.722" height="195" rx="5.77778" fill="white"/>
<rect x="134.5" y="24.3611" width="299" height="194.278" rx="5.41667" stroke="#D3D5DC" stroke-width="0.722222"/>
</g>
<path d="M150.775 55.7245C149.898 55.7245 149.147 55.6369 148.521 55.4617C147.895 55.2739 147.382 55.011 146.982 54.673C146.581 54.3225 146.281 53.9031 146.08 53.4149C145.88 52.9267 145.774 52.3821 145.761 51.7812H148.465C148.49 52.2945 148.665 52.6951 148.991 52.983C149.329 53.2709 149.923 53.4149 150.775 53.4149C151.626 53.4149 152.221 53.2834 152.559 53.0205C152.909 52.7451 153.084 52.3946 153.084 51.969C153.084 51.7186 153.041 51.4995 152.953 51.3118C152.865 51.1115 152.709 50.9362 152.484 50.786C152.258 50.6358 151.958 50.4918 151.582 50.3541C151.207 50.2164 150.731 50.0787 150.155 49.941C149.454 49.7657 148.847 49.5654 148.334 49.3401C147.833 49.1022 147.414 48.8268 147.076 48.5139C146.738 48.2009 146.487 47.8379 146.324 47.4248C146.162 46.9991 146.08 46.5047 146.08 45.9413C146.08 45.3905 146.174 44.8898 146.362 44.4391C146.55 43.9884 146.838 43.6004 147.226 43.2749C147.614 42.9494 148.102 42.699 148.69 42.5238C149.279 42.336 149.974 42.2421 150.775 42.2421C152.377 42.2421 153.554 42.5926 154.305 43.2937C155.069 43.9947 155.463 44.9398 155.488 46.1291H152.803C152.778 45.6409 152.609 45.2591 152.296 44.9837C151.995 44.6957 151.488 44.5518 150.775 44.5518C150.061 44.5518 149.548 44.6832 149.235 44.9461C148.922 45.209 148.766 45.5407 148.766 45.9413C148.766 46.1792 148.809 46.3857 148.897 46.561C148.997 46.7362 149.154 46.8927 149.366 47.0304C149.579 47.1681 149.861 47.2996 150.211 47.4248C150.562 47.5374 151 47.6564 151.526 47.7815C152.277 47.9693 152.915 48.1884 153.441 48.4388C153.979 48.6766 154.418 48.9583 154.756 49.2838C155.106 49.6092 155.363 49.9911 155.526 50.4292C155.688 50.8674 155.77 51.3806 155.77 51.969C155.77 52.5323 155.669 53.0456 155.469 53.5088C155.281 53.9594 154.981 54.3538 154.568 54.6918C154.167 55.0172 153.648 55.2739 153.009 55.4617C152.383 55.6369 151.639 55.7245 150.775 55.7245ZM161.055 42.4111H163.871L168.434 55.5555H165.561L164.679 52.9454H160.172L159.271 55.5555H156.492L161.055 42.4111ZM163.928 50.6921L162.425 45.7535L160.904 50.6921H163.928ZM170.019 42.4111H172.723L176.441 49.9034L180.159 42.4111H182.713V55.5555H180.159V46.9178L177.323 52.7577H175.408L172.573 46.9178V55.5555H170.019V42.4111ZM185.606 42.4111H188.291V53.321H194.093V55.5555H185.606V42.4111ZM199.915 53.8468L204.366 48.7204C204.854 48.1571 205.223 47.6814 205.474 47.2933C205.724 46.8927 205.849 46.5109 205.849 46.1479C205.849 45.6221 205.705 45.2152 205.417 44.9273C205.129 44.6394 204.741 44.4954 204.253 44.4954C203.765 44.4954 203.377 44.6394 203.089 44.9273C202.801 45.2152 202.657 45.6221 202.657 46.1479H200.103C200.103 45.6096 200.203 45.1088 200.404 44.6457C200.616 44.1699 200.904 43.7568 201.267 43.4063C201.643 43.0433 202.081 42.7616 202.582 42.5613C203.095 42.3485 203.652 42.2421 204.253 42.2421C204.854 42.2421 205.405 42.3485 205.905 42.5613C206.419 42.7616 206.857 43.0433 207.22 43.4063C207.595 43.7568 207.883 44.1699 208.084 44.6457C208.296 45.1088 208.403 45.6096 208.403 46.1479C208.403 46.8489 208.19 47.5312 207.764 48.1947C207.351 48.8456 206.838 49.5154 206.225 50.2039L203.427 53.321H208.403V55.5555H199.915V53.8468ZM212.136 55.7245C211.66 55.7245 211.26 55.5618 210.934 55.2363C210.609 54.9108 210.446 54.5102 210.446 54.0345C210.446 53.5588 210.609 53.1582 210.934 52.8328C211.26 52.5073 211.66 52.3445 212.136 52.3445C212.612 52.3445 213.012 52.5073 213.338 52.8328C213.663 53.1582 213.826 53.5588 213.826 54.0345C213.826 54.5102 213.663 54.9108 213.338 55.2363C213.012 55.5618 212.612 55.7245 212.136 55.7245ZM220.113 55.7245C219.374 55.7245 218.73 55.6244 218.179 55.4241C217.628 55.2238 217.165 54.8921 216.789 54.4289C216.426 53.9657 216.151 53.3648 215.963 52.6262C215.775 51.8751 215.681 50.955 215.681 49.8659V47.9881C215.681 46.924 215.775 46.0289 215.963 45.3029C216.151 44.5643 216.426 43.9697 216.789 43.519C217.165 43.0683 217.628 42.7428 218.179 42.5425C218.73 42.3422 219.374 42.2421 220.113 42.2421C220.851 42.2421 221.496 42.3422 222.047 42.5425C222.598 42.7428 223.055 43.0683 223.418 43.519C223.793 43.9697 224.075 44.5643 224.263 45.3029C224.451 46.0289 224.544 46.924 224.544 47.9881V49.8659C224.544 50.955 224.451 51.8751 224.263 52.6262C224.075 53.3648 223.793 53.9657 223.418 54.4289C223.055 54.8921 222.598 55.2238 222.047 55.4241C221.496 55.6244 220.851 55.7245 220.113 55.7245ZM220.113 53.4712C220.401 53.4712 220.651 53.4274 220.864 53.3398C221.089 53.2396 221.271 53.0581 221.409 52.7952C221.559 52.5323 221.671 52.1693 221.747 51.7061C221.822 51.2304 221.859 50.617 221.859 49.8659V47.9881C221.859 47.262 221.822 46.6737 221.747 46.223C221.671 45.7598 221.559 45.403 221.409 45.1527C221.271 44.8898 221.089 44.7145 220.864 44.6269C220.651 44.5267 220.401 44.4767 220.113 44.4767C219.825 44.4767 219.568 44.5267 219.343 44.6269C219.13 44.7145 218.949 44.8898 218.798 45.1527C218.661 45.403 218.554 45.7598 218.479 46.223C218.404 46.6737 218.367 47.262 218.367 47.9881V49.8659C218.367 50.617 218.404 51.2304 218.479 51.7061C218.554 52.1693 218.661 52.5323 218.798 52.7952C218.949 53.0581 219.13 53.2396 219.343 53.3398C219.568 53.4274 219.825 53.4712 220.113 53.4712ZM231.545 42.4111H234.211V55.5555H231.545V42.4111ZM240.006 55.6682C239.467 55.6682 238.985 55.5868 238.56 55.4241C238.134 55.2488 237.771 54.9797 237.471 54.6167C237.17 54.2536 236.939 53.7842 236.776 53.2083C236.626 52.6199 236.55 51.9189 236.55 51.1052V49.8659C236.55 48.3136 236.857 47.1869 237.471 46.4859C238.084 45.7848 238.929 45.4343 240.006 45.4343C240.619 45.4343 241.138 45.5783 241.564 45.8662C241.99 46.1416 242.321 46.5172 242.559 46.9929V42.4111H245.094V55.5555H242.747V53.997C242.497 54.4977 242.152 54.9046 241.714 55.2175C241.289 55.518 240.719 55.6682 240.006 55.6682ZM240.794 53.5088C241.358 53.5088 241.789 53.3272 242.09 52.9642C242.403 52.6012 242.559 51.9815 242.559 51.1052V49.8659C242.559 49.0522 242.403 48.4701 242.09 48.1195C241.789 47.769 241.358 47.5938 240.794 47.5938C240.268 47.5938 239.849 47.769 239.536 48.1195C239.236 48.4701 239.085 49.0522 239.085 49.8659V51.1052C239.085 51.9815 239.236 52.6012 239.536 52.9642C239.849 53.3272 240.268 53.5088 240.794 53.5088ZM251.172 55.7245C250.534 55.7245 249.952 55.6244 249.426 55.4241C248.913 55.2238 248.475 54.9296 248.112 54.5415C247.749 54.1409 247.467 53.6527 247.267 53.0769C247.066 52.501 246.966 51.8438 246.966 51.1052V49.8659C246.966 48.4513 247.336 47.3622 248.074 46.5985C248.825 45.8224 249.827 45.4343 251.079 45.4343C252.33 45.4343 253.326 45.8224 254.064 46.5985C254.815 47.3622 255.191 48.4575 255.191 49.8847V51.2554H249.501C249.514 52.1818 249.664 52.8202 249.952 53.1708C250.252 53.5213 250.659 53.6965 251.172 53.6965C251.586 53.6965 251.899 53.5964 252.111 53.3961C252.324 53.1833 252.462 52.9329 252.524 52.645H255.003C254.865 53.5714 254.477 54.3162 253.839 54.8795C253.2 55.4429 252.312 55.7245 251.172 55.7245ZM251.154 47.4623C250.64 47.4623 250.246 47.6125 249.971 47.913C249.695 48.2009 249.539 48.7329 249.501 49.5091H252.806C252.769 48.7329 252.612 48.2009 252.337 47.913C252.061 47.6125 251.667 47.4623 251.154 47.4623ZM257.06 45.6033H259.407V47.1619C259.632 46.6486 259.989 46.2355 260.477 45.9225C260.966 45.5971 261.523 45.4343 262.149 45.4343C263.15 45.4343 263.933 45.7473 264.496 46.3732C265.072 46.9866 265.36 47.938 265.36 49.2274V55.5555H262.825V49.6218C262.825 48.8957 262.687 48.3762 262.412 48.0632C262.149 47.7502 261.779 47.5938 261.304 47.5938C260.778 47.5938 260.359 47.7628 260.046 48.1008C259.745 48.4388 259.595 48.9458 259.595 49.6218V55.5555H257.06V45.6033ZM271.513 55.5555C270.874 55.5555 270.336 55.4992 269.898 55.3865C269.46 55.2614 269.109 55.0673 268.846 54.8044C268.584 54.5415 268.39 54.1973 268.264 53.7717C268.152 53.3335 268.095 52.7952 268.095 52.1568V47.6877H266.743V45.6033H268.095V43.35H270.612V45.6033H272.564V47.6877H270.612V52.1568C270.612 52.67 270.699 53.0205 270.874 53.2083C271.05 53.3836 271.338 53.4712 271.738 53.4712H272.564V55.5555H271.513ZM274.505 45.6033H277.021V55.5555H274.505V45.6033ZM275.763 44.8522C275.35 44.8522 274.993 44.7082 274.693 44.4203C274.405 44.1199 274.261 43.7631 274.261 43.35C274.261 42.9369 274.405 42.5864 274.693 42.2984C274.993 41.998 275.35 41.8478 275.763 41.8478C276.176 41.8478 276.527 41.998 276.815 42.2984C277.115 42.5864 277.266 42.9369 277.266 43.35C277.266 43.7631 277.115 44.1199 276.815 44.4203C276.527 44.7082 276.176 44.8522 275.763 44.8522ZM283.542 55.5555C282.904 55.5555 282.366 55.4992 281.928 55.3865C281.489 55.2614 281.139 55.0673 280.876 54.8044C280.613 54.5415 280.419 54.1973 280.294 53.7717C280.181 53.3335 280.125 52.7952 280.125 52.1568V47.6877H278.773V45.6033H280.125V43.35H282.641V45.6033H284.594V47.6877H282.641V52.1568C282.641 52.67 282.729 53.0205 282.904 53.2083C283.079 53.3836 283.367 53.4712 283.768 53.4712H284.594V55.5555H283.542ZM286.816 57.2268C287.129 57.2268 287.405 57.1955 287.643 57.1329C287.88 57.0828 288.087 56.9952 288.262 56.87C288.438 56.7573 288.588 56.5946 288.713 56.3818C288.851 56.1815 288.97 55.9311 289.07 55.6307L285.277 45.6033H288.056L290.309 52.4572L292.318 45.6033H295.003L291.567 55.6307C291.304 56.4193 291.035 57.0515 290.76 57.5272C290.497 58.0154 290.184 58.391 289.821 58.6539C289.47 58.9168 289.051 59.092 288.563 59.1797C288.087 59.2673 287.505 59.3111 286.816 59.3111V57.2268ZM300.924 45.6033H303.271V47.1619C303.521 46.6611 303.859 46.2605 304.285 45.9601C304.723 45.6471 305.299 45.4907 306.012 45.4907C307.089 45.4907 307.934 45.8349 308.547 46.5234C309.161 47.2119 309.467 48.3261 309.467 49.8659V51.1052C309.467 51.9314 309.386 52.6387 309.223 53.2271C309.073 53.8029 308.848 54.2787 308.547 54.6542C308.247 55.0298 307.884 55.3052 307.458 55.4804C307.033 55.6432 306.551 55.7245 306.012 55.7245C305.399 55.7245 304.879 55.5868 304.454 55.3114C304.028 55.0235 303.696 54.6417 303.459 54.166V59.3111H300.924V45.6033ZM305.224 53.5651C305.749 53.5651 306.163 53.3836 306.463 53.0205C306.776 52.645 306.932 52.0065 306.932 51.1052V49.8659C306.932 49.0772 306.776 48.5139 306.463 48.1759C306.163 47.8254 305.749 47.6501 305.224 47.6501C304.66 47.6501 304.222 47.8254 303.909 48.1759C303.609 48.5139 303.459 49.0772 303.459 49.8659V51.1052C303.459 52.0065 303.609 52.645 303.909 53.0205C304.222 53.3836 304.66 53.5651 305.224 53.5651ZM311.396 45.6033H313.724V47.1619C313.962 46.6486 314.325 46.2355 314.813 45.9225C315.302 45.5971 315.859 45.4343 316.485 45.4343C316.61 45.4343 316.722 45.4406 316.823 45.4531C316.923 45.4656 317.01 45.4781 317.085 45.4907C317.173 45.5032 317.248 45.5157 317.311 45.5282V47.8379C317.186 47.8254 317.054 47.8066 316.916 47.7815C316.791 47.769 316.641 47.7565 316.466 47.744C316.303 47.7315 316.115 47.7252 315.902 47.7252C315.264 47.7252 314.769 47.8942 314.419 48.2322C314.081 48.5577 313.912 49.0209 313.912 49.6218V55.5555H311.396V45.6033ZM322.435 55.7245C321.108 55.7245 320.056 55.3302 319.28 54.5415C318.517 53.7404 318.135 52.5949 318.135 51.1052V49.8659C318.135 49.1774 318.235 48.5577 318.435 48.0069C318.635 47.4561 318.917 46.9929 319.28 46.6173C319.656 46.2292 320.106 45.9351 320.632 45.7348C321.17 45.5345 321.771 45.4343 322.435 45.4343C323.098 45.4343 323.693 45.5345 324.219 45.7348C324.757 45.9351 325.208 46.2292 325.571 46.6173C325.946 46.9929 326.234 47.4561 326.435 48.0069C326.635 48.5577 326.735 49.1774 326.735 49.8659V51.1052C326.735 52.5949 326.347 53.7404 325.571 54.5415C324.807 55.3302 323.762 55.7245 322.435 55.7245ZM322.435 53.5651C322.998 53.5651 323.43 53.3836 323.731 53.0205C324.043 52.645 324.2 52.0065 324.2 51.1052V49.8659C324.2 49.0522 324.043 48.4701 323.731 48.1195C323.43 47.769 322.998 47.5938 322.435 47.5938C321.872 47.5938 321.433 47.769 321.12 48.1195C320.82 48.4701 320.67 49.0522 320.67 49.8659V51.1052C320.67 52.0065 320.82 52.645 321.12 53.0205C321.433 53.3836 321.872 53.5651 322.435 53.5651ZM327.215 45.6033H329.994L332.247 52.4572L334.257 45.6033H336.942L333.543 55.5555H330.989L327.215 45.6033ZM338.43 45.6033H340.947V55.5555H338.43V45.6033ZM339.688 44.8522C339.275 44.8522 338.919 44.7082 338.618 44.4203C338.33 44.1199 338.186 43.7631 338.186 43.35C338.186 42.9369 338.33 42.5864 338.618 42.2984C338.919 41.998 339.275 41.8478 339.688 41.8478C340.102 41.8478 340.452 41.998 340.74 42.2984C341.04 42.5864 341.191 42.9369 341.191 43.35C341.191 43.7631 341.04 44.1199 340.74 44.4203C340.452 44.7082 340.102 44.8522 339.688 44.8522ZM346.547 55.6682C346.009 55.6682 345.527 55.5868 345.102 55.4241C344.676 55.2488 344.313 54.9797 344.012 54.6167C343.712 54.2536 343.48 53.7842 343.318 53.2083C343.167 52.6199 343.092 51.9189 343.092 51.1052V49.8659C343.092 48.3136 343.399 47.1869 344.012 46.4859C344.626 45.7848 345.471 45.4343 346.547 45.4343C347.161 45.4343 347.68 45.5783 348.106 45.8662C348.532 46.1416 348.863 46.5172 349.101 46.9929V42.4111H351.636V55.5555H349.289V53.997C349.039 54.4977 348.694 54.9046 348.256 55.2175C347.831 55.518 347.261 55.6682 346.547 55.6682ZM347.336 53.5088C347.899 53.5088 348.331 53.3272 348.632 52.9642C348.945 52.6012 349.101 51.9815 349.101 51.1052V49.8659C349.101 49.0522 348.945 48.4701 348.632 48.1195C348.331 47.769 347.899 47.5938 347.336 47.5938C346.81 47.5938 346.391 47.769 346.078 48.1195C345.778 48.4701 345.627 49.0522 345.627 49.8659V51.1052C345.627 51.9815 345.778 52.6012 346.078 52.9642C346.391 53.3272 346.81 53.5088 347.336 53.5088ZM357.714 55.7245C357.076 55.7245 356.494 55.6244 355.968 55.4241C355.455 55.2238 355.017 54.9296 354.654 54.5415C354.291 54.1409 354.009 53.6527 353.809 53.0769C353.608 52.501 353.508 51.8438 353.508 51.1052V49.8659C353.508 48.4513 353.877 47.3622 354.616 46.5985C355.367 45.8224 356.369 45.4343 357.62 45.4343C358.872 45.4343 359.868 45.8224 360.606 46.5985C361.357 47.3622 361.733 48.4575 361.733 49.8847V51.2554H356.043C356.056 52.1818 356.206 52.8202 356.494 53.1708C356.794 53.5213 357.201 53.6965 357.714 53.6965C358.127 53.6965 358.44 53.5964 358.653 53.3961C358.866 53.1833 359.004 52.9329 359.066 52.645H361.545C361.407 53.5714 361.019 54.3162 360.381 54.8795C359.742 55.4429 358.854 55.7245 357.714 55.7245ZM357.696 47.4623C357.182 47.4623 356.788 47.6125 356.513 47.913C356.237 48.2009 356.081 48.7329 356.043 49.5091H359.348C359.31 48.7329 359.154 48.2009 358.879 47.913C358.603 47.6125 358.209 47.4623 357.696 47.4623ZM363.658 45.6033H365.987V47.1619C366.224 46.6486 366.587 46.2355 367.076 45.9225C367.564 45.5971 368.121 45.4343 368.747 45.4343C368.872 45.4343 368.985 45.4406 369.085 45.4531C369.185 45.4656 369.273 45.4781 369.348 45.4907C369.435 45.5032 369.511 45.5157 369.573 45.5282V47.8379C369.448 47.8254 369.316 47.8066 369.179 47.7815C369.054 47.769 368.903 47.7565 368.728 47.744C368.565 47.7315 368.378 47.7252 368.165 47.7252C367.526 47.7252 367.032 47.8942 366.681 48.2322C366.343 48.5577 366.174 49.0209 366.174 49.6218V55.5555H363.658V45.6033Z" fill="#100C27"/>
<rect x="144.972" y="78.1667" width="168" height="9" rx="2.88889" fill="#D3D5DC"/>
<rect x="144.972" y="98" width="85" height="8" rx="2.88889" fill="#D3D5DC"/>
<rect x="181.083" y="118" width="61.3889" height="20" rx="4" fill="#876FEC"/>
<rect x="253.306" y="118" width="61.3889" height="20" rx="4" fill="#D3D5DC"/>
<rect x="325.528" y="118" width="61.3889" height="20" rx="4" fill="#D3D5DC"/>
<rect x="181.083" y="150" width="61.3889" height="20" rx="4" fill="#D3D5DC"/>
<rect x="253.306" y="150" width="61.3889" height="20" rx="4" fill="#D3D5DC"/>
<rect x="325.528" y="150" width="61.3889" height="20" rx="4" fill="#D3D5DC"/>
<rect x="181.083" y="182" width="61.3889" height="20" rx="4" fill="#D3D5DC"/>
<rect x="253.306" y="182" width="61.3889" height="20" rx="4" fill="#D3D5DC"/>
<rect x="325.528" y="182" width="61.3889" height="20" rx="4" fill="#D3D5DC"/>
<defs>
<filter id="filter0_dd_932_13679" x="125.472" y="22.5556" width="317.056" height="212.333" filterUnits="userSpaceOnUse" color-interpolation-filters="sRGB">
<feFlood flood-opacity="0" result="BackgroundImageFix"/>
<feColorMatrix in="SourceAlpha" type="matrix" values="0 0 0 0 0 0 0 0 0 0 0 0 0 0 0 0 0 0 127 0" result="hardAlpha"/>
<feMorphology radius="2.16667" operator="erode" in="SourceAlpha" result="effect1_dropShadow_932_13679"/>
<feOffset dy="7.22222"/>
<feGaussianBlur stdDeviation="5.41667"/>
<feComposite in2="hardAlpha" operator="out"/>
<feColorMatrix type="matrix" values="0 0 0 0 0.0666667 0 0 0 0 0.0941176 0 0 0 0 0.152941 0 0 0 0.1 0"/>
<feBlend mode="normal" in2="BackgroundImageFix" result="effect1_dropShadow_932_13679"/>
<feColorMatrix in="SourceAlpha" type="matrix" values="0 0 0 0 0 0 0 0 0 0 0 0 0 0 0 0 0 0 127 0" result="hardAlpha"/>
<feMorphology radius="1.44444" operator="erode" in="SourceAlpha" result="effect2_dropShadow_932_13679"/>
<feOffset dy="2.88889"/>
<feGaussianBlur stdDeviation="2.16667"/>
<feComposite in2="hardAlpha" operator="out"/>
<feColorMatrix type="matrix" values="0 0 0 0 0.0666667 0 0 0 0 0.0941176 0 0 0 0 0.152941 0 0 0 0.06 0"/>
<feBlend mode="normal" in2="effect1_dropShadow_932_13679" result="effect2_dropShadow_932_13679"/>
<feBlend mode="normal" in="SourceGraphic" in2="effect2_dropShadow_932_13679" result="shape"/>
</filter>
</defs>
</svg>
