<svg width="568" height="259" viewBox="0 0 568 259" fill="none" xmlns="http://www.w3.org/2000/svg">
<g filter="url(#filter0_dd_935_13952)">
<rect x="134.139" y="24" width="299.722" height="195" rx="5.77778" fill="white"/>
<rect x="134.5" y="24.3611" width="299" height="194.278" rx="5.41667" stroke="#D3D5DC" stroke-width="0.722222"/>
</g>
<path d="M146.418 42.4112H155.037V44.6458H149.103V47.8568H154.342V50.1101H149.103V55.5557H146.418V42.4112ZM157.167 42.4112H159.834V55.5557H157.167V42.4112ZM162.849 42.4112H167.6C169.214 42.4112 170.485 42.8994 171.411 43.8759C172.35 44.8398 172.82 46.2669 172.82 48.1572V49.6594C172.82 51.6248 172.35 53.102 171.411 54.091C170.485 55.0674 169.214 55.5557 167.6 55.5557H162.849V42.4112ZM167.6 53.3211C168.388 53.3211 169.008 53.0394 169.459 52.4761C169.909 51.9128 170.135 50.9739 170.135 49.6594V48.1572C170.135 46.9179 169.909 46.0228 169.459 45.472C169.008 44.9212 168.388 44.6458 167.6 44.6458H165.534V53.3211H167.6ZM179.996 55.7247C178.381 55.7247 177.104 55.2239 176.165 54.2224C175.239 53.2084 174.776 51.6561 174.776 49.5656V48.0633C174.776 46.148 175.239 44.7021 176.165 43.7257C177.104 42.7367 178.381 42.2422 179.996 42.2422C181.611 42.2422 182.881 42.7367 183.808 43.7257C184.747 44.7021 185.216 46.148 185.216 48.0633V49.5656C185.216 51.6561 184.747 53.2084 183.808 54.2224C182.881 55.2239 181.611 55.7247 179.996 55.7247ZM179.996 53.415C180.384 53.415 180.734 53.3524 181.047 53.2272C181.373 53.102 181.642 52.8892 181.855 52.5888C182.068 52.2883 182.23 51.894 182.343 51.4058C182.468 50.905 182.531 50.2916 182.531 49.5656V48.0633C182.531 46.799 182.305 45.8976 181.855 45.3593C181.404 44.821 180.784 44.5519 179.996 44.5519C179.207 44.5519 178.587 44.821 178.137 45.3593C177.686 45.8976 177.461 46.799 177.461 48.0633V49.5656C177.461 50.2916 177.517 50.905 177.63 51.4058C177.755 51.894 177.924 52.2883 178.137 52.5888C178.35 52.8892 178.612 53.102 178.925 53.2272C179.238 53.3524 179.595 53.415 179.996 53.415ZM187.115 53.8469L191.566 48.7206C192.054 48.1572 192.423 47.6815 192.674 47.2934C192.924 46.8928 193.049 46.511 193.049 46.148C193.049 45.6222 192.905 45.2154 192.617 44.9274C192.329 44.6395 191.941 44.4956 191.453 44.4956C190.965 44.4956 190.577 44.6395 190.289 44.9274C190.001 45.2154 189.857 45.6222 189.857 46.148H187.303C187.303 45.6097 187.403 45.109 187.604 44.6458C187.817 44.1701 188.104 43.757 188.467 43.4064C188.843 43.0434 189.281 42.7617 189.782 42.5614C190.295 42.3486 190.852 42.2422 191.453 42.2422C192.054 42.2422 192.605 42.3486 193.106 42.5614C193.619 42.7617 194.057 43.0434 194.42 43.4064C194.796 43.757 195.084 44.1701 195.284 44.6458C195.497 45.109 195.603 45.6097 195.603 46.148C195.603 46.849 195.39 47.5313 194.965 48.1948C194.551 48.8457 194.038 49.5155 193.425 50.204L190.627 53.3211H195.603V55.5557H187.115V53.8469ZM202.66 42.4112H211.279V44.6458H205.345V47.8568H210.584V50.1101H205.345V55.5557H202.66V42.4112ZM214.957 55.6683C214.056 55.6683 213.342 55.418 212.817 54.9172C212.303 54.4165 212.047 53.6779 212.047 52.7014C212.047 51.7 212.341 50.9426 212.929 50.4293C213.518 49.9036 214.4 49.6407 215.577 49.6407H217.643V49.0586C217.643 48.4952 217.524 48.1009 217.286 47.8756C217.06 47.6377 216.672 47.5188 216.122 47.5188C215.596 47.5188 215.227 47.6064 215.014 47.7817C214.813 47.9569 214.701 48.201 214.676 48.514H212.479C212.504 47.5376 212.798 46.7802 213.361 46.2419C213.937 45.7036 214.876 45.4344 216.178 45.4344C217.542 45.4344 218.525 45.7224 219.126 46.2982C219.727 46.8741 220.027 47.7879 220.027 49.0398V55.5557H217.83V53.9971C217.705 54.2224 217.561 54.4415 217.398 54.6543C217.236 54.8546 217.042 55.0299 216.816 55.1801C216.591 55.3303 216.328 55.4493 216.028 55.5369C215.727 55.6245 215.37 55.6683 214.957 55.6683ZM215.727 53.6403C216.341 53.6403 216.81 53.4713 217.136 53.1333C217.474 52.7953 217.643 52.3071 217.643 51.6687V51.3307H215.859C215.333 51.3307 214.964 51.4371 214.751 51.6499C214.551 51.8502 214.45 52.1318 214.45 52.4949C214.45 53.2585 214.876 53.6403 215.727 53.6403ZM226.013 55.7247C225.375 55.7247 224.793 55.6245 224.267 55.4242C223.753 55.2239 223.315 54.9297 222.952 54.5417C222.589 54.1411 222.308 53.6528 222.107 53.077C221.907 52.5011 221.807 51.8439 221.807 51.1053V49.866C221.807 49.1775 221.907 48.5578 222.107 48.007C222.308 47.4562 222.589 46.993 222.952 46.6174C223.315 46.2294 223.753 45.9352 224.267 45.7349C224.793 45.5346 225.375 45.4344 226.013 45.4344C226.652 45.4344 227.215 45.5221 227.703 45.6973C228.191 45.8726 228.604 46.1167 228.942 46.4297C229.28 46.7426 229.537 47.1119 229.712 47.5376C229.9 47.9632 230.006 48.4201 230.032 48.9083H227.478C227.415 48.5453 227.271 48.2386 227.046 47.9882C226.821 47.7253 226.476 47.5939 226.013 47.5939C225.5 47.5939 225.093 47.7691 224.793 48.1197C224.492 48.4702 224.342 49.0523 224.342 49.866V51.1053C224.342 52.0067 224.492 52.6451 224.793 53.0207C225.093 53.3837 225.5 53.5652 226.013 53.5652C226.476 53.5652 226.821 53.44 227.046 53.1897C227.271 52.9268 227.415 52.6138 227.478 52.2508H230.032C229.994 52.764 229.881 53.2335 229.694 53.6591C229.506 54.0722 229.243 54.4353 228.905 54.7482C228.579 55.0612 228.173 55.3053 227.684 55.4806C227.209 55.6433 226.652 55.7247 226.013 55.7247ZM235.754 55.5557C235.116 55.5557 234.578 55.4993 234.139 55.3867C233.701 55.2615 233.351 55.0674 233.088 54.8046C232.825 54.5417 232.631 54.1974 232.506 53.7718C232.393 53.3336 232.337 52.7953 232.337 52.1569V47.6878H230.985V45.6034H232.337V43.3501H234.853V45.6034H236.806V47.6878H234.853V52.1569C234.853 52.6701 234.941 53.0207 235.116 53.2084C235.291 53.3837 235.579 53.4713 235.98 53.4713H236.806V55.5557H235.754ZM242.446 55.7247C241.119 55.7247 240.067 55.3303 239.291 54.5417C238.528 53.7405 238.146 52.595 238.146 51.1053V49.866C238.146 49.1775 238.246 48.5578 238.446 48.007C238.646 47.4562 238.928 46.993 239.291 46.6174C239.667 46.2294 240.117 45.9352 240.643 45.7349C241.181 45.5346 241.782 45.4344 242.446 45.4344C243.109 45.4344 243.704 45.5346 244.23 45.7349C244.768 45.9352 245.219 46.2294 245.582 46.6174C245.957 46.993 246.245 47.4562 246.445 48.007C246.646 48.5578 246.746 49.1775 246.746 49.866V51.1053C246.746 52.595 246.358 53.7405 245.582 54.5417C244.818 55.3303 243.773 55.7247 242.446 55.7247ZM242.446 53.5652C243.009 53.5652 243.441 53.3837 243.741 53.0207C244.054 52.6451 244.211 52.0067 244.211 51.1053V49.866C244.211 49.0523 244.054 48.4702 243.741 48.1197C243.441 47.7691 243.009 47.5939 242.446 47.5939C241.882 47.5939 241.444 47.7691 241.131 48.1197C240.831 48.4702 240.681 49.0523 240.681 49.866V51.1053C240.681 52.0067 240.831 52.6451 241.131 53.0207C241.444 53.3837 241.882 53.5652 242.446 53.5652ZM248.681 45.6034H251.009V47.162C251.247 46.6487 251.61 46.2356 252.098 45.9227C252.587 45.5972 253.144 45.4344 253.77 45.4344C253.895 45.4344 254.007 45.4407 254.108 45.4532C254.208 45.4657 254.295 45.4783 254.37 45.4908C254.458 45.5033 254.533 45.5158 254.596 45.5283V47.838C254.471 47.8255 254.339 47.8067 254.201 47.7817C254.076 47.7691 253.926 47.7566 253.751 47.7441C253.588 47.7316 253.4 47.7253 253.187 47.7253C252.549 47.7253 252.055 47.8943 251.704 48.2323C251.366 48.5578 251.197 49.021 251.197 49.6219V55.5557H248.681V45.6034Z" fill="#100C27"/>
<rect x="144.972" y="78.1667" width="168" height="9" rx="2.88889" fill="#D3D5DC"/>
<rect x="144.972" y="98" width="85" height="8" rx="2.88889" fill="#D3D5DC"/>
<rect x="181.083" y="118" width="61.3889" height="20" rx="4" fill="#876FEC"/>
<rect x="253.306" y="118" width="61.3889" height="20" rx="4" fill="#D3D5DC"/>
<rect x="325.528" y="118" width="61.3889" height="20" rx="4" fill="#D3D5DC"/>
<rect x="181.083" y="150" width="61.3889" height="20" rx="4" fill="#D3D5DC"/>
<rect x="253.306" y="150" width="61.3889" height="20" rx="4" fill="#D3D5DC"/>
<rect x="325.528" y="150" width="61.3889" height="20" rx="4" fill="#D3D5DC"/>
<rect x="181.083" y="182" width="61.3889" height="20" rx="4" fill="#D3D5DC"/>
<rect x="253.306" y="182" width="61.3889" height="20" rx="4" fill="#D3D5DC"/>
<rect x="325.528" y="182" width="61.3889" height="20" rx="4" fill="#D3D5DC"/>
<defs>
<filter id="filter0_dd_935_13952" x="125.472" y="22.5556" width="317.056" height="212.333" filterUnits="userSpaceOnUse" color-interpolation-filters="sRGB">
<feFlood flood-opacity="0" result="BackgroundImageFix"/>
<feColorMatrix in="SourceAlpha" type="matrix" values="0 0 0 0 0 0 0 0 0 0 0 0 0 0 0 0 0 0 127 0" result="hardAlpha"/>
<feMorphology radius="2.16667" operator="erode" in="SourceAlpha" result="effect1_dropShadow_935_13952"/>
<feOffset dy="7.22222"/>
<feGaussianBlur stdDeviation="5.41667"/>
<feComposite in2="hardAlpha" operator="out"/>
<feColorMatrix type="matrix" values="0 0 0 0 0.0666667 0 0 0 0 0.0941176 0 0 0 0 0.152941 0 0 0 0.1 0"/>
<feBlend mode="normal" in2="BackgroundImageFix" result="effect1_dropShadow_935_13952"/>
<feColorMatrix in="SourceAlpha" type="matrix" values="0 0 0 0 0 0 0 0 0 0 0 0 0 0 0 0 0 0 127 0" result="hardAlpha"/>
<feMorphology radius="1.44444" operator="erode" in="SourceAlpha" result="effect2_dropShadow_935_13952"/>
<feOffset dy="2.88889"/>
<feGaussianBlur stdDeviation="2.16667"/>
<feComposite in2="hardAlpha" operator="out"/>
<feColorMatrix type="matrix" values="0 0 0 0 0.0666667 0 0 0 0 0.0941176 0 0 0 0 0.152941 0 0 0 0.06 0"/>
<feBlend mode="normal" in2="effect1_dropShadow_935_13952" result="effect2_dropShadow_935_13952"/>
<feBlend mode="normal" in="SourceGraphic" in2="effect2_dropShadow_935_13952" result="shape"/>
</filter>
</defs>
</svg>
