<svg width="568" height="259" viewBox="0 0 568 259" fill="none" xmlns="http://www.w3.org/2000/svg">
<g filter="url(#filter0_dd_935_14030)">
<rect x="134.139" y="24" width="299.722" height="195" rx="5.77778" fill="white"/>
<rect x="134.5" y="24.3611" width="299" height="194.278" rx="5.41667" stroke="#D3D5DC" stroke-width="0.722222"/>
</g>
<path d="M146.418 42.4112H151.244C152.108 42.4112 152.859 42.5114 153.498 42.7117C154.136 42.912 154.662 43.1999 155.075 43.5754C155.5 43.9385 155.82 44.3766 156.033 44.8899C156.245 45.3906 156.352 45.9477 156.352 46.5611C156.352 47.4249 156.151 48.176 155.751 48.8144C155.363 49.4529 154.768 49.9411 153.967 50.2791L156.727 55.5557H153.798L151.376 50.7486H149.104V55.5557H146.418V42.4112ZM151.244 48.4952C152.108 48.4952 152.728 48.3262 153.103 47.9882C153.479 47.6502 153.667 47.1745 153.667 46.5611C153.667 45.9602 153.479 45.4908 153.103 45.1528C152.728 44.8148 152.108 44.6458 151.244 44.6458H149.104V48.4952H151.244ZM161.831 55.7247C161.193 55.7247 160.611 55.6245 160.085 55.4242C159.572 55.2239 159.134 54.9297 158.771 54.5417C158.408 54.1411 158.126 53.6528 157.926 53.077C157.725 52.5011 157.625 51.8439 157.625 51.1053V49.866C157.625 48.4514 157.994 47.3623 158.733 46.5987C159.484 45.8225 160.486 45.4344 161.737 45.4344C162.989 45.4344 163.985 45.8225 164.723 46.5987C165.474 47.3623 165.85 48.4577 165.85 49.8848V51.2556H160.16C160.173 52.1819 160.323 52.8204 160.611 53.1709C160.911 53.5214 161.318 53.6967 161.831 53.6967C162.244 53.6967 162.557 53.5965 162.77 53.3962C162.983 53.1834 163.121 52.933 163.183 52.6451H165.662C165.524 53.5715 165.136 54.3163 164.498 54.8797C163.859 55.443 162.971 55.7247 161.831 55.7247ZM161.813 47.4624C161.299 47.4624 160.905 47.6127 160.63 47.9131C160.354 48.201 160.198 48.7331 160.16 49.5092H163.465C163.427 48.7331 163.271 48.201 162.996 47.9131C162.72 47.6127 162.326 47.4624 161.813 47.4624ZM171.587 55.7247C170.949 55.7247 170.366 55.6245 169.841 55.4242C169.327 55.2239 168.889 54.9297 168.526 54.5417C168.163 54.1411 167.881 53.6528 167.681 53.077C167.481 52.5011 167.381 51.8439 167.381 51.1053V49.866C167.381 49.1775 167.481 48.5578 167.681 48.007C167.881 47.4562 168.163 46.993 168.526 46.6174C168.889 46.2294 169.327 45.9352 169.841 45.7349C170.366 45.5346 170.949 45.4344 171.587 45.4344C172.225 45.4344 172.789 45.5221 173.277 45.6973C173.765 45.8726 174.178 46.1167 174.516 46.4297C174.854 46.7426 175.111 47.1119 175.286 47.5376C175.474 47.9632 175.58 48.4201 175.605 48.9083H173.052C172.989 48.5453 172.845 48.2386 172.62 47.9882C172.394 47.7253 172.05 47.5939 171.587 47.5939C171.074 47.5939 170.667 47.7691 170.366 48.1197C170.066 48.4702 169.916 49.0523 169.916 49.866V51.1053C169.916 52.0067 170.066 52.6451 170.366 53.0207C170.667 53.3837 171.074 53.5652 171.587 53.5652C172.05 53.5652 172.394 53.44 172.62 53.1897C172.845 52.9268 172.989 52.6138 173.052 52.2508H175.605C175.568 52.764 175.455 53.2335 175.267 53.6591C175.08 54.0722 174.817 54.4353 174.479 54.7482C174.153 55.0612 173.746 55.3053 173.258 55.4806C172.782 55.6433 172.225 55.7247 171.587 55.7247ZM181.07 55.7247C179.743 55.7247 178.691 55.3303 177.915 54.5417C177.151 53.7405 176.77 52.595 176.77 51.1053V49.866C176.77 49.1775 176.87 48.5578 177.07 48.007C177.27 47.4562 177.552 46.993 177.915 46.6174C178.291 46.2294 178.741 45.9352 179.267 45.7349C179.805 45.5346 180.406 45.4344 181.07 45.4344C181.733 45.4344 182.328 45.5346 182.854 45.7349C183.392 45.9352 183.843 46.2294 184.206 46.6174C184.581 46.993 184.869 47.4562 185.069 48.007C185.27 48.5578 185.37 49.1775 185.37 49.866V51.1053C185.37 52.595 184.982 53.7405 184.206 54.5417C183.442 55.3303 182.397 55.7247 181.07 55.7247ZM181.07 53.5652C181.633 53.5652 182.065 53.3837 182.365 53.0207C182.678 52.6451 182.835 52.0067 182.835 51.1053V49.866C182.835 49.0523 182.678 48.4702 182.365 48.1197C182.065 47.7691 181.633 47.5939 181.07 47.5939C180.506 47.5939 180.068 47.7691 179.755 48.1197C179.455 48.4702 179.305 49.0523 179.305 49.866V51.1053C179.305 52.0067 179.455 52.6451 179.755 53.0207C180.068 53.3837 180.506 53.5652 181.07 53.5652ZM185.85 45.6034H188.629L190.882 52.4573L192.891 45.6034H195.577L192.178 55.5557H189.624L185.85 45.6034ZM200.267 55.7247C199.629 55.7247 199.047 55.6245 198.521 55.4242C198.008 55.2239 197.569 54.9297 197.206 54.5417C196.843 54.1411 196.562 53.6528 196.361 53.077C196.161 52.5011 196.061 51.8439 196.061 51.1053V49.866C196.061 48.4514 196.43 47.3623 197.169 46.5987C197.92 45.8225 198.921 45.4344 200.173 45.4344C201.425 45.4344 202.42 45.8225 203.159 46.5987C203.91 47.3623 204.286 48.4577 204.286 49.8848V51.2556H198.596C198.608 52.1819 198.759 52.8204 199.047 53.1709C199.347 53.5214 199.754 53.6967 200.267 53.6967C200.68 53.6967 200.993 53.5965 201.206 53.3962C201.419 53.1834 201.557 52.933 201.619 52.6451H204.098C203.96 53.5715 203.572 54.3163 202.934 54.8797C202.295 55.443 201.406 55.7247 200.267 55.7247ZM200.248 47.4624C199.735 47.4624 199.341 47.6127 199.065 47.9131C198.79 48.201 198.633 48.7331 198.596 49.5092H201.901C201.863 48.7331 201.707 48.201 201.431 47.9131C201.156 47.6127 200.762 47.4624 200.248 47.4624ZM206.211 45.6034H208.539V47.162C208.777 46.6487 209.14 46.2356 209.628 45.9227C210.117 45.5972 210.674 45.4344 211.3 45.4344C211.425 45.4344 211.537 45.4407 211.638 45.4532C211.738 45.4657 211.825 45.4783 211.901 45.4908C211.988 45.5033 212.063 45.5158 212.126 45.5283V47.838C212.001 47.8255 211.869 47.8067 211.732 47.7817C211.606 47.7691 211.456 47.7566 211.281 47.7441C211.118 47.7316 210.93 47.7253 210.718 47.7253C210.079 47.7253 209.585 47.8943 209.234 48.2323C208.896 48.5578 208.727 49.021 208.727 49.6219V55.5557H206.211V45.6034ZM214.016 57.2269C214.329 57.2269 214.604 57.1956 214.842 57.133C215.08 57.0829 215.286 56.9953 215.462 56.8701C215.637 56.7574 215.787 56.5947 215.912 56.3819C216.05 56.1816 216.169 55.9312 216.269 55.6308L212.476 45.6034H215.255L217.508 52.4573L219.518 45.6034H222.203L218.767 55.6308C218.504 56.4194 218.235 57.0516 217.959 57.5273C217.696 58.0156 217.383 58.3911 217.02 58.654C216.67 58.9169 216.25 59.0921 215.762 59.1798C215.286 59.2674 214.704 59.3112 214.016 59.3112V57.2269ZM231.991 55.7247C231.353 55.7247 230.771 55.6245 230.245 55.4242C229.732 55.2239 229.294 54.9297 228.93 54.5417C228.567 54.1411 228.286 53.6528 228.085 53.077C227.885 52.5011 227.785 51.8439 227.785 51.1053V49.866C227.785 49.1775 227.885 48.5578 228.085 48.007C228.286 47.4562 228.567 46.993 228.93 46.6174C229.294 46.2294 229.732 45.9352 230.245 45.7349C230.771 45.5346 231.353 45.4344 231.991 45.4344C232.63 45.4344 233.193 45.5221 233.681 45.6973C234.169 45.8726 234.583 46.1167 234.921 46.4297C235.259 46.7426 235.515 47.1119 235.69 47.5376C235.878 47.9632 235.985 48.4201 236.01 48.9083H233.456C233.393 48.5453 233.249 48.2386 233.024 47.9882C232.799 47.7253 232.454 47.5939 231.991 47.5939C231.478 47.5939 231.071 47.7691 230.771 48.1197C230.47 48.4702 230.32 49.0523 230.32 49.866V51.1053C230.32 52.0067 230.47 52.6451 230.771 53.0207C231.071 53.3837 231.478 53.5652 231.991 53.5652C232.454 53.5652 232.799 53.44 233.024 53.1897C233.249 52.9268 233.393 52.6138 233.456 52.2508H236.01C235.972 52.764 235.859 53.2335 235.672 53.6591C235.484 54.0722 235.221 54.4353 234.883 54.7482C234.558 55.0612 234.151 55.3053 233.662 55.4806C233.187 55.6433 232.63 55.7247 231.991 55.7247ZM241.474 55.7247C240.147 55.7247 239.096 55.3303 238.319 54.5417C237.556 53.7405 237.174 52.595 237.174 51.1053V49.866C237.174 49.1775 237.274 48.5578 237.474 48.007C237.675 47.4562 237.956 46.993 238.319 46.6174C238.695 46.2294 239.146 45.9352 239.671 45.7349C240.21 45.5346 240.811 45.4344 241.474 45.4344C242.138 45.4344 242.732 45.5346 243.258 45.7349C243.796 45.9352 244.247 46.2294 244.61 46.6174C244.985 46.993 245.273 47.4562 245.474 48.007C245.674 48.5578 245.774 49.1775 245.774 49.866V51.1053C245.774 52.595 245.386 53.7405 244.61 54.5417C243.846 55.3303 242.801 55.7247 241.474 55.7247ZM241.474 53.5652C242.037 53.5652 242.469 53.3837 242.77 53.0207C243.083 52.6451 243.239 52.0067 243.239 51.1053V49.866C243.239 49.0523 243.083 48.4702 242.77 48.1197C242.469 47.7691 242.037 47.5939 241.474 47.5939C240.911 47.5939 240.473 47.7691 240.16 48.1197C239.859 48.4702 239.709 49.0523 239.709 49.866V51.1053C239.709 52.0067 239.859 52.6451 240.16 53.0207C240.473 53.3837 240.911 53.5652 241.474 53.5652ZM250.77 55.6683C250.231 55.6683 249.75 55.587 249.324 55.4242C248.898 55.249 248.535 54.9798 248.235 54.6168C247.934 54.2537 247.703 53.7843 247.54 53.2084C247.39 52.6201 247.315 51.919 247.315 51.1053V49.866C247.315 48.3137 247.621 47.187 248.235 46.486C248.848 45.785 249.693 45.4344 250.77 45.4344C251.383 45.4344 251.903 45.5784 252.328 45.8663C252.754 46.1417 253.086 46.5173 253.324 46.993V42.4112H255.859V55.5557H253.511V53.9971C253.261 54.4978 252.917 54.9047 252.479 55.2177C252.053 55.5181 251.483 55.6683 250.77 55.6683ZM251.558 53.5089C252.122 53.5089 252.554 53.3274 252.854 52.9643C253.167 52.6013 253.324 51.9816 253.324 51.1053V49.866C253.324 49.0523 253.167 48.4702 252.854 48.1197C252.554 47.7691 252.122 47.5939 251.558 47.5939C251.033 47.5939 250.613 47.7691 250.3 48.1197C250 48.4702 249.85 49.0523 249.85 49.866V51.1053C249.85 51.9816 250 52.6013 250.3 52.9643C250.613 53.3274 251.033 53.5089 251.558 53.5089ZM261.937 55.7247C261.298 55.7247 260.716 55.6245 260.19 55.4242C259.677 55.2239 259.239 54.9297 258.876 54.5417C258.513 54.1411 258.231 53.6528 258.031 53.077C257.831 52.5011 257.73 51.8439 257.73 51.1053V49.866C257.73 48.4514 258.1 47.3623 258.838 46.5987C259.589 45.8225 260.591 45.4344 261.843 45.4344C263.095 45.4344 264.09 45.8225 264.828 46.5987C265.58 47.3623 265.955 48.4577 265.955 49.8848V51.2556H260.265C260.278 52.1819 260.428 52.8204 260.716 53.1709C261.017 53.5214 261.423 53.6967 261.937 53.6967C262.35 53.6967 262.663 53.5965 262.876 53.3962C263.088 53.1834 263.226 52.933 263.289 52.6451H265.767C265.63 53.5715 265.242 54.3163 264.603 54.8797C263.965 55.443 263.076 55.7247 261.937 55.7247ZM261.918 47.4624C261.405 47.4624 261.01 47.6127 260.735 47.9131C260.46 48.201 260.303 48.7331 260.265 49.5092H263.57C263.533 48.7331 263.376 48.201 263.101 47.9131C262.826 47.6127 262.431 47.4624 261.918 47.4624ZM272.857 42.4112H281.476V44.6458H275.542V47.8568H280.781V50.1101H275.542V55.5557H272.857V42.4112ZM285.154 55.6683C284.253 55.6683 283.539 55.418 283.013 54.9172C282.5 54.4165 282.244 53.6779 282.244 52.7014C282.244 51.7 282.538 50.9426 283.126 50.4293C283.714 49.9036 284.597 49.6407 285.774 49.6407H287.839V49.0586C287.839 48.4952 287.72 48.1009 287.483 47.8756C287.257 47.6377 286.869 47.5188 286.318 47.5188C285.793 47.5188 285.423 47.6064 285.21 47.7817C285.01 47.9569 284.897 48.201 284.872 48.514H282.675C282.7 47.5376 282.995 46.7802 283.558 46.2419C284.134 45.7036 285.073 45.4344 286.375 45.4344C287.739 45.4344 288.722 45.7224 289.323 46.2982C289.924 46.8741 290.224 47.7879 290.224 49.0398V55.5557H288.027V53.9971C287.902 54.2224 287.758 54.4415 287.595 54.6543C287.432 54.8546 287.238 55.0299 287.013 55.1801C286.788 55.3303 286.525 55.4493 286.224 55.5369C285.924 55.6245 285.567 55.6683 285.154 55.6683ZM285.924 53.6403C286.537 53.6403 287.007 53.4713 287.332 53.1333C287.67 52.7953 287.839 52.3071 287.839 51.6687V51.3307H286.055C285.53 51.3307 285.16 51.4371 284.948 51.6499C284.747 51.8502 284.647 52.1318 284.647 52.4949C284.647 53.2585 285.073 53.6403 285.924 53.6403ZM296.21 55.7247C295.571 55.7247 294.989 55.6245 294.463 55.4242C293.95 55.2239 293.512 54.9297 293.149 54.5417C292.786 54.1411 292.504 53.6528 292.304 53.077C292.104 52.5011 292.004 51.8439 292.004 51.1053V49.866C292.004 49.1775 292.104 48.5578 292.304 48.007C292.504 47.4562 292.786 46.993 293.149 46.6174C293.512 46.2294 293.95 45.9352 294.463 45.7349C294.989 45.5346 295.571 45.4344 296.21 45.4344C296.848 45.4344 297.412 45.5221 297.9 45.6973C298.388 45.8726 298.801 46.1167 299.139 46.4297C299.477 46.7426 299.734 47.1119 299.909 47.5376C300.097 47.9632 300.203 48.4201 300.228 48.9083H297.674C297.612 48.5453 297.468 48.2386 297.243 47.9882C297.017 47.7253 296.673 47.5939 296.21 47.5939C295.697 47.5939 295.29 47.7691 294.989 48.1197C294.689 48.4702 294.539 49.0523 294.539 49.866V51.1053C294.539 52.0067 294.689 52.6451 294.989 53.0207C295.29 53.3837 295.697 53.5652 296.21 53.5652C296.673 53.5652 297.017 53.44 297.243 53.1897C297.468 52.9268 297.612 52.6138 297.674 52.2508H300.228C300.191 52.764 300.078 53.2335 299.89 53.6591C299.702 54.0722 299.44 54.4353 299.102 54.7482C298.776 55.0612 298.369 55.3053 297.881 55.4806C297.405 55.6433 296.848 55.7247 296.21 55.7247ZM305.951 55.5557C305.313 55.5557 304.774 55.4993 304.336 55.3867C303.898 55.2615 303.548 55.0674 303.285 54.8046C303.022 54.5417 302.828 54.1974 302.703 53.7718C302.59 53.3336 302.534 52.7953 302.534 52.1569V47.6878H301.182V45.6034H302.534V43.3501H305.05V45.6034H307.003V47.6878H305.05V52.1569C305.05 52.6701 305.137 53.0207 305.313 53.2084C305.488 53.3837 305.776 53.4713 306.176 53.4713H307.003V55.5557H305.951ZM312.643 55.7247C311.316 55.7247 310.264 55.3303 309.488 54.5417C308.724 53.7405 308.342 52.595 308.342 51.1053V49.866C308.342 49.1775 308.443 48.5578 308.643 48.007C308.843 47.4562 309.125 46.993 309.488 46.6174C309.863 46.2294 310.314 45.9352 310.84 45.7349C311.378 45.5346 311.979 45.4344 312.643 45.4344C313.306 45.4344 313.901 45.5346 314.426 45.7349C314.965 45.9352 315.415 46.2294 315.778 46.6174C316.154 46.993 316.442 47.4562 316.642 48.007C316.843 48.5578 316.943 49.1775 316.943 49.866V51.1053C316.943 52.595 316.555 53.7405 315.778 54.5417C315.015 55.3303 313.97 55.7247 312.643 55.7247ZM312.643 53.5652C313.206 53.5652 313.638 53.3837 313.938 53.0207C314.251 52.6451 314.408 52.0067 314.408 51.1053V49.866C314.408 49.0523 314.251 48.4702 313.938 48.1197C313.638 47.7691 313.206 47.5939 312.643 47.5939C312.079 47.5939 311.641 47.7691 311.328 48.1197C311.028 48.4702 310.877 49.0523 310.877 49.866V51.1053C310.877 52.0067 311.028 52.6451 311.328 53.0207C311.641 53.3837 312.079 53.5652 312.643 53.5652ZM318.878 45.6034H321.206V47.162C321.444 46.6487 321.807 46.2356 322.295 45.9227C322.783 45.5972 323.34 45.4344 323.966 45.4344C324.091 45.4344 324.204 45.4407 324.304 45.4532C324.404 45.4657 324.492 45.4783 324.567 45.4908C324.655 45.5033 324.73 45.5158 324.793 45.5283V47.838C324.667 47.8255 324.536 47.8067 324.398 47.7817C324.273 47.7691 324.123 47.7566 323.948 47.7441C323.785 47.7316 323.597 47.7253 323.384 47.7253C322.746 47.7253 322.251 47.8943 321.901 48.2323C321.563 48.5578 321.394 49.021 321.394 49.6219V55.5557H318.878V45.6034Z" fill="#100C27"/>
<rect x="144.972" y="78.1667" width="168" height="9" rx="2.88889" fill="#D3D5DC"/>
<rect x="144.972" y="98" width="85" height="8" rx="2.88889" fill="#D3D5DC"/>
<rect x="181.083" y="118" width="61.3889" height="20" rx="4" fill="#876FEC"/>
<rect x="253.306" y="118" width="61.3889" height="20" rx="4" fill="#D3D5DC"/>
<rect x="325.528" y="118" width="61.3889" height="20" rx="4" fill="#D3D5DC"/>
<rect x="181.083" y="150" width="61.3889" height="20" rx="4" fill="#D3D5DC"/>
<rect x="253.306" y="150" width="61.3889" height="20" rx="4" fill="#D3D5DC"/>
<rect x="325.528" y="150" width="61.3889" height="20" rx="4" fill="#D3D5DC"/>
<rect x="181.083" y="182" width="61.3889" height="20" rx="4" fill="#D3D5DC"/>
<rect x="253.306" y="182" width="61.3889" height="20" rx="4" fill="#D3D5DC"/>
<rect x="325.528" y="182" width="61.3889" height="20" rx="4" fill="#D3D5DC"/>
<defs>
<filter id="filter0_dd_935_14030" x="125.472" y="22.5556" width="317.056" height="212.333" filterUnits="userSpaceOnUse" color-interpolation-filters="sRGB">
<feFlood flood-opacity="0" result="BackgroundImageFix"/>
<feColorMatrix in="SourceAlpha" type="matrix" values="0 0 0 0 0 0 0 0 0 0 0 0 0 0 0 0 0 0 127 0" result="hardAlpha"/>
<feMorphology radius="2.16667" operator="erode" in="SourceAlpha" result="effect1_dropShadow_935_14030"/>
<feOffset dy="7.22222"/>
<feGaussianBlur stdDeviation="5.41667"/>
<feComposite in2="hardAlpha" operator="out"/>
<feColorMatrix type="matrix" values="0 0 0 0 0.0666667 0 0 0 0 0.0941176 0 0 0 0 0.152941 0 0 0 0.1 0"/>
<feBlend mode="normal" in2="BackgroundImageFix" result="effect1_dropShadow_935_14030"/>
<feColorMatrix in="SourceAlpha" type="matrix" values="0 0 0 0 0 0 0 0 0 0 0 0 0 0 0 0 0 0 127 0" result="hardAlpha"/>
<feMorphology radius="1.44444" operator="erode" in="SourceAlpha" result="effect2_dropShadow_935_14030"/>
<feOffset dy="2.88889"/>
<feGaussianBlur stdDeviation="2.16667"/>
<feComposite in2="hardAlpha" operator="out"/>
<feColorMatrix type="matrix" values="0 0 0 0 0.0666667 0 0 0 0 0.0941176 0 0 0 0 0.152941 0 0 0 0.06 0"/>
<feBlend mode="normal" in2="effect1_dropShadow_935_14030" result="effect2_dropShadow_935_14030"/>
<feBlend mode="normal" in="SourceGraphic" in2="effect2_dropShadow_935_14030" result="shape"/>
</filter>
</defs>
</svg>
