<svg width="568" height="259" viewBox="0 0 568 259" fill="none" xmlns="http://www.w3.org/2000/svg">
<g filter="url(#filter0_dd_842_15969)">
<rect x="134.139" y="24" width="299.722" height="195" rx="5.77778" fill="white"/>
<rect x="134.5" y="24.3611" width="299" height="194.278" rx="5.41667" stroke="#D3D5DC" stroke-width="0.722222"/>
</g>
<path d="M150.775 55.7247C149.898 55.7247 149.147 55.637 148.521 55.4618C147.895 55.274 147.382 55.0111 146.982 54.6731C146.581 54.3226 146.28 53.9032 146.08 53.415C145.88 52.9268 145.773 52.3822 145.761 51.7813H148.465C148.49 52.2946 148.665 52.6952 148.991 52.9831C149.329 53.271 149.923 53.415 150.775 53.415C151.626 53.415 152.221 53.2836 152.559 53.0207C152.909 52.7453 153.084 52.3947 153.084 51.9691C153.084 51.7187 153.04 51.4997 152.953 51.3119C152.865 51.1116 152.709 50.9363 152.483 50.7861C152.258 50.6359 151.958 50.4919 151.582 50.3542C151.207 50.2165 150.731 50.0788 150.155 49.9411C149.454 49.7658 148.847 49.5656 148.334 49.3402C147.833 49.1024 147.413 48.827 147.075 48.514C146.737 48.201 146.487 47.838 146.324 47.4249C146.162 46.9993 146.08 46.5048 146.08 45.9414C146.08 45.3906 146.174 44.8899 146.362 44.4392C146.55 43.9886 146.838 43.6005 147.226 43.275C147.614 42.9495 148.102 42.6991 148.69 42.5239C149.279 42.3361 149.973 42.2422 150.775 42.2422C152.377 42.2422 153.554 42.5927 154.305 43.2938C155.068 43.9948 155.463 44.94 155.488 46.1292H152.803C152.778 45.641 152.609 45.2592 152.296 44.9838C151.995 44.6958 151.488 44.5519 150.775 44.5519C150.061 44.5519 149.548 44.6833 149.235 44.9462C148.922 45.2091 148.765 45.5408 148.765 45.9414C148.765 46.1793 148.809 46.3858 148.897 46.5611C148.997 46.7364 149.153 46.8928 149.366 47.0306C149.579 47.1683 149.861 47.2997 150.211 47.4249C150.562 47.5376 151 47.6565 151.526 47.7817C152.277 47.9694 152.915 48.1885 153.441 48.4389C153.979 48.6767 154.418 48.9584 154.756 49.2839C155.106 49.6094 155.363 49.9912 155.525 50.4293C155.688 50.8675 155.77 51.3807 155.77 51.9691C155.77 52.5324 155.669 53.0457 155.469 53.5089C155.281 53.9596 154.981 54.3539 154.568 54.6919C154.167 55.0174 153.648 55.274 153.009 55.4618C152.383 55.637 151.638 55.7247 150.775 55.7247ZM158.063 42.4112H160.767L164.485 49.9036L168.203 42.4112H170.756V55.5557H168.203V46.9179L165.367 52.7578H163.452L160.616 46.9179V55.5557H158.063V42.4112ZM176.222 44.6458H172.448V42.4112H182.663V44.6458H178.889V55.5557H176.222V44.6458ZM184.359 42.4112H189.128C190.868 42.4112 192.164 42.8056 193.015 43.5942C193.867 44.3829 194.292 45.447 194.292 46.7864C194.292 48.1384 193.867 49.2088 193.015 49.9974C192.164 50.7861 190.868 51.1804 189.128 51.1804H187.044V55.5557H184.359V42.4112ZM189.128 48.9271C190.017 48.9271 190.649 48.7518 191.025 48.4013C191.413 48.0383 191.607 47.5 191.607 46.7864C191.607 46.0729 191.413 45.5408 191.025 45.1903C190.649 44.8273 190.017 44.6458 189.128 44.6458H187.044V48.9271H189.128ZM200.783 45.6034H203.111V47.162C203.349 46.6487 203.712 46.2356 204.2 45.9227C204.689 45.5972 205.246 45.4344 205.872 45.4344C205.997 45.4344 206.109 45.4407 206.21 45.4532C206.31 45.4657 206.397 45.4783 206.472 45.4908C206.56 45.5033 206.635 45.5158 206.698 45.5283V47.838C206.573 47.8255 206.441 47.8067 206.303 47.7817C206.178 47.7691 206.028 47.7566 205.853 47.7441C205.69 47.7316 205.502 47.7253 205.289 47.7253C204.651 47.7253 204.157 47.8943 203.806 48.2323C203.468 48.5578 203.299 49.021 203.299 49.6219V55.5557H200.783V45.6034ZM211.728 55.7247C211.09 55.7247 210.507 55.6245 209.982 55.4242C209.468 55.2239 209.03 54.9297 208.667 54.5417C208.304 54.1411 208.023 53.6528 207.822 53.077C207.622 52.5011 207.522 51.8439 207.522 51.1053V49.866C207.522 48.4514 207.891 47.3623 208.63 46.5987C209.381 45.8225 210.382 45.4344 211.634 45.4344C212.886 45.4344 213.881 45.8225 214.62 46.5987C215.371 47.3623 215.746 48.4577 215.746 49.8848V51.2556H210.057C210.069 52.1819 210.22 52.8204 210.507 53.1709C210.808 53.5214 211.215 53.6967 211.728 53.6967C212.141 53.6967 212.454 53.5965 212.667 53.3962C212.88 53.1834 213.017 52.933 213.08 52.6451H215.559C215.421 53.5715 215.033 54.3163 214.394 54.8797C213.756 55.443 212.867 55.7247 211.728 55.7247ZM211.709 47.4624C211.196 47.4624 210.802 47.6127 210.526 47.9131C210.251 48.201 210.094 48.7331 210.057 49.5092H213.362C213.324 48.7331 213.168 48.201 212.892 47.9131C212.617 47.6127 212.222 47.4624 211.709 47.4624ZM221.202 55.7247C220.501 55.7247 219.9 55.6496 219.399 55.4993C218.911 55.3491 218.504 55.1426 218.179 54.8797C217.866 54.6043 217.628 54.2788 217.465 53.9032C217.302 53.5151 217.209 53.0958 217.184 52.6451H219.662C219.712 52.9581 219.844 53.2147 220.057 53.415C220.269 53.6028 220.651 53.6967 221.202 53.6967C221.803 53.6967 222.21 53.6153 222.423 53.4526C222.648 53.2773 222.761 53.052 222.761 52.7766C222.761 52.6388 222.742 52.5137 222.704 52.401C222.667 52.2883 222.585 52.1819 222.46 52.0818C222.335 51.9816 222.16 51.8877 221.934 51.8001C221.709 51.7125 221.402 51.6311 221.014 51.556C219.737 51.3056 218.811 50.9488 218.235 50.4857C217.672 50.01 217.39 49.3465 217.39 48.4952C217.39 47.5814 217.703 46.8428 218.329 46.2794C218.955 45.7161 219.913 45.4344 221.202 45.4344C222.479 45.4344 223.418 45.7161 224.019 46.2794C224.632 46.8428 224.964 47.5814 225.014 48.4952H222.535C222.485 48.1572 222.366 47.9006 222.178 47.7253C222.003 47.5501 221.678 47.4624 221.202 47.4624C220.701 47.4624 220.351 47.5438 220.15 47.7066C219.963 47.8568 219.869 48.0758 219.869 48.3638C219.869 48.6267 219.975 48.852 220.188 49.0398C220.413 49.215 220.864 49.3653 221.54 49.4904C222.216 49.6156 222.786 49.7658 223.249 49.9411C223.724 50.1164 224.106 50.3292 224.394 50.5796C224.695 50.8299 224.907 51.1241 225.033 51.4621C225.158 51.8001 225.22 52.1944 225.22 52.6451C225.22 53.559 224.895 54.3038 224.244 54.8797C223.606 55.443 222.592 55.7247 221.202 55.7247ZM230.966 55.7247C229.639 55.7247 228.588 55.3303 227.812 54.5417C227.048 53.7405 226.666 52.595 226.666 51.1053V49.866C226.666 49.1775 226.766 48.5578 226.967 48.007C227.167 47.4562 227.449 46.993 227.812 46.6174C228.187 46.2294 228.638 45.9352 229.164 45.7349C229.702 45.5346 230.303 45.4344 230.966 45.4344C231.63 45.4344 232.225 45.5346 232.75 45.7349C233.289 45.9352 233.739 46.2294 234.102 46.6174C234.478 46.993 234.766 47.4562 234.966 48.007C235.166 48.5578 235.267 49.1775 235.267 49.866V51.1053C235.267 52.595 234.878 53.7405 234.102 54.5417C233.339 55.3303 232.293 55.7247 230.966 55.7247ZM230.966 53.5652C231.53 53.5652 231.962 53.3837 232.262 53.0207C232.575 52.6451 232.732 52.0067 232.732 51.1053V49.866C232.732 49.0523 232.575 48.4702 232.262 48.1197C231.962 47.7691 231.53 47.5939 230.966 47.5939C230.403 47.5939 229.965 47.7691 229.652 48.1197C229.352 48.4702 229.201 49.0523 229.201 49.866V51.1053C229.201 52.0067 229.352 52.6451 229.652 53.0207C229.965 53.3837 230.403 53.5652 230.966 53.5652ZM240.206 55.7247C239.254 55.7247 238.491 55.418 237.915 54.8046C237.339 54.1786 237.051 53.221 237.051 51.9316V45.6034H239.586V51.5372C239.586 52.2633 239.711 52.7828 239.962 53.0958C240.225 53.4087 240.575 53.5652 241.013 53.5652C241.464 53.5652 241.846 53.39 242.159 53.0394C242.472 52.6889 242.628 52.1882 242.628 51.5372V45.6034H245.163V55.5557H242.816V53.9971C242.591 54.5104 242.246 54.9297 241.783 55.2552C241.333 55.5682 240.807 55.7247 240.206 55.7247ZM247.434 45.6034H249.762V47.162C250 46.6487 250.363 46.2356 250.851 45.9227C251.34 45.5972 251.897 45.4344 252.523 45.4344C252.648 45.4344 252.76 45.4407 252.861 45.4532C252.961 45.4657 253.048 45.4783 253.123 45.4908C253.211 45.5033 253.286 45.5158 253.349 45.5283V47.838C253.224 47.8255 253.092 47.8067 252.954 47.7817C252.829 47.7691 252.679 47.7566 252.504 47.7441C252.341 47.7316 252.153 47.7253 251.94 47.7253C251.302 47.7253 250.808 47.8943 250.457 48.2323C250.119 48.5578 249.95 49.021 249.95 49.6219V55.5557H247.434V45.6034ZM258.379 55.7247C257.741 55.7247 257.159 55.6245 256.633 55.4242C256.119 55.2239 255.681 54.9297 255.318 54.5417C254.955 54.1411 254.674 53.6528 254.473 53.077C254.273 52.5011 254.173 51.8439 254.173 51.1053V49.866C254.173 49.1775 254.273 48.5578 254.473 48.007C254.674 47.4562 254.955 46.993 255.318 46.6174C255.681 46.2294 256.119 45.9352 256.633 45.7349C257.159 45.5346 257.741 45.4344 258.379 45.4344C259.018 45.4344 259.581 45.5221 260.069 45.6973C260.557 45.8726 260.97 46.1167 261.308 46.4297C261.646 46.7426 261.903 47.1119 262.078 47.5376C262.266 47.9632 262.372 48.4201 262.398 48.9083H259.844C259.781 48.5453 259.637 48.2386 259.412 47.9882C259.187 47.7253 258.842 47.5939 258.379 47.5939C257.866 47.5939 257.459 47.7691 257.159 48.1197C256.858 48.4702 256.708 49.0523 256.708 49.866V51.1053C256.708 52.0067 256.858 52.6451 257.159 53.0207C257.459 53.3837 257.866 53.5652 258.379 53.5652C258.842 53.5652 259.187 53.44 259.412 53.1897C259.637 52.9268 259.781 52.6138 259.844 52.2508H262.398C262.36 52.764 262.247 53.2335 262.06 53.6591C261.872 54.0722 261.609 54.4353 261.271 54.7482C260.945 55.0612 260.539 55.3053 260.05 55.4806C259.575 55.6433 259.018 55.7247 258.379 55.7247ZM267.768 55.7247C267.13 55.7247 266.547 55.6245 266.022 55.4242C265.508 55.2239 265.07 54.9297 264.707 54.5417C264.344 54.1411 264.062 53.6528 263.862 53.077C263.662 52.5011 263.562 51.8439 263.562 51.1053V49.866C263.562 48.4514 263.931 47.3623 264.67 46.5987C265.421 45.8225 266.422 45.4344 267.674 45.4344C268.926 45.4344 269.921 45.8225 270.66 46.5987C271.411 47.3623 271.786 48.4577 271.786 49.8848V51.2556H266.097C266.109 52.1819 266.259 52.8204 266.547 53.1709C266.848 53.5214 267.255 53.6967 267.768 53.6967C268.181 53.6967 268.494 53.5965 268.707 53.3962C268.92 53.1834 269.057 52.933 269.12 52.6451H271.599C271.461 53.5715 271.073 54.3163 270.434 54.8797C269.796 55.443 268.907 55.7247 267.768 55.7247ZM267.749 47.4624C267.236 47.4624 266.842 47.6127 266.566 47.9131C266.291 48.201 266.134 48.7331 266.097 49.5092H269.402C269.364 48.7331 269.208 48.201 268.932 47.9131C268.657 47.6127 268.262 47.4624 267.749 47.4624Z" fill="#100C27"/>
<rect x="144.972" y="78.1667" width="168" height="9" rx="2.88889" fill="#D3D5DC"/>
<rect x="144.972" y="98" width="85" height="8" rx="2.88889" fill="#D3D5DC"/>
<rect x="181.083" y="118" width="61.3889" height="20" rx="4" fill="#876FEC"/>
<rect x="253.306" y="118" width="61.3889" height="20" rx="4" fill="#D3D5DC"/>
<rect x="325.528" y="118" width="61.3889" height="20" rx="4" fill="#D3D5DC"/>
<rect x="181.083" y="150" width="61.3889" height="20" rx="4" fill="#D3D5DC"/>
<rect x="253.306" y="150" width="61.3889" height="20" rx="4" fill="#D3D5DC"/>
<rect x="325.528" y="150" width="61.3889" height="20" rx="4" fill="#D3D5DC"/>
<rect x="181.083" y="182" width="61.3889" height="20" rx="4" fill="#D3D5DC"/>
<rect x="253.306" y="182" width="61.3889" height="20" rx="4" fill="#D3D5DC"/>
<rect x="325.528" y="182" width="61.3889" height="20" rx="4" fill="#D3D5DC"/>
<defs>
<filter id="filter0_dd_842_15969" x="125.472" y="22.5556" width="317.056" height="212.333" filterUnits="userSpaceOnUse" color-interpolation-filters="sRGB">
<feFlood flood-opacity="0" result="BackgroundImageFix"/>
<feColorMatrix in="SourceAlpha" type="matrix" values="0 0 0 0 0 0 0 0 0 0 0 0 0 0 0 0 0 0 127 0" result="hardAlpha"/>
<feMorphology radius="2.16667" operator="erode" in="SourceAlpha" result="effect1_dropShadow_842_15969"/>
<feOffset dy="7.22222"/>
<feGaussianBlur stdDeviation="5.41667"/>
<feComposite in2="hardAlpha" operator="out"/>
<feColorMatrix type="matrix" values="0 0 0 0 0.0666667 0 0 0 0 0.0941176 0 0 0 0 0.152941 0 0 0 0.1 0"/>
<feBlend mode="normal" in2="BackgroundImageFix" result="effect1_dropShadow_842_15969"/>
<feColorMatrix in="SourceAlpha" type="matrix" values="0 0 0 0 0 0 0 0 0 0 0 0 0 0 0 0 0 0 127 0" result="hardAlpha"/>
<feMorphology radius="1.44444" operator="erode" in="SourceAlpha" result="effect2_dropShadow_842_15969"/>
<feOffset dy="2.88889"/>
<feGaussianBlur stdDeviation="2.16667"/>
<feComposite in2="hardAlpha" operator="out"/>
<feColorMatrix type="matrix" values="0 0 0 0 0.0666667 0 0 0 0 0.0941176 0 0 0 0 0.152941 0 0 0 0.06 0"/>
<feBlend mode="normal" in2="effect1_dropShadow_842_15969" result="effect2_dropShadow_842_15969"/>
<feBlend mode="normal" in="SourceGraphic" in2="effect2_dropShadow_842_15969" result="shape"/>
</filter>
</defs>
</svg>
