<svg width="568" height="259" viewBox="0 0 568 259" fill="none" xmlns="http://www.w3.org/2000/svg">
<g filter="url(#filter0_dd_896_13757)">
<rect x="134.139" y="24" width="299.722" height="195" rx="5.77778" fill="white"/>
<rect x="134.5" y="24.3611" width="299" height="194.278" rx="5.41667" stroke="#D3D5DC" stroke-width="0.722222"/>
</g>
<path d="M146.418 42.4112H151.244C152.108 42.4112 152.859 42.5114 153.497 42.7117C154.136 42.912 154.662 43.1999 155.075 43.5754C155.5 43.9385 155.82 44.3766 156.032 44.8899C156.245 45.3906 156.352 45.9477 156.352 46.5611C156.352 47.4249 156.151 48.176 155.751 48.8144C155.363 49.4529 154.768 49.9411 153.967 50.2791L156.727 55.5557H153.798L151.376 50.7486H149.103V55.5557H146.418V42.4112ZM151.244 48.4952C152.108 48.4952 152.728 48.3262 153.103 47.9882C153.479 47.6502 153.666 47.1745 153.666 46.5611C153.666 45.9602 153.479 45.4908 153.103 45.1528C152.728 44.8148 152.108 44.6458 151.244 44.6458H149.103V48.4952H151.244ZM158.556 45.6034H161.072V55.5557H158.556V45.6034ZM159.814 44.8523C159.401 44.8523 159.044 44.7084 158.744 44.4204C158.456 44.12 158.312 43.7632 158.312 43.3501C158.312 42.937 158.456 42.5865 158.744 42.2986C159.044 41.9981 159.401 41.8479 159.814 41.8479C160.227 41.8479 160.578 41.9981 160.866 42.2986C161.166 42.5865 161.316 42.937 161.316 43.3501C161.316 43.7632 161.166 44.12 160.866 44.4204C160.578 44.7084 160.227 44.8523 159.814 44.8523ZM167.143 55.7247C166.441 55.7247 165.841 55.6496 165.34 55.4993C164.852 55.3491 164.445 55.1426 164.119 54.8797C163.806 54.6043 163.568 54.2788 163.406 53.9032C163.243 53.5151 163.149 53.0958 163.124 52.6451H165.603C165.653 52.9581 165.784 53.2147 165.997 53.415C166.21 53.6028 166.592 53.6967 167.143 53.6967C167.743 53.6967 168.15 53.6153 168.363 53.4526C168.588 53.2773 168.701 53.052 168.701 52.7766C168.701 52.6388 168.682 52.5137 168.645 52.401C168.607 52.2883 168.526 52.1819 168.401 52.0818C168.275 51.9816 168.1 51.8877 167.875 51.8001C167.65 51.7125 167.343 51.6311 166.955 51.556C165.678 51.3056 164.751 50.9488 164.176 50.4857C163.612 50.01 163.331 49.3465 163.331 48.4952C163.331 47.5814 163.644 46.8428 164.27 46.2794C164.895 45.7161 165.853 45.4344 167.143 45.4344C168.419 45.4344 169.358 45.7161 169.959 46.2794C170.573 46.8428 170.904 47.5814 170.954 48.4952H168.476C168.426 48.1572 168.307 47.9006 168.119 47.7253C167.944 47.5501 167.618 47.4624 167.143 47.4624C166.642 47.4624 166.291 47.5438 166.091 47.7066C165.903 47.8568 165.809 48.0758 165.809 48.3638C165.809 48.6267 165.916 48.852 166.129 49.0398C166.354 49.215 166.805 49.3653 167.481 49.4904C168.157 49.6156 168.726 49.7658 169.189 49.9411C169.665 50.1164 170.047 50.3292 170.335 50.5796C170.635 50.8299 170.848 51.1241 170.973 51.4621C171.098 51.8001 171.161 52.1944 171.161 52.6451C171.161 53.559 170.835 54.3038 170.185 54.8797C169.546 55.443 168.532 55.7247 167.143 55.7247ZM172.945 42.43H175.424V49.2839L178.653 45.6034H181.489L177.94 49.6219L182.052 55.5557H179.142L176.344 51.4621L175.442 52.4573V55.5557H172.945V42.43ZM182.872 48.4201H188.018V50.6734H182.872V48.4201ZM194.831 55.6683C194.117 55.6683 193.542 55.5181 193.103 55.2177C192.678 54.9047 192.34 54.4978 192.089 53.9971V55.5557H189.742V42.4112H192.277V46.993C192.515 46.5173 192.847 46.1417 193.272 45.8663C193.698 45.5784 194.218 45.4344 194.831 45.4344C195.908 45.4344 196.753 45.785 197.366 46.486C197.979 47.187 198.286 48.3137 198.286 49.866V51.1053C198.286 51.919 198.205 52.6201 198.042 53.2084C197.892 53.7843 197.666 54.2537 197.366 54.6168C197.066 54.9798 196.702 55.249 196.277 55.4242C195.851 55.587 195.369 55.6683 194.831 55.6683ZM194.042 53.5089C194.568 53.5089 194.981 53.3274 195.282 52.9643C195.595 52.6013 195.751 51.9816 195.751 51.1053V49.866C195.751 49.0523 195.595 48.4702 195.282 48.1197C194.981 47.7691 194.568 47.5939 194.042 47.5939C193.479 47.5939 193.041 47.7691 192.728 48.1197C192.427 48.4702 192.277 49.0523 192.277 49.866V51.1053C192.277 51.9816 192.427 52.6013 192.728 52.9643C193.041 53.3274 193.479 53.5089 194.042 53.5089ZM202.543 55.6683C201.641 55.6683 200.928 55.418 200.402 54.9172C199.889 54.4165 199.632 53.6779 199.632 52.7014C199.632 51.7 199.926 50.9426 200.515 50.4293C201.103 49.9036 201.986 49.6407 203.162 49.6407H205.228V49.0586C205.228 48.4952 205.109 48.1009 204.871 47.8756C204.646 47.6377 204.258 47.5188 203.707 47.5188C203.181 47.5188 202.812 47.6064 202.599 47.7817C202.399 47.9569 202.286 48.201 202.261 48.514H200.064C200.089 47.5376 200.383 46.7802 200.947 46.2419C201.522 45.7036 202.461 45.4344 203.763 45.4344C205.128 45.4344 206.111 45.7224 206.711 46.2982C207.312 46.8741 207.613 47.7879 207.613 49.0398V55.5557H205.416V53.9971C205.291 54.2224 205.147 54.4415 204.984 54.6543C204.821 54.8546 204.627 55.0299 204.402 55.1801C204.176 55.3303 203.914 55.4493 203.613 55.5369C203.313 55.6245 202.956 55.6683 202.543 55.6683ZM203.313 53.6403C203.926 53.6403 204.395 53.4713 204.721 53.1333C205.059 52.7953 205.228 52.3071 205.228 51.6687V51.3307H203.444C202.918 51.3307 202.549 51.4371 202.336 51.6499C202.136 51.8502 202.036 52.1318 202.036 52.4949C202.036 53.2585 202.461 53.6403 203.313 53.6403ZM213.317 55.7247C212.616 55.7247 212.015 55.6496 211.514 55.4993C211.026 55.3491 210.619 55.1426 210.294 54.8797C209.981 54.6043 209.743 54.2788 209.58 53.9032C209.417 53.5151 209.323 53.0958 209.298 52.6451H211.777C211.827 52.9581 211.959 53.2147 212.171 53.415C212.384 53.6028 212.766 53.6967 213.317 53.6967C213.918 53.6967 214.325 53.6153 214.537 53.4526C214.763 53.2773 214.875 53.052 214.875 52.7766C214.875 52.6388 214.857 52.5137 214.819 52.401C214.781 52.2883 214.7 52.1819 214.575 52.0818C214.45 51.9816 214.274 51.8877 214.049 51.8001C213.824 51.7125 213.517 51.6311 213.129 51.556C211.852 51.3056 210.926 50.9488 210.35 50.4857C209.787 50.01 209.505 49.3465 209.505 48.4952C209.505 47.5814 209.818 46.8428 210.444 46.2794C211.07 45.7161 212.027 45.4344 213.317 45.4344C214.594 45.4344 215.533 45.7161 216.133 46.2794C216.747 46.8428 217.079 47.5814 217.129 48.4952H214.65C214.6 48.1572 214.481 47.9006 214.293 47.7253C214.118 47.5501 213.793 47.4624 213.317 47.4624C212.816 47.4624 212.466 47.5438 212.265 47.7066C212.077 47.8568 211.984 48.0758 211.984 48.3638C211.984 48.6267 212.09 48.852 212.303 49.0398C212.528 49.215 212.979 49.3653 213.655 49.4904C214.331 49.6156 214.9 49.7658 215.364 49.9411C215.839 50.1164 216.221 50.3292 216.509 50.5796C216.809 50.8299 217.022 51.1241 217.147 51.4621C217.273 51.8001 217.335 52.1944 217.335 52.6451C217.335 53.559 217.01 54.3038 216.359 54.8797C215.72 55.443 214.706 55.7247 213.317 55.7247ZM222.987 55.7247C222.349 55.7247 221.767 55.6245 221.241 55.4242C220.728 55.2239 220.29 54.9297 219.927 54.5417C219.564 54.1411 219.282 53.6528 219.082 53.077C218.881 52.5011 218.781 51.8439 218.781 51.1053V49.866C218.781 48.4514 219.15 47.3623 219.889 46.5987C220.64 45.8225 221.642 45.4344 222.893 45.4344C224.145 45.4344 225.141 45.8225 225.879 46.5987C226.63 47.3623 227.006 48.4577 227.006 49.8848V51.2556H221.316C221.329 52.1819 221.479 52.8204 221.767 53.1709C222.067 53.5214 222.474 53.6967 222.987 53.6967C223.4 53.6967 223.713 53.5965 223.926 53.3962C224.139 53.1834 224.277 52.933 224.339 52.6451H226.818C226.68 53.5715 226.292 54.3163 225.654 54.8797C225.015 55.443 224.127 55.7247 222.987 55.7247ZM222.969 47.4624C222.455 47.4624 222.061 47.6127 221.786 47.9131C221.51 48.201 221.354 48.7331 221.316 49.5092H224.621C224.583 48.7331 224.427 48.201 224.152 47.9131C223.876 47.6127 223.482 47.4624 222.969 47.4624ZM231.992 55.6683C231.454 55.6683 230.972 55.587 230.546 55.4242C230.12 55.249 229.757 54.9798 229.457 54.6168C229.156 54.2537 228.925 53.7843 228.762 53.2084C228.612 52.6201 228.537 51.919 228.537 51.1053V49.866C228.537 48.3137 228.843 47.187 229.457 46.486C230.07 45.785 230.915 45.4344 231.992 45.4344C232.605 45.4344 233.125 45.5784 233.55 45.8663C233.976 46.1417 234.308 46.5173 234.546 46.993V42.4112H237.081V55.5557H234.733V53.9971C234.483 54.4978 234.139 54.9047 233.701 55.2177C233.275 55.5181 232.705 55.6683 231.992 55.6683ZM232.781 53.5089C233.344 53.5089 233.776 53.3274 234.076 52.9643C234.389 52.6013 234.546 51.9816 234.546 51.1053V49.866C234.546 49.0523 234.389 48.4702 234.076 48.1197C233.776 47.7691 233.344 47.5939 232.781 47.5939C232.255 47.5939 231.835 47.7691 231.522 48.1197C231.222 48.4702 231.072 49.0523 231.072 49.866V51.1053C231.072 51.9816 231.222 52.6013 231.522 52.9643C231.835 53.3274 232.255 53.5089 232.781 53.5089ZM244.323 42.4112H247.027L250.745 49.9036L254.463 42.4112H257.017V55.5557H254.463V46.9179L251.628 52.7578H249.712L246.877 46.9179V55.5557H244.323V42.4112ZM259.91 42.4112H268.529V44.6458H262.595V47.8568H267.834V50.1101H262.595V55.5557H259.91V42.4112ZM273.409 42.4112H276.226L280.789 55.5557H277.916L277.033 52.9456H272.527L271.625 55.5557H268.846L273.409 42.4112ZM276.282 50.6922L274.78 45.7537L273.259 50.6922H276.282Z" fill="#100C27"/>
<rect x="144.972" y="78.5" width="33.9444" height="8.66667" rx="2.88889" fill="#876FEC"/>
<rect x="189.75" y="78.1665" width="57" height="9" rx="2.88889" fill="#D3D5DC"/>
<rect x="144.972" y="100.167" width="278.056" height="1.44444" rx="0.722222" fill="#E7E8EF"/>
<rect x="144.972" y="114.611" width="150" height="8" rx="2.88889" fill="#D3D5DC"/>
<rect x="144.972" y="135.611" width="278.056" height="1.44444" rx="0.722222" fill="#E7E8EF"/>
<rect x="144.972" y="150.055" width="150" height="9" rx="2.88889" fill="#D3D5DC"/>
<rect x="144.972" y="172.055" width="278.056" height="1.44444" rx="0.722222" fill="#E7E8EF"/>
<rect x="144.972" y="186.5" width="57" height="9" rx="2.88889" fill="#D3D5DC"/>
<defs>
<filter id="filter0_dd_896_13757" x="125.472" y="22.5556" width="317.056" height="212.333" filterUnits="userSpaceOnUse" color-interpolation-filters="sRGB">
<feFlood flood-opacity="0" result="BackgroundImageFix"/>
<feColorMatrix in="SourceAlpha" type="matrix" values="0 0 0 0 0 0 0 0 0 0 0 0 0 0 0 0 0 0 127 0" result="hardAlpha"/>
<feMorphology radius="2.16667" operator="erode" in="SourceAlpha" result="effect1_dropShadow_896_13757"/>
<feOffset dy="7.22222"/>
<feGaussianBlur stdDeviation="5.41667"/>
<feComposite in2="hardAlpha" operator="out"/>
<feColorMatrix type="matrix" values="0 0 0 0 0.0666667 0 0 0 0 0.0941176 0 0 0 0 0.152941 0 0 0 0.1 0"/>
<feBlend mode="normal" in2="BackgroundImageFix" result="effect1_dropShadow_896_13757"/>
<feColorMatrix in="SourceAlpha" type="matrix" values="0 0 0 0 0 0 0 0 0 0 0 0 0 0 0 0 0 0 127 0" result="hardAlpha"/>
<feMorphology radius="1.44444" operator="erode" in="SourceAlpha" result="effect2_dropShadow_896_13757"/>
<feOffset dy="2.88889"/>
<feGaussianBlur stdDeviation="2.16667"/>
<feComposite in2="hardAlpha" operator="out"/>
<feColorMatrix type="matrix" values="0 0 0 0 0.0666667 0 0 0 0 0.0941176 0 0 0 0 0.152941 0 0 0 0.06 0"/>
<feBlend mode="normal" in2="effect1_dropShadow_896_13757" result="effect2_dropShadow_896_13757"/>
<feBlend mode="normal" in="SourceGraphic" in2="effect2_dropShadow_896_13757" result="shape"/>
</filter>
</defs>
</svg>
