<svg xmlns="http://www.w3.org/2000/svg" viewBox="0 0 288 288"><defs><style>.cls-1{fill:none;}.cls-2{fill:#d3eef4;}.cls-3{fill:#bde6ee;}.cls-4{fill:#f80000;}.cls-5{fill:#d90000;}.cls-6{fill:#ba0000;}.cls-7{fill:#9b0000;}.cls-8{fill:#e8e9e9;}.cls-9{fill:#4c7794;}</style></defs><title>Campaign_Oracle-Database-Appliance-Campaign_Detailed</title><g id="Icons"><rect class="cls-1" width="288" height="288"/></g><g id="Layer_3" data-name="Layer 3"><path class="cls-2" d="M205.5,99c-1.04,0-2.067.054-3.084.144a34.508,34.508,0,0,0-44.271-22.222,38.995,38.995,0,0,0-70.1,13.105C87.7,90.017,87.352,90,87,90a39,39,0,0,0,0,78H205.5a34.5,34.5,0,0,0,0-69Z"/><path class="cls-3" d="M205.5,99c-1.04,0-2.067.054-3.084.144A34.5,34.5,0,0,0,149,81.755a32.989,32.989,0,0,0-52.477,20.434A33,33,0,1,0,93,168H205.5a34.5,34.5,0,0,0,0-69Z"/><path class="cls-4" d="M115,134.069c-19.33,0-35-2.7-35-6.035v65.173c0,3.333,15.67,6.034,35,6.034s35-2.7,35-6.034V128.034C150,131.367,134.33,134.069,115,134.069Z"/><path class="cls-5" d="M80,128.034v65.173c0,3.333,15.67,6.034,35,6.034V134.069C95.67,134.069,80,131.367,80,128.034Z"/><path class="cls-5" d="M145.172,131.1v65.171c3.067-.9,4.828-1.942,4.828-3.059V128.034C150,129.151,148.24,130.2,145.172,131.1Z"/><ellipse class="cls-6" cx="115" cy="128.034" rx="35" ry="6.034"/><path class="cls-7" d="M80,169.069c0,3.333,15.67,6.034,35,6.034s35-2.7,35-6.034V173.9c0,3.332-15.67,6.034-35,6.034s-35-2.7-35-6.034Z"/><path class="cls-7" d="M150,147.345c0,3.333-15.67,6.034-35,6.034s-35-2.7-35-6.034v4.827c0,3.333,15.67,6.035,35,6.035s35-2.7,35-6.035Z"/><rect class="cls-8" x="124" y="144" width="84" height="84" rx="8" ry="8"/><path class="cls-9" d="M146.568,191.144q0,3.351-1.557,4.777a6.866,6.866,0,0,1-4.763,1.426,7.125,7.125,0,0,1-2.749-.455,4.08,4.08,0,0,1-1.7-1.294,4.858,4.858,0,0,1-.868-1.955,11.47,11.47,0,0,1-.235-2.353v-.911h3.881v.646a6.329,6.329,0,0,0,.367,2.485,1.823,1.823,0,0,0,3.029,0,6.347,6.347,0,0,0,.367-2.485V176.032h4.233Z"/><path class="cls-9" d="M156.771,176.032a7.574,7.574,0,0,1,3.557.72,5.127,5.127,0,0,1,2.1,2.059,9.127,9.127,0,0,1,1.014,3.218,30.29,30.29,0,0,1,.265,4.2,29.886,29.886,0,0,1-.338,4.808,9.176,9.176,0,0,1-1.162,3.366,5.1,5.1,0,0,1-2.2,1.97,8.271,8.271,0,0,1-3.5.646h-6.674V176.032Zm-.824,17.875a3.621,3.621,0,0,0,1.793-.383,2.606,2.606,0,0,0,1.073-1.263,7.384,7.384,0,0,0,.53-2.323q.133-1.44.133-3.586,0-1.794-.119-3.147a7.763,7.763,0,0,0-.485-2.249,2.8,2.8,0,0,0-1.087-1.352,3.567,3.567,0,0,0-1.926-.456h-1.794v14.759Z"/><path class="cls-9" d="M173.881,176.032a10.21,10.21,0,0,1,2.4.265,4.894,4.894,0,0,1,1.9.882,4.061,4.061,0,0,1,1.235,1.646,6.423,6.423,0,0,1,.441,2.529,5.242,5.242,0,0,1-.794,2.924,3.984,3.984,0,0,1-2.381,1.661V186a4.163,4.163,0,0,1,2.793,1.5,5.2,5.2,0,0,1,1.028,3.381,8.393,8.393,0,0,1-.323,2.351,4.78,4.78,0,0,1-1.1,1.956,5.511,5.511,0,0,1-2.028,1.337,8.377,8.377,0,0,1-3.1.5H166.8V176.032Zm-1.647,8.614a4.186,4.186,0,0,0,2.573-.632,2.546,2.546,0,0,0,.808-2.131,2.634,2.634,0,0,0-.735-2.117,3.575,3.575,0,0,0-2.322-.618h-1.53v5.5Zm.441,9.261a4.131,4.131,0,0,0,2.47-.677,2.89,2.89,0,0,0,.941-2.5,3.987,3.987,0,0,0-.25-1.513,2.553,2.553,0,0,0-.677-.971,2.441,2.441,0,0,0-1.013-.514,5.343,5.343,0,0,0-1.294-.147h-1.824v6.321Z"/><path class="cls-9" d="M191.859,179.78a2.037,2.037,0,0,0-1.985-1.044,1.985,1.985,0,0,0-1.308.427,2.819,2.819,0,0,0-.808,1.382,11.76,11.76,0,0,0-.412,2.5q-.117,1.542-.117,3.777a36.684,36.684,0,0,0,.161,3.852,8.526,8.526,0,0,0,.5,2.278,2.076,2.076,0,0,0,.852,1.088,2.45,2.45,0,0,0,1.192.279,2.83,2.83,0,0,0,1.043-.19,1.765,1.765,0,0,0,.837-.765,4.954,4.954,0,0,0,.559-1.617,14.674,14.674,0,0,0,.206-2.749h4.233a18.891,18.891,0,0,1-.264,3.234,7.3,7.3,0,0,1-.985,2.675,4.886,4.886,0,0,1-2.028,1.794,7.689,7.689,0,0,1-3.4.647,7.98,7.98,0,0,1-3.792-.765,5.145,5.145,0,0,1-2.161-2.2,9.7,9.7,0,0,1-.971-3.439,44.16,44.16,0,0,1,0-8.8,9.74,9.74,0,0,1,.971-3.455,5.427,5.427,0,0,1,2.161-2.249,7.618,7.618,0,0,1,3.792-.809,7.319,7.319,0,0,1,3.572.735,5.009,5.009,0,0,1,1.955,1.867,6.479,6.479,0,0,1,.809,2.44,20.254,20.254,0,0,1,.162,2.455H192.4A7.624,7.624,0,0,0,191.859,179.78Z"/></g></svg>