<svg xmlns="http://www.w3.org/2000/svg" viewBox="0 0 100.71 112.82"><defs><style>.cls-1{fill:#86c3d0;}.cls-2{fill:#fff;}.cls-3{font-size:12px;fill:#1d1d1b;font-family:MyriadPro-Regular, Myriad Pro;}.cls-4{letter-spacing:0em;}.cls-5{letter-spacing:-0.01em;}.cls-6{letter-spacing:0em;}.cls-7{letter-spacing:-0.01em;}.cls-8{letter-spacing:0em;}.cls-9{letter-spacing:0em;}.cls-10{letter-spacing:-0.04em;}.cls-11{letter-spacing:-0.01em;}.cls-12{letter-spacing:0em;}.cls-13{letter-spacing:-0.01em;}.cls-14{letter-spacing:-0.02em;}.cls-15{letter-spacing:-0.01em;}.cls-16{letter-spacing:0.01em;}</style></defs><g id="API"><path class="cls-1" d="M50.35,13.37a43,43,0,1,0,43.05,43A43,43,0,0,0,50.35,13.37Z"/><path class="cls-2" d="M50.36,63.68c-6.4,0-11.23-2.34-11.23-5.45V39.84a.85.85,0,1,1,1.69,0c0,1.77,3.92,3.75,9.54,3.75s9.53-2,9.53-3.75a.85.85,0,1,1,1.69,0V58.23C61.58,61.34,56.76,63.68,50.36,63.68ZM40.82,42.8V58.23C40.82,60,44.74,62,50.36,62s9.53-2,9.53-3.75V42.8c-2,1.51-5.42,2.48-9.53,2.48S42.77,44.31,40.82,42.8Z"/><path class="cls-2" d="M50.36,45.28c-6.4,0-11.23-2.34-11.23-5.44S44,34.39,50.36,34.39s11.22,2.34,11.22,5.45S56.76,45.28,50.36,45.28Zm0-9.2c-5.62,0-9.54,2-9.54,3.76s3.92,3.75,9.54,3.75,9.53-2,9.53-3.75S56,36.08,50.36,36.08Z"/><path class="cls-2" d="M50.35,57.55c-6.4,0-11.22-2.34-11.22-5.45a.85.85,0,1,1,1.69,0c0,1.78,3.92,3.75,9.53,3.75s9.54-2,9.54-3.75a.84.84,0,0,1,.84-.85.85.85,0,0,1,.85.85C61.58,55.21,56.75,57.55,50.35,57.55Z"/><path class="cls-2" d="M50.35,51.42c-6.4,0-11.22-2.35-11.22-5.45a.85.85,0,1,1,1.69,0c0,1.77,3.92,3.75,9.53,3.75s9.54-2,9.54-3.75a.84.84,0,0,1,.84-.85.85.85,0,0,1,.85.85C61.58,49.07,56.75,51.42,50.35,51.42Z"/><path class="cls-2" d="M50.35,78.43a4.36,4.36,0,1,1,4.36-4.36A4.36,4.36,0,0,1,50.35,78.43Zm0-7A2.67,2.67,0,1,0,53,74.07,2.66,2.66,0,0,0,50.35,71.41Z"/><path class="cls-2" d="M70,74.92H53.87a.85.85,0,1,1,0-1.7H70a.85.85,0,0,1,0,1.7Z"/><path class="cls-2" d="M46.84,74.92H30.71a.85.85,0,0,1,0-1.7H46.84a.85.85,0,1,1,0,1.7Z"/><path class="cls-2" d="M50.35,71.41a.85.85,0,0,1-.84-.85V62.83a.85.85,0,1,1,1.69,0v7.73A.85.85,0,0,1,50.35,71.41Z"/></g><g id="HOSTING"><text class="cls-3" transform="translate(6.36 -4.98)"><tspan class="cls-4">R</tspan><tspan x="6.5" y="0">equest </tspan><tspan class="cls-5" x="43.16" y="0">C</tspan><tspan x="49.99" y="0">o</tspan><tspan class="cls-6" x="56.58" y="0">n</tspan><tspan class="cls-7" x="63.19" y="0">t</tspan><tspan x="67.09" y="0">e</tspan><tspan class="cls-6" x="73.1" y="0">n</tspan><tspan class="cls-8" x="79.71" y="0">t Limit</tspan></text><text class="cls-3" transform="translate(-115.33 -4.98)"><tspan class="cls-4">R</tspan><tspan x="6.5" y="0">eg</tspan><tspan class="cls-9" x="19.22" y="0">e</tspan><tspan x="25.2" y="0">x</tspan><tspan class="cls-10" x="30.76" y="0"> </tspan><tspan class="cls-11" x="32.81" y="0">T</tspan><tspan class="cls-12" x="38.69" y="0">h</tspan><tspan class="cls-13" x="45.35" y="0">r</tspan><tspan x="49.15" y="0">e</tspan><tspan class="cls-6" x="55.16" y="0">a</tspan><tspan class="cls-8" x="60.9" y="0">t </tspan><tspan class="cls-14" x="67.42" y="0">P</tspan><tspan class="cls-13" x="73.61" y="0">r</tspan><tspan x="77.41" y="0">o</tspan><tspan class="cls-15" x="84" y="0">t</tspan><tspan x="87.9" y="0">e</tspan><tspan class="cls-16" x="93.91" y="0">c</tspan><tspan class="cls-8" x="99.44" y="0">tion</tspan></text></g></svg>