<svg width="24" height="24" viewBox="0 0 24 24" fill="none" xmlns="http://www.w3.org/2000/svg">
<g clip-path="url(#clip0_775_2824)">
<path fill-rule="evenodd" clip-rule="evenodd" d="M12.0732 5.00035L20.7526 13.6877C21.1532 13.1462 21.5223 12.582 21.858 11.9978C21.7488 11.8093 21.6044 11.5694 21.4256 11.2926C20.9646 10.5787 20.2818 9.62943 19.3955 8.68397C17.6186 6.78864 15.1399 5.02799 12.0732 5.00035ZM23 12L23.8944 11.5528C24.0395 11.8429 24.0348 12.1854 23.8819 12.4714C23.2421 13.6684 22.479 14.7953 21.6052 15.8339C21.4247 16.0483 21.1627 16.1771 20.8827 16.1891C20.6027 16.2011 20.3306 16.095 20.1326 15.8968L9.19257 4.94681C8.93609 4.6901 8.83881 4.31458 8.93838 3.96563C9.03796 3.61668 9.31876 3.34905 9.67209 3.26634C10.4355 3.08765 11.2171 2.99828 12.0012 3.00003C12.0016 3.00003 12.002 3.00003 12.0023 3.00003L12 4.00003V3.00003C12.0004 3.00003 12.0008 3.00003 12.0012 3.00003C15.9001 3.00046 18.8957 5.22667 20.8545 7.31608C21.8432 8.37062 22.5979 9.42134 23.1057 10.2075C23.3601 10.6015 23.5542 10.9317 23.686 11.166C23.752 11.2833 23.8025 11.3767 23.8372 11.4425C23.8546 11.4753 23.8681 11.5013 23.8777 11.5198L23.889 11.5421L23.8925 11.5489L23.8944 11.5528C23.8946 11.5532 23.8944 11.5528 23 12ZM5.4531 5.26525C5.85123 4.96123 6.41289 4.9987 6.76711 5.35292L10.5832 9.16899C10.5855 9.1713 10.5878 9.17361 10.5901 9.17594L14.824 13.4098C14.8264 13.4122 14.8287 13.4145 14.8311 13.4169L18.6471 17.2329C18.8511 17.4369 18.9571 17.7191 18.9378 18.007C18.9184 18.2949 18.7757 18.5604 18.5462 18.7353C16.6671 20.1677 14.3789 20.9613 12.0163 20.9999L12 21C8.10049 21 5.10448 18.7736 3.14546 16.684C2.15683 15.6294 1.40207 14.5787 0.894336 13.7926C0.63985 13.3985 0.445792 13.0684 0.313971 12.834C0.248023 12.7168 0.19754 12.6233 0.162753 12.5576C0.145357 12.5247 0.131875 12.4988 0.122338 12.4802L0.11099 12.458L0.107539 12.4512L0.10637 12.4488C0.106186 12.4485 0.105573 12.4472 1 12L0.105573 12.4472C-0.0397387 12.1566 -0.0347895 11.8135 0.118844 11.5272C1.43015 9.08345 3.24891 6.94839 5.4531 5.26525ZM2.14257 12.0032C2.25165 12.1916 2.39592 12.4311 2.57441 12.7075C3.03543 13.4213 3.71817 14.3706 4.60454 15.3161C6.39395 17.2248 8.89512 18.9969 11.9918 19C13.5373 18.9734 15.0437 18.5524 16.3714 17.7856L14.0497 15.464C13.891 15.5635 13.7251 15.652 13.5531 15.7286C13.0625 15.9472 12.5328 16.0648 11.9957 16.0742C11.4586 16.0837 10.9252 15.9849 10.4271 15.7837C9.92902 15.5826 9.47657 15.2831 9.09674 14.9033C8.71691 14.5235 8.41747 14.071 8.21629 13.5729C8.01511 13.0749 7.91631 12.5414 7.92579 12.0043C7.93527 11.4672 8.05282 10.9375 8.27145 10.4469C8.34805 10.2749 8.43652 10.109 8.53604 9.95028L5.9871 7.40134C4.45031 8.7014 3.14935 10.2582 2.14257 12.0032ZM10.0279 11.4421C9.96372 11.6346 9.92907 11.836 9.92548 12.0396C9.92074 12.3081 9.97014 12.5749 10.0707 12.8239C10.1713 13.0729 10.321 13.2992 10.511 13.4891C10.7009 13.679 10.9271 13.8287 11.1761 13.9293C11.4252 14.0299 11.6919 14.0793 11.9604 14.0745C12.164 14.071 12.3655 14.0363 12.5579 13.9721L10.0279 11.4421Z" fill="#6A4FF7"/>
<path fill-rule="evenodd" clip-rule="evenodd" d="M0.292893 0.292893C0.683417 -0.0976311 1.31658 -0.0976311 1.70711 0.292893L23.7071 22.2929C24.0976 22.6834 24.0976 23.3166 23.7071 23.7071C23.3166 24.0976 22.6834 24.0976 22.2929 23.7071L0.292893 1.70711C-0.0976311 1.31658 -0.0976311 0.683417 0.292893 0.292893Z" fill="#6A4FF7"/>
</g>
<defs>
<clipPath id="clip0_775_2824">
<rect width="24" height="24" fill="white"/>
</clipPath>
</defs>
</svg>
