<svg width="491" height="469" viewBox="0 0 491 469" fill="none" xmlns="http://www.w3.org/2000/svg">
<path d="M234.539 0C105.007 0.00197474 0.00124218 104.99 0 234.499C-1.16182e-05 364.01 105.005 469 234.54 469L341.58 469V354.155H491L378.608 222.981H228.447L340.729 354.029L234.54 354.029C168.514 354.029 114.993 300.515 114.991 234.501C114.991 168.488 168.515 114.973 234.54 114.971C267.35 114.972 297.054 128.17 318.669 149.576L328.148 158.963L408.435 76.5927L399.049 67.3571C356.729 25.7155 298.623 0.00099608 234.539 0Z" fill="#ECE7E3"/>
<path d="M234.539 0C105.007 0.00197474 0.00124218 104.99 0 234.499C-1.16182e-05 364.01 105.005 469 234.54 469L341.58 469V354.155H491L378.608 222.981H228.447L340.729 354.029L234.54 354.029C168.514 354.029 114.993 300.515 114.991 234.501C114.991 168.488 168.515 114.973 234.54 114.971C267.35 114.972 297.054 128.17 318.669 149.576L328.148 158.963L408.435 76.5927L399.049 67.3571C356.729 25.7155 298.623 0.00099608 234.539 0Z" fill="url(#paint0_linear_10485_5728)"/>
<defs>
<linearGradient id="paint0_linear_10485_5728" x1="443.632" y1="25.448" x2="53.0113" y2="469.07" gradientUnits="userSpaceOnUse">
<stop stop-color="#FF7200"/>
<stop offset="1" stop-color="#F01114"/>
</linearGradient>
</defs>
</svg>
