<svg xmlns="http://www.w3.org/2000/svg" viewBox="0 0 100.71 112.82"><defs><style>.cls-1{fill:#86c3d0;}.cls-2{fill:#fff;}.cls-3{font-size:12px;fill:#1d1d1b;font-family:MyriadPro-Regular, Myriad Pro;}.cls-4{letter-spacing:-0.01em;}.cls-5{letter-spacing:0em;}.cls-6{letter-spacing:-0.01em;}.cls-7{letter-spacing:0em;}.cls-8{letter-spacing:-0.01em;}</style></defs><g id="API"><path class="cls-1" d="M50.35,13.37a43,43,0,1,0,43.05,43A43,43,0,0,0,50.35,13.37Z"/><path class="cls-2" d="M74,78.65H26.72a3.36,3.36,0,0,1-3.36-3.35V45.16a1,1,0,0,1,1-1H76.31a1,1,0,0,1,1,1V75.3A3.36,3.36,0,0,1,74,78.65ZM25.44,46.2V75.3a1.28,1.28,0,0,0,1.28,1.28H74a1.28,1.28,0,0,0,1.28-1.28V46.2Z"/><path class="cls-2" d="M76.31,46.2H24.4a1,1,0,0,1-1-1V37.52a3.37,3.37,0,0,1,3.36-3.36H74a3.37,3.37,0,0,1,3.36,3.36v7.64A1,1,0,0,1,76.31,46.2ZM25.44,44.12H75.27v-6.6A1.28,1.28,0,0,0,74,36.24H26.72a1.28,1.28,0,0,0-1.28,1.28Z"/><path class="cls-2" d="M39,40.18a1.62,1.62,0,1,0,1.61-1.61A1.62,1.62,0,0,0,39,40.18Z"/><path class="cls-2" d="M34,40.18a1.62,1.62,0,1,0,1.61-1.61A1.62,1.62,0,0,0,34,40.18Z"/><path class="cls-2" d="M29.1,40.18a1.62,1.62,0,1,0,1.61-1.61A1.62,1.62,0,0,0,29.1,40.18Z"/><path class="cls-2" d="M66,72.88H63.41a1,1,0,1,1,0-2.07H65V69.25a1,1,0,0,1,2.08,0v2.59A1,1,0,0,1,66,72.88Z"/><path class="cls-2" d="M57.51,72.88H53.3a1,1,0,1,1,0-2.07h4.21a1,1,0,1,1,0,2.07Zm-10.1,0H43.2a1,1,0,1,1,0-2.07h4.21a1,1,0,1,1,0,2.07Z"/><path class="cls-2" d="M37.3,72.88H34.71a1,1,0,0,1-1-1V69.25a1,1,0,1,1,2.08,0v1.56H37.3a1,1,0,1,1,0,2.07Z"/><path class="cls-2" d="M34.71,64.5a1,1,0,0,1-1-1V59.32a1,1,0,0,1,2.08,0v4.14A1,1,0,0,1,34.71,64.5Z"/><path class="cls-2" d="M34.71,54.57a1,1,0,0,1-1-1v-2.6a1,1,0,0,1,1-1H37.3a1,1,0,1,1,0,2.08H35.75v1.56A1,1,0,0,1,34.71,54.57Z"/><path class="cls-2" d="M57.51,52H53.3a1,1,0,0,1,0-2.08h4.21a1,1,0,0,1,0,2.08Zm-10.1,0H43.2a1,1,0,0,1,0-2.08h4.21a1,1,0,1,1,0,2.08Z"/><path class="cls-2" d="M66,54.57a1,1,0,0,1-1-1V52H63.41a1,1,0,0,1,0-2.08H66a1,1,0,0,1,1,1v2.6A1,1,0,0,1,66,54.57Z"/><path class="cls-2" d="M66,64.49a1,1,0,0,1-1-1V59.32a1,1,0,0,1,2.08,0v4.14A1,1,0,0,1,66,64.49Z"/><path class="cls-2" d="M50.35,67.13a1,1,0,0,1-1-1v-9.4a1,1,0,1,1,2.07,0v9.4A1,1,0,0,1,50.35,67.13Z"/><path class="cls-2" d="M55.06,62.43H45.65a1,1,0,1,1,0-2.08h9.41a1,1,0,0,1,0,2.08Z"/></g><g id="HOSTING"><text class="cls-3" transform="translate(17.93 -4.98)"><tspan class="cls-4">A</tspan><tspan x="7.27" y="0">ssi</tspan><tspan class="cls-4" x="19.58" y="0">g</tspan><tspan class="cls-5" x="26.22" y="0">n </tspan><tspan class="cls-6" x="35.42" y="0">c</tspan><tspan x="40.73" y="0">o</tspan><tspan class="cls-7" x="47.32" y="0">n</tspan><tspan class="cls-8" x="53.93" y="0">t</tspan><tspan x="57.83" y="0">e</tspan><tspan class="cls-7" x="63.84" y="0">n</tspan><tspan class="cls-5" x="70.45" y="0">t</tspan></text></g></svg>